SplineFontDB: 3.0
FontName: ume-stroke-stroke-fat-fat
FullName: Ume P Gothic Balsa Regular
FamilyName: ume-stroke-stroke-fat-fat
Weight: Book
Copyright: Author: HORAI Wataru. License: This font is a free software. Unlimited permission is granted to use, copy, and distribute it, with or without modification, either commercially and noncommercially. THIS FONT IS PROVIDED "AS IS" WITHOUT WARRANTY.
Version: Look update time of this file.
ItalicAngle: 0
UnderlinePosition: -180
UnderlineWidth: 24
Ascent: 1760
Descent: 288
InvalidEm: 0
LayerCount: 2
Layer: 0 0 "Arri+AOgA-re" 1
Layer: 1 0 "Avant" 0
FSType: 4
OS2Version: 0
OS2_WeightWidthSlopeOnly: 0
OS2_UseTypoMetrics: 0
CreationTime: 1494263581
ModificationTime: 1494263846
OS2TypoAscent: 0
OS2TypoAOffset: 1
OS2TypoDescent: 0
OS2TypoDOffset: 1
OS2TypoLinegap: 0
OS2WinAscent: 0
OS2WinAOffset: 1
OS2WinDescent: 0
OS2WinDOffset: 1
HheadAscent: 0
HheadAOffset: 1
HheadDescent: 0
HheadDOffset: 1
OS2Vendor: 'PfEd'
DEI: 91125
Encoding: Custom
UnicodeInterp: none
NameList: AGL For New Fonts
DisplaySize: -36
AntiAlias: 1
FitToEm: 0
WinInfo: 0 36 12
BeginPrivate: 6
StdHW 5 [250]
StemSnapH 48 [3 122 195 200 230 235 245 250 255 260 265 674 ]
StdVW 5 [251]
StemSnapV 14 [247 251 255 ]
BlueValues 28 [-0 -0 1176 1176 1552 1552 ]
OtherBlues 12 [-288 -288 ]
EndPrivate
BeginChars: 295 232

StartChar: .notdef
Encoding: 0 -1 0
Width: 748
LayerCount: 2
Fore
SplineSet
68 0 m 1
 68 1365 l 1
 612 1365 l 1
 612 0 l 1
 68 0 l 1
136 68 m 1
 544 68 l 1
 544 1297 l 1
 136 1297 l 1
 136 68 l 1
EndSplineSet
EndChar

StartChar: exclam
Encoding: 33 33 4
Width: 448
Flags: W
LayerCount: 2
Fore
SplineSet
128 1552 m 1
 320 1552 l 1
 280 488 l 1
 160 488 l 1
 128 1552 l 1
152 0 m 1
 152 264 l 1
 296 264 l 1
 296 0 l 1
 152 0 l 1
EndSplineSet
EndChar

StartChar: quotedbl
Encoding: 34 34 5
Width: 1024
Flags: W
LayerCount: 2
Fore
SplineSet
136 864 m 1
 136 1008 l 1
 211 1008 248 1093 248 1264 c 1
 136 1264 l 1
 136 1552 l 1
 368 1552 l 1
 368 1256 l 2
 368 1005 291 875 136 864 c 1
512 864 m 1
 512 1008 l 1
 587 1008 624 1093 624 1264 c 1
 512 1264 l 1
 512 1552 l 1
 744 1552 l 1
 744 1256 l 2
 744 1005 667 875 512 864 c 1
EndSplineSet
EndChar

StartChar: numbersign
Encoding: 35 35 6
Width: 1024
Flags: W
LayerCount: 2
Fore
SplineSet
24 464 m 1
 24 576 l 1
 199 576 l 1
 276 1040 l 1
 88 1040 l 1
 88 1152 l 1
 294 1152 l 1
 360 1552 l 1
 504 1552 l 1
 438 1152 l 1
 702 1152 l 1
 768 1552 l 1
 912 1552 l 1
 846 1152 l 1
 1000 1152 l 1
 1000 1040 l 1
 828 1040 l 1
 751 576 l 1
 928 576 l 1
 928 464 l 1
 732 464 l 1
 656 0 l 1
 512 0 l 1
 588 464 l 1
 324 464 l 1
 248 0 l 1
 104 0 l 1
 180 464 l 1
 24 464 l 1
343 576 m 1
 607 576 l 1
 684 1040 l 1
 420 1040 l 1
 343 576 l 1
EndSplineSet
EndChar

StartChar: dollar
Encoding: 36 36 7
Width: 1024
Flags: W
LayerCount: 2
Fore
SplineSet
80 184 m 1
 80 376 l 1
 160 285 237 224 312 192 c 0
 357 172 400 158 440 151 c 1
 440 722 l 1
 395 733 345 749 292 772 c 0
 236 796 187 839 144 900 c 0
 101 961 80 1040 80 1136 c 0
 80 1259 109 1359 168 1436 c 0
 218 1503 309 1541 440 1550 c 1
 440 1760 l 1
 584 1760 l 1
 584 1548 l 1
 641 1542 695 1529 744 1508 c 0
 813 1479 877 1435 936 1376 c 1
 936 1160 l 1
 861 1251 795 1316 736 1356 c 0
 693 1385 643 1404 584 1412 c 1
 584 822 l 1
 645 811 705 787 764 752 c 0
 825 715 871 668 900 612 c 0
 929 556 944 488 944 408 c 0
 944 269 911 167 844 100 c 0
 788 44 701 11 584 2 c 1
 584 -288 l 1
 440 -288 l 1
 440 6 l 1
 391 13 339 27 284 48 c 0
 201 80 133 125 80 184 c 1
232 1136 m 0
 232 1045 253 979 296 936 c 0
 335 897 383 872 440 859 c 1
 440 1412 l 1
 367 1404 317 1381 288 1344 c 0
 251 1296 232 1227 232 1136 c 0
584 148 m 1
 645 156 693 175 728 204 c 0
 776 244 800 312 800 408 c 0
 800 499 772 567 716 612 c 0
 667 652 623 679 584 692 c 1
 584 148 l 1
EndSplineSet
EndChar

StartChar: percent
Encoding: 37 37 8
Width: 1024
Flags: W
LayerCount: 2
Fore
SplineSet
16 1128 m 0
 16 1288 36 1407 76 1484 c 0
 116 1561 176 1600 256 1600 c 0
 341 1600 401 1557 436 1472 c 0
 471 1387 488 1272 488 1128 c 0
 488 957 468 836 428 764 c 0
 388 692 331 656 256 656 c 0
 165 656 103 697 68 780 c 0
 33 863 16 979 16 1128 c 0
104 -88 m 1
 784 1624 l 1
 936 1624 l 1
 256 -88 l 1
 104 -88 l 1
168 1128 m 0
 168 899 197 784 256 784 c 0
 315 784 344 899 344 1128 c 0
 344 1352 315 1464 256 1464 c 1
 197 1469 168 1357 168 1128 c 0
520 352 m 0
 520 512 539 629 576 704 c 0
 613 779 672 816 752 816 c 0
 832 816 892 776 932 696 c 0
 972 616 992 501 992 352 c 0
 992 181 971 63 928 -4 c 0
 885 -71 827 -104 752 -104 c 0
 667 -104 607 -65 572 12 c 0
 537 89 520 203 520 352 c 0
672 352 m 0
 672 139 699 32 752 32 c 0
 816 32 848 139 848 352 c 0
 848 571 816 680 752 680 c 0
 699 680 672 571 672 352 c 0
EndSplineSet
EndChar

StartChar: ampersand
Encoding: 38 38 9
Width: 1216
Flags: W
LayerCount: 2
Fore
SplineSet
64 384 m 0
 64 464 87 536 132 600 c 0
 177 664 239 719 316 764 c 0
 327 771 338 777 350 784 c 1
 255 959 205 1103 200 1216 c 1
 205 1333 240 1420 304 1476 c 0
 368 1532 448 1557 544 1552 c 1
 645 1552 724 1524 780 1468 c 0
 836 1412 864 1336 864 1240 c 0
 864 1144 835 1056 776 976 c 0
 717 896 655 832 588 784 c 0
 568 769 546 754 523 738 c 1
 585 638 677 516 799 372 c 1
 835 424 862 480 880 540 c 0
 912 644 933 765 944 904 c 1
 1096 904 l 1
 1085 728 1055 576 1004 448 c 0
 976 377 942 313 901 254 c 1
 972 175 1050 91 1136 0 c 1
 920 0 l 1
 879 47 840 93 803 138 c 1
 799 134 795 131 792 128 c 0
 701 43 589 0 456 0 c 0
 339 0 244 32 172 96 c 0
 100 160 64 256 64 384 c 0
208 384 m 1
 208 293 233 231 284 196 c 0
 335 161 395 144 464 144 c 0
 543 144 623 183 704 260 c 1
 589 405 495 540 420 664 c 1
 399 648 376 632 352 616 c 0
 261 552 213 475 208 384 c 1
344 1216 m 0
 348 1113 385 994 456 857 c 1
 495 886 535 917 576 952 c 0
 672 1032 720 1128 720 1240 c 0
 720 1299 704 1344 672 1376 c 0
 640 1408 597 1424 544 1424 c 0
 480 1424 431 1405 396 1368 c 0
 361 1331 344 1280 344 1216 c 0
EndSplineSet
EndChar

StartChar: quotesingle
Encoding: 39 39 10
Width: 416
Flags: W
HStem: 993 674<104.5 201>
VStem: 86 253<1289 1572.5 1551 1552 1551.5 1572.5 1551 1583> 86 268<1288 1289 1289 1292 1292 1293 1264 1550 1264 1552 1264 1583>
LayerCount: 2
Fore
SplineSet
199 1667 m 2xc0
 199 1667 200 1667 201 1667 c 0
 219 1667 247 1658 263 1648 c 1
 305 1638 339 1594 339 1551 c 1xc0
 339 1551 339 1550 338 1550 c 2
 338 1350 l 1
 347 1336 354 1310 354 1293 c 2
 354 1293 354 1292 354 1292 c 1
 354 1264 l 2
 353 1245 345 1217 335 1201 c 2
 233 1046 l 2
 214 1017 171 993 136 993 c 0
 73 993 21 1044 21 1108 c 0
 21 1127 30 1156 41 1172 c 2
 92 1250 l 1
 89 1260 86 1277 86 1288 c 2xa0
 86 1288 86 1289 86 1289 c 1
 86 1550 l 1
 86 1550 86 1551 86 1552 c 0
 86 1614 136 1666 199 1667 c 2xc0
EndSplineSet
EndChar

StartChar: parenleft
Encoding: 40 40 11
Width: 624
Flags: W
LayerCount: 2
Fore
SplineSet
104 736 m 0
 104 1120 216 1448 440 1720 c 1
 544 1656 l 1
 352 1384 256 1077 256 736 c 0
 256 379 352 69 544 -192 c 1
 440 -256 l 1
 216 11 104 341 104 736 c 0
EndSplineSet
EndChar

StartChar: parenright
Encoding: 41 41 12
Width: 624
Flags: W
LayerCount: 2
Fore
SplineSet
80 -192 m 1
 277 69 376 379 376 736 c 0
 376 1077 277 1384 80 1656 c 1
 184 1720 l 1
 419 1443 536 1115 536 736 c 0
 536 341 419 11 184 -256 c 1
 80 -192 l 1
EndSplineSet
EndChar

StartChar: asterisk
Encoding: 42 42 13
Width: 1024
Flags: W
LayerCount: 2
Fore
SplineSet
80 512 m 1
 392 776 l 1
 80 1048 l 1
 192 1208 l 1
 448 920 l 1
 424 1552 l 1
 600 1552 l 1
 576 920 l 1
 840 1208 l 1
 944 1048 l 1
 640 776 l 1
 952 512 l 1
 840 344 l 1
 576 648 l 1
 600 0 l 1
 424 0 l 1
 448 648 l 1
 192 344 l 1
 80 512 l 1
EndSplineSet
EndChar

StartChar: plus
Encoding: 43 43 14
Width: 1024
Flags: W
LayerCount: 2
Fore
SplineSet
56 680 m 1
 56 816 l 1
 440 816 l 1
 440 1472 l 1
 584 1472 l 1
 584 816 l 1
 960 816 l 1
 960 680 l 1
 584 680 l 1
 584 0 l 1
 440 0 l 1
 440 680 l 1
 56 680 l 1
EndSplineSet
EndChar

StartChar: comma
Encoding: 44 44 15
Width: 416
Flags: W
LayerCount: 2
Fore
SplineSet
88 112 m 1
 88 400 l 1
 336 400 l 1
 336 112 l 2
 336 -149 253 -283 88 -288 c 1
 88 -144 l 1
 168 -144 208 -59 208 112 c 1
 88 112 l 1
EndSplineSet
EndChar

StartChar: hyphen
Encoding: 45 45 16
Width: 1024
Flags: W
LayerCount: 2
Fore
SplineSet
152 544 m 1
 152 656 l 1
 864 656 l 1
 864 544 l 1
 152 544 l 1
EndSplineSet
EndChar

StartChar: period
Encoding: 46 46 17
Width: 416
Flags: W
LayerCount: 2
Fore
SplineSet
104 0 m 1
 104 400 l 1
 320 400 l 1
 320 0 l 1
 104 0 l 1
EndSplineSet
EndChar

StartChar: slash
Encoding: 47 47 18
Width: 1024
Flags: W
LayerCount: 2
Fore
SplineSet
112 -136 m 1
 768 1664 l 1
 912 1616 l 1
 248 -192 l 1
 112 -136 l 1
EndSplineSet
EndChar

StartChar: zero
Encoding: 48 48 19
Width: 1024
Flags: MW
HStem: -11 125 1429 123<495 547 547 565.5>
VStem: 114 131 791 130
LayerCount: 2
Fore
SplineSet
489 1552 m 2
 547 1552 l 2
 609 1552 666 1525 713 1482 c 0
 759 1439 797 1380 828 1309 c 0
 889 1167 922 978 922 772 c 0
 922 548 890 358 824 219 c 0
 759 80 653 -10 519 -11 c 0
 384 -13 278 77 212 216 c 0
 146 355 114 546 114 772 c 0
 114 978 146 1167 207 1309 c 0
 238 1380 276 1439 322 1482 c 0
 369 1525 426 1552 489 1552 c 2
518 1429 m 0
 472 1429 435 1415 402 1386 c 0
 368 1358 339 1315 315 1257 c 0
 268 1141 244 970 244 770 c 0
 244 591 265 420 311 299 c 0
 334 239 364 192 398 161 c 0
 431 130 469 114 517 114 c 0
 566 114 603 130 637 161 c 0
 671 192 701 239 724 300 c 0
 770 420 791 592 791 771 c 0
 791 981 768 1152 721 1264 c 0
 674 1377 613 1429 518 1429 c 0
EndSplineSet
EndChar

StartChar: one
Encoding: 49 49 20
Width: 1024
Flags: W
HStem: -65 260<167 200 199 200 200 379 199 475 630 820 820 821 821 822> 1149 252<177 199 198 199>
VStem: 84 853<18.5 58.5> 379 251<195 1187 1187 1187 1460 1550 1460 1460 195 1552 195 1583>
LayerCount: 2
Fore
SplineSet
492 1667 m 0xd0
 493 1667 493 1667 494 1667 c 0
 516 1667 547 1656 564 1643 c 1
 600 1630 630 1588 630 1550 c 2
 630 195 l 1xd0
 820 195 l 1
 820 195 821 195 821 195 c 2
 869 195 914 156 920 109 c 1
 929 94 937 67 937 50 c 0
 937 -13 885 -65 822 -65 c 0
 821 -65 820 -65 820 -65 c 1
 513 -65 l 2
 508 -66 499 -67 494 -67 c 0
 489 -67 480 -66 475 -65 c 2
 200 -65 l 1
 200 -65 199 -65 199 -65 c 2
 135 -65 84 -13 84 50 c 0xe0
 84 67 91 94 100 109 c 1
 106 156 151 195 199 195 c 2
 199 195 200 195 200 195 c 1
 379 195 l 1
 379 1187 l 1
 324 1163 262 1149 199 1149 c 2
 199 1149 198 1149 198 1149 c 2
 156 1149 112 1183 101 1224 c 1
 91 1239 83 1267 83 1286 c 0
 83 1350 134 1401 198 1401 c 2
 198 1401 199 1401 199 1401 c 2
 240 1401 303 1411 341 1428 c 0
 379 1445 379 1447 379 1460 c 1
 379 1460 379 1460 379 1460 c 1
 379 1550 l 1
 379 1550 379 1551 379 1552 c 0
 379 1614 430 1666 492 1667 c 0xd0
EndSplineSet
EndChar

StartChar: two
Encoding: 50 50 21
Width: 1024
Flags: MW
HStem: -65 255<161 871 365 871 365 871 871 873> 1380 235<480.5 541.5>
VStem: 84 259<1143 1144 1144 1145 1144.5 1145 1120 1278.5> 688 252<1146.5 1191 1191 1193 1075 1232>
LayerCount: 2
Fore
SplineSet
451 1615 m 2
 563 1615 l 2
 656 1615 752 1579 824 1505 c 0
 895 1431 937 1322 940 1193 c 0
 940 1192 940 1191 940 1191 c 2
 940 959 800 789 655 605 c 0
 581 512 490 410 420 309 c 0
 410 294 400 279 391 264 c 0
 380 240 371 216 365 190 c 1
 871 190 l 2
 872 190 872 190 873 190 c 0
 918 190 962 154 971 110 c 1
 980 95 988 68 988 50 c 0
 988 -13 936 -65 873 -65 c 2
 873 -65 872 -65 871 -65 c 2
 193 -65 l 2
 129 -65 78 -13 78 50 c 0
 78 197 150 324 231 440 c 0
 312 557 407 663 475 748 c 0
 552 845 613 926 654 1000 c 1
 675 1054 688 1113 688 1180 c 0
 688 1284 662 1324 636 1346 c 0
 609 1369 567 1380 516 1380 c 0
 445 1380 415 1355 387 1312 c 0
 358 1268 343 1201 343 1145 c 2
 343 1145 343 1144 343 1144 c 2
 343 1096 305 1052 258 1045 c 1
 243 1036 216 1028 199 1028 c 0
 135 1028 84 1080 84 1143 c 0
 84 1144 84 1144 84 1145 c 0
 84 1412 246 1615 451 1615 c 2
EndSplineSet
EndChar

StartChar: three
Encoding: 51 51 22
Width: 1024
Flags: MW
HStem: -85 255<474 515.5 474 550> 1365 250<134 157 155 156 156 157 157 603>
VStem: 699 257<424 549.5>
LayerCount: 2
Fore
SplineSet
157 1615 m 2
 822 1615 l 2
 886 1615 937 1563 937 1500 c 2
 937 1428 l 2
 937 1405 925 1371 910 1354 c 2
 598 985 l 1
 661 968 722 941 776 899 c 0
 888 813 956 666 956 482 c 0
 956 333 921 195 839 88 c 0
 757 -18 625 -85 475 -85 c 0
 357 -85 258 -52 189 -20 c 0
 155 -4 127 12 108 24 c 0
 105 25 105 26 102 27 c 1
 108 26 116 25 129 25 c 1
 119 25 103 29 94 32 c 0
 93 33 91 34 90 35 c 1
 90 34 91 34 91 34 c 1
 52 50 21 97 21 139 c 0
 21 156 28 182 36 196 c 1
 38 250 82 294 136 294 c 0
 137 294 137 294 137 294 c 2
 182 294 182 284 188 281 c 0
 194 277 198 275 202 273 c 0
 209 268 215 264 223 258 c 0
 238 248 259 235 283 222 c 0
 332 197 398 172 474 170 c 0
 557 170 602 196 638 244 c 0
 674 292 699 371 699 477 c 0
 699 622 662 686 613 725 c 0
 597 738 578 749 555 757 c 0
 509 773 453 781 390 781 c 0
 327 781 275 832 275 896 c 2
 275 918 l 2
 275 942 287 975 302 993 c 2
 423 1135 l 1
 603 1365 l 1
 156 1365 l 1
 156 1365 155 1365 155 1365 c 2
 113 1365 70 1397 59 1437 c 1
 49 1453 40 1481 40 1500 c 0
 40 1563 92 1615 155 1615 c 0
 156 1615 156 1615 157 1615 c 2
EndSplineSet
EndChar

StartChar: four
Encoding: 52 52 23
Width: 1024
Flags: MW
HStem: 278 230<105.5 570 308 570 308 570 815 951 951 952>
VStem: 570 245<-1 0 0 278 508 1149 1149 1149>
LayerCount: 2
Fore
SplineSet
596 1615 m 2
 700 1615 l 2
 763 1615 815 1563 815 1500 c 2
 815 508 l 1
 951 508 l 1
 951 508 952 508 952 508 c 2
 1016 508 1067 457 1067 393 c 0
 1067 330 1016 278 952 278 c 2
 952 278 951 278 951 278 c 1
 815 278 l 1
 815 0 l 1
 815 0 815 -1 815 -1 c 2
 815 -65 763 -116 700 -116 c 0
 679 -116 648 -106 631 -93 c 1
 597 -79 570 -38 570 -1 c 2
 570 -1 570 0 570 0 c 1
 570 278 l 1
 137 278 l 2
 74 278 22 330 22 393 c 2
 22 461 l 1
 22 461 l 1
 22 474 27 495 32 507 c 2
 490 1546 l 2
 507 1584 554 1615 596 1615 c 2
570 1149 m 1
 308 508 l 1
 570 508 l 1
 570 1149 l 1
EndSplineSet
EndChar

StartChar: five
Encoding: 53 53 24
Width: 1024
Flags: W
HStem: -85 260<449 488.5 449 536.5> -22 4 884 239<415.5 423.5 423 426> 1350 265<324 880 324 324 880 881>
VStem: 79 230 80 916<1500 1531.5 1491.5 1532> 694 251<498 666.5>
LayerCount: 2
Fore
SplineSet
195 1615 m 2xb4
 880 1615 l 1
 880 1615 881 1615 881 1615 c 2
 945 1615 996 1563 996 1500 c 0xb4
 996 1483 990 1457 981 1443 c 1
 977 1391 933 1350 881 1350 c 2
 881 1350 880 1350 880 1350 c 1
 324 1350 l 1
 310 1175 l 1
 310 1109 l 1
 346 1117 390 1123 441 1123 c 0
 724 1122 945 860 945 554 c 0
 945 397 912 246 833 125 c 0
 755 3 618 -85 455 -85 c 0xba
 346 -85 257 -67 195 -48 c 0
 163 -38 138 -29 122 -22 c 0
 117 -20 115 -20 112 -18 c 1x7a
 115 -19 120 -20 127 -20 c 1
 122 -20 114 -18 109 -17 c 0
 108 -17 106 -16 106 -16 c 1
 106 -16 107 -17 108 -17 c 1
 60 -5 21 45 21 95 c 0
 21 112 28 137 36 152 c 1
 40 204 85 245 136 245 c 0
 137 245 137 245 137 245 c 2
 163 245 167 241 172 239 c 0
 178 238 181 236 184 235 c 0
 191 232 196 230 203 227 c 0
 216 221 234 214 256 207 c 0
 300 192 365 177 449 175 c 0
 528 175 579 210 623 277 c 0
 667 344 694 446 694 550 c 0
 694 783 510 886 426 884 c 0
 425 884 424 884 423 884 c 0
 358 884 297 850 297 850 c 1
 284 842 261 836 245 836 c 0
 228 836 204 843 190 853 c 0
 184 855 176 860 171 864 c 2
 127 895 l 2
 101 914 79 956 79 988 c 1
 79 988 l 1xba
 80 1500 l 2
 80 1564 132 1615 195 1615 c 2xb4
EndSplineSet
EndChar

StartChar: six
Encoding: 54 54 25
Width: 1024
Flags: MW
HStem: -85 250 842 230<469.5 473 473 557>
VStem: 65 248<426 535 426 640.5> 712 249<426 564.5 408.5 568.5>
LayerCount: 2
Fore
SplineSet
562 1667 m 0
 563 1667 563 1667 564 1667 c 0
 581 1667 606 1660 621 1651 c 1
 675 1650 719 1605 719 1551 c 2
 719 1551 719 1550 719 1550 c 2
 719 1522 714 1517 711 1511 c 0
 709 1506 708 1503 707 1501 c 0
 704 1497 703 1495 702 1494 c 0
 700 1490 698 1488 696 1485 c 0
 693 1480 689 1474 683 1467 c 0
 672 1451 657 1430 639 1403 c 0
 602 1348 553 1271 504 1178 c 0
 487 1144 470 1109 453 1072 c 1
 460 1072 466 1072 473 1072 c 2
 557 1072 l 2
 691 1072 810 996 874 887 c 0
 937 777 961 642 961 487 c 0
 961 330 934 193 859 86 c 0
 784 -22 655 -86 512 -85 c 0
 370 -84 242 -20 167 87 c 0
 92 194 65 330 65 487 c 0
 65 794 168 1073 269 1277 c 0
 319 1379 369 1463 407 1521 c 0
 426 1551 442 1574 452 1590 c 0
 453 1590 453 1590 453 1590 c 1
 451 1585 450 1575 449 1558 c 1
 450 1570 454 1588 459 1599 c 1
 459 1599 459 1599 458 1598 c 1
 459 1599 460 1600 460 1601 c 0
 477 1637 523 1666 562 1667 c 0
473 842 m 2
 466 842 381 816 331 696 c 1
 319 632 313 567 313 503 c 0
 313 349 341 261 372 220 c 0
 403 180 439 165 514 165 c 0
 589 165 623 179 653 220 c 0
 684 261 712 349 712 503 c 0
 712 634 686 729 650 782 c 0
 633 809 615 828 594 839 c 0
 583 842 571 842 557 842 c 2
 473 842 l 2
EndSplineSet
EndChar

StartChar: seven
Encoding: 55 55 26
Width: 1024
Flags: W
HStem: 1350 265<117.5 144 143 144 144 656>
VStem: 28 917<1491.5 1500 1430 1531.5> 255 267
LayerCount: 2
Fore
SplineSet
144 1615 m 1xc0
 830 1615 l 2
 893 1615 945 1563 945 1500 c 2
 945 1438 l 2xc0
 945 1422 939 1397 931 1383 c 2
 931 1383 516 599 521 1 c 0
 521 0 521 -1 521 -1 c 2
 521 -65 470 -116 406 -116 c 0
 389 -116 364 -110 349 -101 c 1
 297 -98 255 -53 255 -1 c 2xa0
 255 -1 255 0 255 0 c 2
 255 239 331 514 422 764 c 1
 499 1008 592 1219 656 1350 c 1
 144 1350 l 1
 144 1350 143 1350 143 1350 c 2
 92 1350 47 1391 43 1442 c 1
 35 1457 28 1483 28 1500 c 0
 28 1563 79 1615 143 1615 c 2
 143 1615 144 1615 144 1615 c 1xc0
EndSplineSet
EndChar

StartChar: eight
Encoding: 56 56 27
Width: 1024
Flags: W
HStem: -85 250<461.5 568.5> 1368 247<488 540>
VStem: 61 248 93 244<1149 1151 1151 1194 1118 1228 1151 1151> 692 244<1116 1151 1151 1153 1090.5 1194> 720 248<372 372 372 373 373 411.5>
LayerCount: 2
Fore
SplineSet
465 1615 m 2xd0
 564 1615 l 2
 650 1615 729 1576 803 1501 c 0
 876 1425 933 1306 936 1153 c 2
 936 1153 936 1152 936 1151 c 1
 936 1151 l 1xd8
 936 1030 898 921 827 842 c 0
 807 819 784 798 760 780 c 1
 790 758 817 734 842 707 c 0
 919 622 968 508 968 379 c 0
 968 225 915 99 825 20 c 0
 736 -58 622 -85 515 -85 c 0
 408 -85 294 -58 204 20 c 0
 114 99 61 225 61 379 c 0xe4
 61 508 110 622 187 706 c 0
 212 734 239 758 269 780 c 1
 245 798 223 819 203 842 c 0
 133 921 96 1029 93 1149 c 2
 93 1149 93 1150 93 1151 c 1
 93 1151 l 1
 93 1305 151 1425 225 1501 c 0
 300 1577 379 1615 465 1615 c 2xd0
514 1368 m 0
 462 1368 422 1351 392 1319 c 0
 361 1286 337 1235 337 1153 c 0
 337 1083 349 1036 370 1000 c 0
 372 998 374 996 376 993 c 0
 403 962 448 932 514 904 c 1
 581 932 627 962 655 994 c 0
 655 995 656 995 656 995 c 1
 679 1032 692 1079 692 1153 c 0
 692 1235 668 1286 637 1319 c 0
 607 1351 566 1368 514 1368 c 0
514 656 m 1
 475 639 440 619 410 598 c 1
 345 533 309 450 310 373 c 2
 310 373 310 372 310 372 c 1
 310 372 l 1
 310 255 384 165 515 165 c 0
 646 165 720 254 720 372 c 1
 720 372 l 1xe4
 720 372 720 373 720 373 c 2
 720 450 684 533 618 598 c 1
 589 619 554 639 514 656 c 1
EndSplineSet
EndChar

StartChar: nine
Encoding: 57 57 28
Width: 1024
Flags: MW
HStem: 483 236<477.5 498> 1390 250<475 512 512 541 541 546 546 550>
VStem: 65 249<989.5 1129 986.5 1146.5> 714 248
LayerCount: 2
Fore
SplineSet
546 1640 m 0
 547 1640 549 1640 557 1640 c 1
 557 1640 l 1
 685 1637 801 1567 868 1462 c 0
 934 1357 961 1223 961 1068 c 0
 961 761 858 482 758 278 c 0
 707 176 657 92 619 34 c 0
 600 4 585 -19 574 -35 c 1
 574 -35 574 -35 573 -35 c 1
 575 -30 577 -20 577 -3 c 1
 577 -15 572 -33 567 -44 c 1
 567 -44 568 -44 568 -43 c 1
 567 -44 567 -45 566 -46 c 0
 549 -82 503 -111 463 -111 c 0
 446 -111 420 -105 405 -96 c 1
 351 -95 307 -50 307 4 c 2
 307 4 307 5 307 5 c 2
 307 33 313 38 315 44 c 0
 317 49 319 52 320 54 c 0
 322 58 323 60 324 61 c 0
 327 65 328 67 330 70 c 0
 334 75 338 81 343 88 c 0
 354 104 369 125 388 152 c 0
 424 207 473 284 522 377 c 0
 541 413 560 452 577 492 c 1
 546 486 514 483 482 483 c 0
 349 483 231 557 162 665 c 0
 94 773 65 911 65 1068 c 0
 65 1225 92 1359 159 1464 c 0
 225 1570 342 1640 470 1640 c 0
 472 1640 492 1640 512 1640 c 0
 523 1640 533 1640 541 1640 c 0
 545 1640 545 1640 546 1640 c 0
512 1390 m 0
 438 1390 404 1376 373 1335 c 0
 342 1294 314 1206 314 1052 c 0
 314 921 341 833 374 785 c 0
 408 737 443 719 512 719 c 0
 528 719 543 720 556 722 c 0
 592 732 623 751 650 781 c 0
 666 798 681 820 693 848 c 1
 706 916 714 984 714 1052 c 0
 714 1206 685 1294 654 1335 c 0
 623 1375 588 1390 512 1390 c 0
EndSplineSet
EndChar

StartChar: colon
Encoding: 58 58 29
Width: 416
Flags: W
LayerCount: 2
Fore
SplineSet
96 176 m 1
 96 520 l 1
 320 520 l 1
 320 176 l 1
 96 176 l 1
96 904 m 1
 96 1240 l 1
 320 1240 l 1
 320 904 l 1
 96 904 l 1
EndSplineSet
EndChar

StartChar: semicolon
Encoding: 59 59 30
Width: 416
Flags: W
LayerCount: 2
Fore
SplineSet
96 88 m 1
 96 416 l 1
 320 416 l 1
 320 88 l 2
 320 -157 245 -283 96 -288 c 1
 96 -144 l 1
 171 -144 208 -67 208 88 c 1
 96 88 l 1
96 904 m 1
 96 1240 l 1
 320 1240 l 1
 320 904 l 1
 96 904 l 1
EndSplineSet
EndChar

StartChar: less
Encoding: 60 60 31
Width: 1024
Flags: W
LayerCount: 2
Fore
SplineSet
96 688 m 1
 96 808 l 1
 824 1320 l 1
 928 1200 l 1
 272 752 l 1
 928 288 l 1
 824 160 l 1
 96 688 l 1
EndSplineSet
EndChar

StartChar: equal
Encoding: 61 61 32
Width: 1024
Flags: W
LayerCount: 2
Fore
SplineSet
72 384 m 1
 72 496 l 1
 952 496 l 1
 952 384 l 1
 72 384 l 1
72 768 m 1
 72 880 l 1
 952 880 l 1
 952 768 l 1
 72 768 l 1
EndSplineSet
EndChar

StartChar: greater
Encoding: 62 62 33
Width: 1024
Flags: W
LayerCount: 2
Fore
SplineSet
88 280 m 1
 744 728 l 1
 88 1192 l 1
 192 1320 l 1
 920 792 l 1
 920 672 l 1
 192 160 l 1
 88 280 l 1
EndSplineSet
EndChar

StartChar: question
Encoding: 63 63 34
Width: 928
Flags: W
LayerCount: 2
Fore
SplineSet
104 1304 m 1
 104 1464 l 1
 173 1501 232 1525 280 1536 c 0
 328 1547 389 1552 464 1552 c 0
 704 1552 824 1424 824 1168 c 0
 824 1003 763 869 640 768 c 1
 555 677 515 600 520 536 c 1
 520 488 l 1
 376 488 l 1
 376 536 l 1
 371 643 416 747 512 848 c 1
 613 944 664 1051 664 1168 c 0
 664 1328 597 1408 464 1408 c 0
 400 1408 344 1403 296 1392 c 0
 248 1381 184 1352 104 1304 c 1
360 0 m 1
 360 264 l 1
 544 264 l 1
 544 0 l 1
 360 0 l 1
EndSplineSet
EndChar

StartChar: at
Encoding: 64 64 35
Width: 1368
Flags: W
LayerCount: 2
Fore
SplineSet
48 744 m 0
 48 989 105 1185 220 1332 c 0
 335 1479 499 1552 712 1552 c 0
 883 1552 1025 1493 1140 1376 c 0
 1255 1259 1312 1088 1312 864 c 0
 1312 587 1251 395 1128 288 c 1
 808 288 l 1
 808 360 l 1
 755 317 699 296 640 296 c 0
 544 296 469 337 416 420 c 0
 363 503 336 621 336 776 c 0
 336 925 363 1047 416 1140 c 0
 469 1233 544 1280 640 1280 c 0
 704 1280 760 1256 808 1208 c 1
 808 1280 l 1
 952 1280 l 1
 952 416 l 1
 1072 416 l 1
 1136 533 1168 683 1168 864 c 0
 1168 1051 1125 1189 1040 1280 c 0
 955 1371 845 1416 712 1416 c 0
 541 1416 412 1355 324 1232 c 0
 236 1109 192 947 192 744 c 0
 192 531 232 377 312 284 c 0
 392 191 523 141 704 136 c 1
 864 136 1019 155 1168 192 c 1
 1168 48 l 1
 1029 16 875 0 704 0 c 0
 491 0 328 60 216 180 c 0
 104 300 48 488 48 744 c 0
488 776 m 1
 488 659 500 572 524 516 c 0
 548 460 587 432 640 432 c 0
 699 432 752 459 800 512 c 1
 800 1064 l 1
 752 1112 699 1136 640 1136 c 0
 592 1136 556 1107 532 1048 c 0
 508 989 493 899 488 776 c 1
EndSplineSet
EndChar

StartChar: A
Encoding: 65 65 36
Width: 1296
Flags: W
HStem: -20 20G<16 16 289 289 1008 1008 1281 1281> 478 230<497 800 497 868 429 800>
VStem: 16 272<-17 0 -17 16> 289 0<0 0 4.29497e+09 4.29497e+09 4.29497e+09 4.29497e+09> 289 2 1006 2<4.29497e+09 4.29497e+09> 1008 0<0 0 4.29497e+09 4.29497e+09 4.29497e+09 4.29497e+09 4.29497e+09 4.29497e+09> 1008 273<-12 -1 -10 -9 -10 -1 -1 0 -1 0>
LayerCount: 2
Fore
SplineSet
596 1615 m 2xf0
 701 1615 l 2
 747 1615 797 1579 811 1534 c 2
 811 1534 927 1164 1043 791 c 0
 1058 743 1073 695 1087 649 c 0
 1093 637 1100 618 1101 605 c 0
 1138 485 1174 370 1203 276 c 0
 1225 205 1243 145 1256 103 c 0
 1262 81 1267 64 1271 52 c 0
 1273 45 1274 40 1275 35 c 0
 1276 33 1277 31 1277 27 c 0
 1278 24 1281 32 1281 0 c 2
 1281 0 1281 -1 1281 -1 c 2
 1281 -65 1229 -116 1166 -116 c 0
 1148 -116 1122 -109 1107 -100 c 1
 1060 -100 1016 -62 1009 -15 c 0
 1009 -14 1009 -14 1009 -14 c 1
 1009 -14 1008 -13 1008 -12 c 0
 1008 -9 1008 -4 1008 -1 c 0xf1
 1008 0 1008 0 1008 0 c 2
 1008 -5 1008 -8 1008 -10 c 1xe2
 1007 -8 1007 -6 1006 -2 c 0
 1003 10 998 27 992 48 c 0
 981 91 964 151 943 222 c 0
 921 297 896 385 868 478 c 1
 429 478 l 1
 402 384 375 294 353 219 c 0
 333 148 316 88 304 46 c 0
 298 25 293 8 291 -4 c 0xec
 290 -7 289 -9 289 -11 c 1
 289 -8 289 -6 289 0 c 2
 289 0 289 0 289 -1 c 0
 289 -4 288 -10 288 -14 c 2
 288 -14 288 -15 288 -16 c 2
 288 -16 288 -17 288 -17 c 1
 280 -64 236 -101 189 -101 c 0
 188 -101 188 -101 187 -101 c 0
 173 -109 147 -116 131 -116 c 0
 67 -116 16 -64 16 -1 c 2
 16 -1 16 0 16 0 c 2
 16 32 18 24 19 27 c 0
 20 31 20 33 21 35 c 0
 22 40 24 45 26 52 c 0
 29 64 34 81 41 103 c 0
 54 145 72 205 94 276 c 0
 123 370 159 486 196 607 c 0
 198 619 203 637 209 647 c 0
 224 695 238 743 253 791 c 0
 370 1164 486 1534 486 1534 c 2
 500 1579 549 1615 596 1615 c 2xf0
648 1219 m 1
 608 1083 557 910 504 732 c 0
 502 724 499 716 497 708 c 1
 800 708 l 1
 798 717 795 726 792 735 c 0
 740 912 689 1084 648 1219 c 1
EndSplineSet
EndChar

StartChar: B
Encoding: 66 66 37
Width: 1304
Flags: W
HStem: -65 255<180.5 727 352 727 727 769> 705 230<352 623 352 623> 1365 253<352 352 352 719>
VStem: 97 255<190 705 190 797 190 797 190 843 935 1365> 942 267 1004 269<458 460 460 516 460 460>
LayerCount: 2
Fore
SplineSet
212 1618 m 2xf4
 721 1618 l 2
 871 1618 998 1574 1085 1490 c 0
 1172 1405 1210 1287 1210 1167 c 0xf8
 1210 1029 1151 915 1067 839 c 1
 1193 762 1273 614 1273 432 c 0
 1273 310 1247 185 1162 87 c 0
 1076 -11 939 -65 769 -65 c 2
 212 -65 l 2
 149 -65 97 -13 97 50 c 2
 97 797 l 2
 96 803 95 812 95 818 c 0
 95 819 95 820 95 820 c 2
 95 823 95 827 95 830 c 0
 95 833 96 838 97 841 c 0
 97 842 97 843 97 843 c 1
 97 1503 l 2
 97 1566 149 1618 212 1618 c 2xf4
352 1365 m 1
 352 935 l 1
 623 935 l 2
 688 935 753 943 808 958 c 0
 824 966 839 975 852 985 c 0
 909 1027 944 1080 942 1179 c 2
 942 1179 942 1180 942 1181 c 1
 942 1181 l 1
 942 1221 927 1268 893 1302 c 0
 860 1337 810 1365 719 1365 c 2
 352 1365 l 1
352 705 m 1
 352 190 l 1
 727 190 l 1
 727 190 l 1
 727 190 l 1
 849 190 911 220 948 259 c 0
 985 299 1005 362 1004 458 c 0xf4
 1004 459 1004 459 1004 460 c 1
 1004 460 l 1
 1004 572 970 621 910 660 c 0
 907 662 904 663 901 665 c 0
 834 691 738 705 623 705 c 2
 352 705 l 1
EndSplineSet
EndChar

StartChar: C
Encoding: 67 67 38
Width: 1360
Flags: MW
HStem: -81 261<642.5 763.5 642.5 804> 1363 253
VStem: 57 256<688.5 870 688.5 878> 1049 275<575 576 576 577 486 603.5>
LayerCount: 2
Fore
SplineSet
661 1617 m 2
 769 1617 l 2
 1086 1617 1320 1343 1320 1016 c 2
 1320 1016 1320 1015 1320 1015 c 2
 1320 951 1268 900 1205 900 c 0
 1188 900 1163 906 1148 915 c 0
 1147 915 1146 915 1145 915 c 0
 1090 915 1045 960 1045 1015 c 2
 1045 1015 1045 1016 1045 1016 c 2
 1045 1135 1013 1218 960 1274 c 0
 908 1329 828 1363 703 1363 c 0
 568 1363 484 1315 418 1219 c 0
 353 1123 313 969 313 771 c 0
 313 606 353 451 422 344 c 0
 491 238 578 180 707 180 c 0
 820 180 900 211 955 271 c 0
 1011 330 1049 426 1049 575 c 2
 1049 575 1049 576 1049 576 c 2
 1049 631 1094 676 1149 676 c 0
 1150 676 1151 676 1152 676 c 0
 1166 685 1192 692 1209 692 c 0
 1272 692 1324 640 1324 577 c 0
 1324 576 1324 575 1324 575 c 2
 1324 397 1277 233 1171 111 c 0
 1065 -12 901 -81 707 -81 c 0
 500 -81 323 16 214 173 c 0
 105 329 57 536 57 772 c 0
 57 984 89 1184 183 1344 c 0
 276 1505 446 1617 661 1617 c 2
EndSplineSet
EndChar

StartChar: D
Encoding: 68 68 39
Width: 1328
Flags: MW
HStem: -65 260<180.5 507 352 464> 1365 253<352 352 352 469 469 499>
VStem: 97 255<195 1365 195 1503 195 1534.5> 997 273
LayerCount: 2
Fore
SplineSet
212 1618 m 2
 469 1618 l 2
 634 1618 832 1591 996 1464 c 0
 1160 1338 1269 1114 1269 784 c 2
 1269 783 l 1
 1269 783 l 1
 1269 462 1165 237 1004 105 c 0
 844 -28 643 -65 464 -65 c 2
 212 -65 l 2
 149 -65 97 -13 97 50 c 2
 97 1503 l 2
 97 1566 149 1618 212 1618 c 2
352 1365 m 1
 352 195 l 1
 507 195 l 2
 679 195 791 252 871 353 c 0
 950 453 997 608 997 805 c 1
 997 805 l 1
 997 805 997 806 997 806 c 2
 999 975 961 1116 885 1210 c 0
 809 1305 694 1365 499 1365 c 2
 352 1365 l 1
EndSplineSet
EndChar

StartChar: E
Encoding: 69 69 40
Width: 1160
Flags: MW
HStem: -65 255<180.5 1000 352 1000 352 1000 1000 1001> 709 230<352 567 352 383.5 567 920 920 921> 1365 253<352 1000 352 352 1000 1001>
VStem: 97 255<190 709 190 806 190 806 939 1365>
LayerCount: 2
Fore
SplineSet
212 1618 m 2
 1000 1618 l 1
 1000 1618 1001 1618 1002 1618 c 0
 1065 1618 1117 1566 1117 1503 c 0
 1117 1484 1108 1456 1098 1441 c 1
 1088 1399 1044 1365 1001 1365 c 2
 1001 1365 1000 1365 1000 1365 c 1
 352 1365 l 1
 352 939 l 1
 415 939 490 939 567 939 c 0
 743 939 920 939 920 939 c 1
 920 939 921 939 921 939 c 2
 985 939 1036 888 1036 824 c 0
 1036 761 985 709 921 709 c 2
 921 709 920 709 920 709 c 1
 920 709 744 709 567 709 c 0
 490 709 415 709 352 709 c 1
 352 190 l 1
 1000 190 l 1
 1000 190 1001 190 1001 190 c 2
 1046 190 1090 154 1099 111 c 1
 1109 95 1116 68 1116 50 c 0
 1116 -13 1065 -65 1001 -65 c 2
 1001 -65 1000 -65 1000 -65 c 1
 212 -65 l 2
 149 -65 97 -13 97 50 c 2
 97 806 l 2
 96 811 96 820 96 825 c 0
 96 830 96 838 97 843 c 2
 97 1503 l 2
 97 1566 149 1618 212 1618 c 2
EndSplineSet
EndChar

StartChar: F
Encoding: 70 70 41
Width: 1128
Flags: MW
HStem: 709 230<352 889 352 889 889 891> 1365 253<352 1000 352 352 1000 1001>
VStem: 97 255<-1 0 0 709 939 1365>
LayerCount: 2
Fore
SplineSet
212 1618 m 2
 1000 1618 l 1
 1000 1618 1001 1618 1002 1618 c 0
 1065 1618 1117 1566 1117 1503 c 0
 1117 1484 1108 1456 1098 1441 c 1
 1088 1399 1044 1365 1001 1365 c 2
 1001 1365 1000 1365 1000 1365 c 1
 352 1365 l 1
 352 939 l 1
 889 939 l 2
 890 939 890 939 891 939 c 0
 954 939 1006 888 1006 824 c 0
 1006 761 954 709 891 709 c 0
 890 709 890 709 889 709 c 2
 352 709 l 1
 352 0 l 1
 352 0 352 -1 352 -1 c 2
 352 -46 317 -90 273 -99 c 1
 257 -109 230 -116 212 -116 c 0
 149 -116 97 -65 97 -1 c 2
 97 -1 97 0 97 0 c 1
 97 806 l 2
 96 811 96 819 96 825 c 0
 96 830 96 838 97 843 c 2
 97 1503 l 2
 97 1566 149 1618 212 1618 c 2
EndSplineSet
EndChar

StartChar: G
Encoding: 71 71 42
Width: 1392
Flags: W
HStem: -81 261<642.5 777.5 642.5 779> 610 230<783 783.5 783 785 785 1043> 1381 236<661 769 769 825>
VStem: 57 256<688.5 870 688.5 878> 1043 255<322 610 610 610> 1068 230<-2 -1.5 -1.5 0 0 11 11 11>
LayerCount: 2
Fore
SplineSet
661 1617 m 2xf4
 769 1617 l 2
 1077 1617 1303 1388 1303 1130 c 0
 1303 1129 1303 1129 1303 1128 c 0
 1303 1065 1251 1013 1188 1013 c 0
 1172 1013 1147 1020 1132 1027 c 1
 1132 1027 1131 1027 1131 1027 c 2
 1076 1027 1031 1072 1031 1127 c 0
 1031 1128 1031 1129 1031 1129 c 2
 1031 1225 947 1381 703 1381 c 0
 569 1381 486 1331 419 1229 c 0
 353 1128 313 969 313 771 c 0
 313 606 353 451 422 344 c 0
 491 238 578 180 707 180 c 0
 848 180 959 232 1014 270 c 1
 1026 286 1035 303 1043 322 c 1
 1043 610 l 1
 785 610 l 1
 785 610 784 610 783 610 c 0
 720 610 668 662 668 725 c 0
 668 788 720 840 783 840 c 0
 784 840 785 840 785 840 c 1
 1183 840 l 2
 1247 840 1298 788 1298 725 c 2
 1298 0 l 1xf8
 1298 0 1298 -1 1298 -2 c 0
 1298 -65 1247 -117 1183 -117 c 0
 1120 -117 1068 -65 1068 -2 c 0
 1068 -1 1068 0 1068 0 c 1
 1068 11 l 1
 973 -49 851 -81 707 -81 c 0
 500 -81 323 16 214 173 c 0
 105 329 57 536 57 772 c 0
 57 984 89 1184 183 1344 c 0
 276 1505 446 1617 661 1617 c 2xf4
EndSplineSet
EndChar

StartChar: H
Encoding: 72 72 43
Width: 1312
Flags: MW
HStem: 726 230<352 939 352 939>
VStem: 97 255<-1 0 0 726 956 1550 1550 1551> 939 255<-1 0 0 726 726 726 956 1550 1550 1551>
LayerCount: 2
Fore
SplineSet
210 1667 m 0
 211 1667 212 1667 212 1667 c 2
 230 1667 257 1659 273 1649 c 1
 317 1640 352 1596 352 1551 c 2
 352 1551 352 1550 352 1550 c 1
 352 956 l 1
 939 956 l 1
 939 1550 l 1
 939 1550 939 1551 939 1552 c 0
 939 1614 990 1666 1052 1667 c 0
 1053 1667 1054 1667 1054 1667 c 2
 1072 1667 1099 1659 1115 1649 c 1
 1159 1640 1194 1596 1194 1551 c 2
 1194 1551 1194 1550 1194 1550 c 1
 1194 899 l 1
 1203 884 1209 858 1209 842 c 0
 1209 825 1203 799 1194 784 c 1
 1194 0 l 1
 1194 0 1194 -1 1194 -1 c 2
 1194 -46 1159 -90 1115 -99 c 1
 1099 -109 1072 -116 1054 -116 c 0
 991 -116 939 -65 939 -1 c 2
 939 -1 939 0 939 0 c 1
 939 726 l 1
 352 726 l 1
 352 0 l 1
 352 0 352 -1 352 -1 c 2
 352 -46 317 -90 273 -99 c 1
 257 -109 230 -116 212 -116 c 0
 149 -116 97 -65 97 -1 c 2
 97 -1 97 0 97 0 c 1
 97 822 l 2
 96 827 95 836 95 842 c 0
 95 847 96 856 97 861 c 2
 97 1550 l 1
 97 1550 97 1551 97 1552 c 0
 97 1614 148 1666 210 1667 c 0
EndSplineSet
EndChar

StartChar: I
Encoding: 73 73 44
Width: 504
Flags: MW
HStem: -65 260<8 41 40 41 41 113 40 209 364 455 40 247 455 456> 1365 250<19.5 41 40 41 41 113 364 455 364 364 455 456>
VStem: 113 251<195 1365 195 1365>
LayerCount: 2
Fore
SplineSet
226 1617 m 0
 227 1617 227 1617 228 1617 c 0
 233 1617 242 1616 247 1615 c 2
 455 1615 l 1
 455 1615 456 1615 456 1615 c 2
 520 1615 571 1563 571 1500 c 0
 571 1481 563 1452 552 1436 c 1
 540 1397 497 1365 456 1365 c 2
 456 1365 455 1365 455 1365 c 1
 364 1365 l 1
 364 195 l 1
 455 195 l 1
 455 195 456 195 456 195 c 2
 504 195 549 156 555 109 c 1
 564 94 571 67 571 50 c 0
 571 -13 520 -65 456 -65 c 2
 456 -65 455 -65 455 -65 c 1
 247 -65 l 2
 242 -66 233 -67 228 -67 c 0
 223 -67 214 -66 209 -65 c 2
 41 -65 l 1
 41 -65 40 -65 40 -65 c 2
 -24 -65 -75 -13 -75 50 c 0
 -75 67 -68 94 -59 109 c 1
 -52 156 -8 195 40 195 c 2
 40 195 41 195 41 195 c 1
 113 195 l 1
 113 1365 l 1
 41 1365 l 1
 41 1365 40 1365 40 1365 c 2
 -1 1365 -44 1397 -56 1436 c 1
 -66 1452 -75 1481 -75 1500 c 0
 -75 1563 -24 1615 40 1615 c 2
 40 1615 41 1615 41 1615 c 1
 210 1615 l 2
 214 1616 222 1617 226 1617 c 0
EndSplineSet
EndChar

StartChar: J
Encoding: 74 74 45
Width: 1112
Flags: W
HStem: -85 260 -18 4
VStem: 757 251<546 1550 546 1550 1550 1551 1551 1552 546 1572>
LayerCount: 2
Fore
SplineSet
891 1667 m 0xa0
 892 1667 892 1667 893 1667 c 0
 956 1667 1008 1615 1008 1552 c 0
 1008 1551 1008 1550 1008 1550 c 1
 1008 546 l 1
 1017 297 930 124 806 30 c 0
 682 -64 538 -81 441 -85 c 0
 440 -85 438 -85 436 -85 c 1
 436 -85 l 1xa0
 337 -85 249 -64 185 -44 c 0
 152 -35 126 -25 107 -18 c 0
 102 -16 100 -15 96 -13 c 1x60
 99 -14 104 -14 109 -14 c 1
 103 -14 95 -12 90 -11 c 0
 89 -11 88 -10 87 -10 c 2
 87 -10 86 -10 86 -10 c 1
 86 -10 86 -10 86 -10 c 1
 85 -9 85 -9 86 -10 c 1
 86 -10 86 -10 86 -10 c 1
 40 2 2 52 2 101 c 0
 2 118 9 143 17 158 c 1
 17 213 62 258 117 258 c 2
 117 258 118 258 118 258 c 2
 158 258 149 253 152 252 c 0
 155 251 157 250 159 249 c 0
 162 248 164 247 167 246 c 0
 172 244 180 240 188 237 c 0
 206 229 230 220 259 210 c 0
 315 191 388 174 445 175 c 0
 536 177 614 197 665 241 c 0
 716 285 757 360 757 519 c 2
 757 1550 l 1
 757 1550 757 1551 757 1551 c 2
 757 1593 789 1636 830 1648 c 1
 845 1658 873 1666 891 1667 c 0xa0
EndSplineSet
EndChar

StartChar: K
Encoding: 75 75 46
Width: 1224
Flags: MW
VStem: 100 253<-22.5 0 -22.5 682 1551 1552 1551.5 1572.5>
LayerCount: 2
Fore
SplineSet
213 1667 m 2
 213 1667 214 1667 215 1667 c 0
 233 1667 261 1658 277 1648 c 1
 319 1638 353 1594 353 1551 c 1
 353 1551 353 1550 352 1550 c 2
 352 1010 l 1
 362 1019 370 1029 380 1038 c 0
 385 1046 395 1056 402 1062 c 0
 452 1113 504 1167 557 1223 c 0
 651 1321 746 1419 816 1494 c 0
 851 1531 881 1561 901 1583 c 0
 911 1593 918 1601 923 1607 c 0
 938 1629 971 1648 997 1651 c 1
 1011 1659 1036 1666 1053 1667 c 2
 1053 1667 1054 1667 1054 1667 c 2
 1118 1667 1169 1615 1169 1552 c 0
 1169 1551 1169 1550 1169 1550 c 2
 1169 1472 1154 1491 1150 1487 c 0
 1147 1482 1146 1480 1145 1479 c 0
 1142 1476 1141 1475 1140 1474 c 0
 1139 1472 1138 1470 1137 1469 c 0
 1134 1467 1132 1464 1128 1461 c 0
 1122 1454 1113 1444 1101 1432 c 0
 1078 1409 1046 1375 1006 1335 c 0
 928 1254 824 1147 719 1040 c 0
 691 1012 664 984 637 956 c 1
 683 877 768 730 874 549 c 0
 944 427 1014 306 1067 214 c 0
 1093 168 1115 129 1131 101 c 0
 1139 87 1145 76 1150 67 c 0
 1152 63 1154 59 1156 55 c 0
 1157 53 1158 51 1160 47 c 0
 1161 45 1162 43 1163 38 c 0
 1165 33 1170 32 1170 0 c 2
 1170 0 1170 -1 1170 -1 c 2
 1170 -65 1118 -116 1055 -116 c 0
 1038 -116 1012 -109 997 -101 c 1
 959 -97 920 -65 910 -28 c 1
 910 -28 910 -28 910 -28 c 1
 907 -22 901 -11 894 3 c 0
 880 30 859 69 834 115 c 0
 783 208 715 329 647 450 c 0
 580 570 513 689 462 778 c 1
 452 767 440 756 430 746 c 0
 400 715 374 688 352 667 c 1
 352 0 l 2
 353 0 353 -1 353 -1 c 1
 353 -44 319 -88 277 -98 c 1
 261 -108 233 -116 215 -116 c 0
 151 -116 100 -65 100 -1 c 2
 100 -1 100 0 100 0 c 1
 100 682 l 2
 99 685 99 690 99 693 c 0
 99 696 99 701 100 704 c 2
 100 1550 l 1
 100 1550 100 1551 100 1552 c 0
 100 1614 150 1666 213 1667 c 2
915 1593 m 1
 912 1589 908 1582 907 1562 c 1
 907 1562 907 1562 907 1562 c 1
 908 1571 912 1585 915 1593 c 1
907 -10 m 1
 907 -19 908 -23 909 -26 c 1
 908 -22 907 -15 907 -10 c 1
EndSplineSet
EndChar

StartChar: L
Encoding: 76 76 47
Width: 1104
Flags: W
HStem: -65 260<180.5 945 352 945 352 945 945 946 946 947>
VStem: 97 255<195 1550 195 1550 1550 1551 195 1552 195 1583> 97 964
LayerCount: 2
Fore
SplineSet
210 1667 m 0xc0
 211 1667 212 1667 212 1667 c 2
 230 1667 257 1659 273 1649 c 1
 317 1640 352 1596 352 1551 c 2xc0
 352 1551 352 1550 352 1550 c 1
 352 195 l 1
 945 195 l 1
 945 195 946 195 946 195 c 2
 994 195 1039 156 1045 109 c 1
 1054 94 1062 67 1062 50 c 0
 1062 -13 1010 -65 947 -65 c 0
 946 -65 945 -65 945 -65 c 1
 212 -65 l 2
 149 -65 97 -13 97 50 c 2
 97 1550 l 1xa0
 97 1550 97 1551 97 1552 c 0
 97 1614 148 1666 210 1667 c 0xc0
EndSplineSet
EndChar

StartChar: M
Encoding: 77 77 48
Width: 1520
Flags: MW
VStem: 97 255<-1 0 0 1114> 1137 255<-1 0 0 1114 1114 1114>
LayerCount: 2
Fore
SplineSet
212 1615 m 2
 341 1615 l 2
 385 1615 433 1582 449 1541 c 2
 745 762 l 1
 1040 1541 l 2
 1055 1582 1104 1615 1147 1615 c 2
 1277 1615 l 2
 1340 1615 1392 1563 1392 1500 c 2
 1392 0 l 1
 1392 0 1392 -1 1392 -1 c 2
 1392 -65 1340 -116 1277 -116 c 0
 1259 -116 1231 -109 1216 -99 c 1
 1172 -90 1137 -46 1137 -1 c 2
 1137 -1 1137 0 1137 0 c 1
 1137 1114 l 1
 999 782 l 1
 875 457 l 2
 860 416 812 383 768 383 c 2
 722 382 l 1
 722 382 l 1
 679 382 630 416 615 457 c 2
 502 753 l 1
 352 1114 l 1
 352 0 l 1
 352 0 352 -1 352 -1 c 2
 352 -46 316 -90 272 -99 c 1
 257 -109 230 -116 212 -116 c 0
 149 -116 97 -65 97 -1 c 2
 97 -1 97 0 97 0 c 1
 97 1500 l 2
 97 1563 149 1615 212 1615 c 2
EndSplineSet
EndChar

StartChar: N
Encoding: 78 78 49
Width: 1312
Flags: MW
VStem: 97 255<-1 0 0 1164> 954 256<365 1550 1550 1551 1551 1552>
LayerCount: 2
Fore
SplineSet
1093 1667 m 0
 1094 1667 1095 1667 1095 1667 c 2
 1158 1667 1210 1615 1210 1552 c 0
 1210 1551 1210 1550 1210 1550 c 1
 1210 50 l 2
 1210 -13 1158 -65 1095 -65 c 2
 951 -65 l 2
 908 -65 861 -33 845 6 c 2
 414 1035 l 1
 352 1164 l 1
 352 0 l 1
 352 0 352 -1 352 -1 c 2
 352 -46 316 -90 272 -99 c 1
 257 -109 230 -116 212 -116 c 0
 149 -116 97 -65 97 -1 c 2
 97 -1 97 0 97 0 c 1
 97 1500 l 2
 97 1563 149 1615 212 1615 c 2
 344 1615 l 2
 386 1615 433 1583 450 1544 c 2
 866 549 l 1
 954 365 l 1
 954 1550 l 1
 954 1550 954 1551 954 1551 c 2
 954 1597 990 1641 1035 1650 c 1
 1050 1659 1076 1666 1093 1667 c 0
EndSplineSet
EndChar

StartChar: O
Encoding: 79 79 50
Width: 1448
Flags: MW
HStem: -81 253<710 720 710 711.5> 1355 262<677 764 764 792>
VStem: 65 256<772 772 772 847.5 666 881 772 772 772 772> 1119 257<671.5 848>
LayerCount: 2
Fore
SplineSet
677 1617 m 2
 764 1617 l 2
 957 1617 1120 1506 1222 1349 c 0
 1324 1193 1376 990 1376 772 c 0
 1376 535 1325 328 1214 172 c 0
 1104 16 927 -81 720 -81 c 0
 717 -81 713 -81 710 -81 c 0
 506 -78 332 20 224 176 c 0
 115 331 65 537 65 772 c 1
 65 772 l 1
 65 772 l 1
 65 772 l 1
 65 990 116 1193 218 1349 c 0
 320 1506 483 1617 677 1617 c 2
721 1355 m 0
 579 1355 492 1296 425 1191 c 0
 358 1086 321 931 321 764 c 0
 321 568 363 414 430 318 c 0
 497 221 584 172 720 172 c 0
 732 172 743 172 755 173 c 0
 876 182 956 234 1018 331 c 0
 1081 429 1119 578 1119 765 c 0
 1119 931 1082 1087 1015 1192 c 0
 949 1296 863 1355 721 1355 c 0
EndSplineSet
EndChar

StartChar: P
Encoding: 80 80 51
Width: 1264
Flags: MW
HStem: 705 235<352 623 352 635> 1365 253<352 352 352 719>
VStem: 97 255<-1 0 0 705 940 1365> 942 267
LayerCount: 2
Fore
SplineSet
212 1618 m 2
 721 1618 l 2
 871 1618 998 1574 1085 1490 c 0
 1172 1405 1210 1287 1210 1167 c 0
 1210 996 1120 861 1002 792 c 0
 885 723 749 705 623 705 c 2
 352 705 l 1
 352 0 l 1
 352 0 352 -1 352 -1 c 2
 352 -46 317 -90 273 -99 c 1
 257 -109 230 -116 212 -116 c 0
 149 -116 97 -65 97 -1 c 2
 97 -1 97 0 97 0 c 1
 97 797 l 2
 96 803 95 813 95 820 c 0
 95 826 96 837 97 843 c 2
 97 1503 l 2
 97 1566 149 1618 212 1618 c 2
352 1365 m 1
 352 940 l 1
 635 940 l 1
 635 940 l 1
 715 940 800 960 856 997 c 0
 911 1035 944 1080 942 1179 c 2
 942 1179 942 1180 942 1181 c 1
 942 1181 l 1
 942 1221 927 1268 893 1302 c 0
 860 1337 810 1365 719 1365 c 2
 352 1365 l 1
EndSplineSet
EndChar

StartChar: Q
Encoding: 81 81 52
Width: 1448
Flags: MW
HStem: -365 243<1128.5 1206 1205 1206> 1355 262<677 764 764 792>
VStem: 65 256<772 772 772 847.5 666 881 772 772 772 772> 605 230<371 372 336.5 403.5> 1119 257<671.5 848>
LayerCount: 2
Fore
SplineSet
677 1617 m 2
 764 1617 l 2
 957 1617 1120 1506 1222 1349 c 0
 1324 1193 1376 990 1376 772 c 0
 1376 535 1325 328 1214 172 c 0
 1147 77 1056 5 949 -38 c 1
 949 -38 949 -38 949 -38 c 1
 960 -50 972 -61 984 -70 c 0
 1042 -107 1116 -122 1205 -122 c 2
 1205 -122 1206 -122 1206 -122 c 2
 1240 -122 1280 -147 1296 -178 c 1
 1310 -195 1321 -228 1321 -250 c 0
 1321 -313 1270 -365 1206 -365 c 2
 1206 -365 1205 -365 1205 -365 c 2
 1052 -365 894 -318 780 -194 c 0
 750 -161 723 -123 700 -81 c 1
 501 -75 330 22 224 176 c 0
 115 331 65 537 65 772 c 1
 65 772 l 1
 65 772 l 1
 65 772 l 1
 65 990 116 1193 218 1349 c 0
 320 1506 483 1617 677 1617 c 2
721 1355 m 0
 579 1355 492 1296 425 1191 c 0
 358 1086 321 931 321 764 c 0
 321 568 363 414 430 318 c 0
 479 248 538 203 618 183 c 1
 610 241 605 304 605 371 c 2
 605 371 605 372 605 372 c 2
 605 435 656 486 719 487 c 2
 719 487 720 487 720 487 c 2
 784 487 835 436 835 372 c 2
 835 372 835 371 835 371 c 2
 835 302 840 243 849 192 c 1
 921 216 974 262 1018 331 c 0
 1081 429 1119 578 1119 765 c 0
 1119 931 1082 1087 1015 1192 c 0
 949 1296 863 1355 721 1355 c 0
EndSplineSet
EndChar

StartChar: R
Encoding: 82 82 53
Width: 1280
Flags: MW
HStem: 705 235<352 564 352 587> 1365 253<352 352 352 719>
VStem: 97 255<-1 0 0 705 940 1365> 942 267
LayerCount: 2
Fore
SplineSet
212 1618 m 2
 721 1618 l 2
 871 1618 998 1574 1085 1490 c 0
 1172 1405 1210 1287 1210 1167 c 0
 1210 996 1120 861 1002 792 c 0
 947 759 887 738 825 725 c 1
 869 652 922 564 976 473 c 0
 1037 371 1098 269 1144 191 c 0
 1166 152 1186 120 1199 96 c 0
 1206 84 1212 74 1216 66 c 0
 1218 63 1220 59 1222 55 c 0
 1223 53 1224 51 1226 46 c 0
 1227 44 1228 42 1230 37 c 0
 1231 32 1236 28 1236 0 c 2
 1236 0 1236 -1 1236 -1 c 2
 1236 -64 1184 -116 1121 -116 c 0
 1104 -116 1079 -109 1064 -101 c 1
 1064 -101 1063 -101 1062 -101 c 0
 1021 -101 978 -69 966 -30 c 0
 964 -24 959 -16 954 -5 c 0
 942 18 924 52 903 91 c 0
 860 170 803 275 745 378 c 0
 675 506 608 626 564 705 c 1
 352 705 l 1
 352 0 l 1
 352 0 352 -1 352 -1 c 2
 352 -46 317 -90 273 -99 c 1
 257 -109 230 -116 212 -116 c 0
 149 -116 97 -65 97 -1 c 2
 97 -1 97 0 97 0 c 1
 97 797 l 2
 96 803 95 813 95 820 c 0
 95 826 96 837 97 843 c 2
 97 1503 l 2
 97 1566 149 1618 212 1618 c 2
352 1365 m 1
 352 940 l 1
 587 940 l 2
 591 941 597 941 601 941 c 2
 601 941 602 941 603 941 c 0
 607 941 614 941 619 940 c 2
 635 940 l 1
 635 940 l 1
 715 940 800 960 856 997 c 0
 911 1035 944 1080 942 1179 c 2
 942 1179 942 1180 942 1181 c 1
 942 1181 l 1
 942 1221 927 1268 893 1302 c 0
 860 1337 810 1365 719 1365 c 2
 352 1365 l 1
963 -10 m 1
 963 -21 965 -26 966 -28 c 1
 964 -23 963 -15 963 -10 c 1
EndSplineSet
EndChar

StartChar: S
Encoding: 83 83 54
Width: 1232
Flags: W
HStem: -85 260<636 636 636 639 636 666> 1370 245<528 592>
VStem: 56 271<440 441 429 473> 884 278<1095 1097> 903 260
LayerCount: 2
Fore
SplineSet
644 1615 m 2xe8
 906 1615 1160 1402 1162 1097 c 0
 1162 1096 1162 1095 1162 1095 c 2
 1162 1031 1110 980 1047 980 c 0
 1030 980 1004 986 989 995 c 0
 988 995 985 995 984 995 c 0
 929 995 884 1039 884 1095 c 1xf0
 884 1095 884 1095 884 1095 c 1
 884 1157 862 1227 818 1278 c 0
 774 1329 709 1368 592 1370 c 0
 432 1370 323 1276 323 1151 c 0
 323 1052 350 1010 394 973 c 0
 395 972 397 971 398 970 c 0
 442 945 505 925 579 905 c 0
 580 905 581 904 582 904 c 2
 748 855 l 2
 841 830 940 797 1023 722 c 0
 1107 647 1162 528 1162 381 c 0
 1162 223 1094 88 984 13 c 0
 874 -62 738 -85 594 -85 c 0
 418 -85 276 -11 187 92 c 0
 97 195 56 322 56 440 c 2
 56 440 56 441 56 441 c 2
 56 505 108 556 171 556 c 0
 188 556 214 550 229 541 c 1
 283 541 327 496 327 441 c 2
 327 441 327 440 327 440 c 2
 327 418 342 340 386 282 c 0
 430 224 496 175 636 175 c 1
 636 175 l 1
 637 175 638 175 639 175 c 0
 743 172 807 198 845 232 c 0
 883 265 903 309 903 374 c 0
 903 375 903 375 903 375 c 2
 904 460 885 513 849 555 c 0
 840 566 828 577 815 587 c 0
 780 605 736 620 686 634 c 1
 686 634 685 634 684 635 c 2
 518 683 l 2
 424 708 320 735 228 808 c 0
 136 881 73 1005 69 1164 c 0
 69 1165 69 1166 69 1167 c 0
 69 1330 154 1454 250 1522 c 0
 347 1591 447 1615 528 1615 c 2
 644 1615 l 2xe8
EndSplineSet
EndChar

StartChar: T
Encoding: 84 84 55
Width: 1208
Flags: MW
HStem: 1365 250<78 79 79 80 80 465 720 1120 720 720 1120 1121>
VStem: 465 255<-1 0 0 1365>
LayerCount: 2
Fore
SplineSet
578 1617 m 0
 579 1617 579 1617 580 1617 c 0
 585 1617 594 1616 599 1615 c 2
 1120 1615 l 1
 1120 1615 1121 1615 1122 1615 c 0
 1185 1615 1237 1563 1237 1500 c 0
 1237 1481 1228 1452 1217 1436 c 1
 1205 1397 1162 1365 1121 1365 c 2
 1121 1365 1120 1365 1120 1365 c 1
 720 1365 l 1
 720 0 l 1
 720 0 720 -1 720 -1 c 2
 720 -46 685 -90 641 -99 c 1
 625 -109 598 -116 580 -116 c 0
 517 -116 465 -65 465 -1 c 2
 465 -1 465 0 465 0 c 1
 465 1365 l 1
 80 1365 l 1
 80 1365 79 1365 79 1365 c 2
 38 1365 -5 1397 -17 1436 c 1
 -28 1452 -37 1481 -37 1500 c 0
 -37 1563 15 1615 78 1615 c 0
 79 1615 80 1615 80 1615 c 1
 562 1615 l 2
 566 1616 574 1617 578 1617 c 0
EndSplineSet
EndChar

StartChar: U
Encoding: 85 85 56
Width: 1312
Flags: MW
HStem: -85 260<618 700 618 708.5>
VStem: 104 251<544 1550 1550 1551> 963 251<539 544 544 1550 1550 1551>
LayerCount: 2
Fore
SplineSet
217 1667 m 0
 218 1667 218 1667 219 1667 c 0
 238 1667 266 1658 282 1648 c 1
 322 1636 355 1593 355 1551 c 2
 355 1551 355 1550 355 1550 c 1
 355 539 l 2
 355 378 398 294 451 245 c 0
 503 196 577 175 659 175 c 0
 741 175 815 196 867 244 c 0
 920 293 963 377 963 539 c 2
 963 1550 l 1
 963 1550 963 1551 963 1551 c 2
 963 1593 995 1636 1036 1648 c 1
 1052 1658 1080 1666 1099 1666 c 0
 1162 1666 1214 1615 1214 1551 c 2
 1214 1551 1214 1550 1214 1550 c 1
 1214 544 l 2
 1214 295 1134 124 1016 28 c 0
 897 -68 758 -85 659 -85 c 0
 559 -85 420 -67 302 30 c 0
 184 127 104 297 104 544 c 2
 104 1550 l 1
 104 1550 104 1551 104 1552 c 0
 104 1614 155 1666 217 1667 c 0
EndSplineSet
EndChar

StartChar: V
Encoding: 86 86 57
Width: 1296
Flags: W
VStem: 300 0<1550 1550 1551 1551 1564 1564> 300 2 1000 2 1001 0<1550 1550 1551 1551>
LayerCount: 2
Fore
SplineSet
183 1667 m 0x10
 184 1667 185 1667 185 1667 c 2
 239 1667 290 1623 299 1569 c 1
 299 1569 298 1569 298 1570 c 1
 298 1569 299 1568 299 1568 c 2
 300 1563 300 1555 300 1551 c 0
 300 1550 300 1550 300 1550 c 2
 300 1558 300 1562 300 1564 c 1x90
 300 1562 300 1561 301 1558 c 0
 304 1547 309 1530 314 1509 c 0
 326 1467 342 1408 362 1337 c 0
 401 1196 454 1009 506 823 c 0
 559 637 611 453 651 314 c 1
 690 453 743 637 795 823 c 0
 848 1009 900 1196 940 1337 c 0
 960 1408 976 1467 987 1509 c 0
 993 1530 997 1547 1000 1558 c 0x60
 1001 1561 1001 1562 1002 1564 c 1
 1002 1562 1001 1558 1001 1550 c 2
 1001 1550 1001 1551 1001 1551 c 2
 1001 1555 1002 1563 1003 1567 c 0
 1003 1568 1003 1569 1003 1569 c 1
 1003 1569 1003 1569 1003 1570 c 1
 1003 1571 1003 1570 1003 1570 c 1
 1003 1569 l 1
 1003 1569 1003 1569 1003 1569 c 1
 1011 1623 1062 1666 1116 1666 c 0
 1133 1666 1159 1659 1174 1651 c 0
 1175 1651 1176 1651 1176 1651 c 2
 1232 1651 1276 1606 1276 1551 c 2
 1276 1551 1276 1550 1276 1550 c 2
 1276 1523 1274 1529 1274 1526 c 0
 1273 1523 1272 1521 1272 1518 c 0
 1270 1514 1269 1509 1267 1502 c 0
 1264 1490 1258 1473 1252 1451 c 0
 1239 1409 1221 1349 1199 1278 c 0
 1155 1137 1096 950 1037 763 c 0
 959 513 883 274 840 137 c 0
 820 69 806 18 806 18 c 2
 793 -28 743 -65 695 -65 c 2
 606 -65 l 2
 558 -65 509 -28 496 18 c 2
 496 18 481 69 462 137 c 0
 419 274 343 513 264 763 c 0
 206 950 147 1137 103 1278 c 0
 81 1349 63 1409 50 1451 c 0
 43 1473 38 1490 34 1502 c 0
 33 1509 31 1514 30 1518 c 0
 29 1521 29 1523 28 1526 c 0
 27 1529 25 1523 25 1550 c 2
 25 1550 25 1551 25 1551 c 2
 25 1606 69 1651 124 1651 c 0
 125 1651 127 1651 128 1651 c 0
 142 1659 167 1666 183 1667 c 0x10
298 1570 m 1
 298 1570 298 1570 298 1570 c 1
 298 1570 298 1570 298 1570 c 1
 298 1570 298 1570 298 1570 c 1
EndSplineSet
EndChar

StartChar: W
Encoding: 87 87 58
Width: 1520
Flags: MW
VStem: 23 269<1550 1551 1551 1552 1551.5 1561 1550 1583> 1214 269<1550 1551 1551 1552 1541.5 1578>
LayerCount: 2
Fore
SplineSet
136 1667 m 2
 136 1667 137 1667 137 1667 c 2
 154 1667 180 1660 195 1651 c 1
 248 1649 292 1605 292 1551 c 2
 292 1551 292 1550 292 1550 c 2
 292 1572 292 1551 293 1539 c 0
 295 1527 297 1510 300 1488 c 0
 305 1445 314 1385 323 1314 c 0
 343 1172 369 986 395 801 c 0
 419 631 424 597 443 464 c 1
 572 1512 l 2
 578 1555 616 1594 659 1599 c 1
 674 1608 700 1615 717 1615 c 2
 788 1615 l 2
 806 1615 832 1608 847 1599 c 1
 889 1594 928 1555 933 1512 c 2
 1063 464 l 1
 1081 597 1086 631 1110 801 c 0
 1136 986 1163 1172 1182 1314 c 0
 1192 1385 1200 1445 1206 1488 c 0
 1209 1510 1211 1527 1212 1539 c 0
 1214 1551 1214 1572 1214 1550 c 2
 1214 1550 1214 1551 1214 1551 c 2
 1214 1605 1257 1649 1310 1651 c 1
 1325 1660 1351 1667 1368 1667 c 0
 1431 1667 1483 1615 1483 1552 c 0
 1483 1551 1483 1550 1483 1550 c 2
 1483 1533 1482 1534 1481 1529 c 0
 1481 1524 1480 1518 1479 1512 c 0
 1477 1498 1474 1480 1471 1458 c 0
 1465 1414 1455 1354 1444 1283 c 0
 1422 1140 1392 954 1362 768 c 0
 1303 398 1243 32 1243 32 c 2
 1235 -22 1184 -65 1130 -65 c 2
 988 -65 l 2
 933 -65 882 -21 874 34 c 2
 753 916 l 1
 631 34 l 2
 624 -21 573 -65 517 -65 c 2
 376 -65 l 2
 322 -65 271 -22 262 32 c 2
 262 32 203 398 143 769 c 0
 113 954 84 1140 61 1283 c 0
 50 1354 41 1414 34 1458 c 0
 31 1480 28 1498 26 1512 c 0
 26 1518 25 1524 24 1529 c 0
 24 1534 23 1533 23 1550 c 2
 23 1550 23 1551 23 1552 c 0
 23 1614 73 1666 136 1667 c 2
EndSplineSet
EndChar

StartChar: X
Encoding: 88 88 59
Width: 1232
Flags: MW
VStem: 33 268 304 1 924 1 930 268
LayerCount: 2
Fore
SplineSet
148 1667 m 0
 164 1667 190 1660 205 1651 c 1
 205 1651 206 1651 206 1651 c 2
 248 1651 291 1619 302 1579 c 1
 302 1579 302 1580 302 1580 c 1
 302 1580 302 1579 302 1578 c 0
 304 1573 305 1565 306 1560 c 1
 305 1567 305 1572 304 1574 c 1
 305 1573 305 1573 306 1572 c 0
 311 1560 319 1543 330 1522 c 0
 353 1479 385 1418 423 1345 c 0
 463 1269 511 1180 561 1086 c 0
 579 1057 597 1027 615 997 c 1
 633 1027 651 1057 669 1086 c 0
 719 1180 767 1269 807 1345 c 0
 845 1418 877 1479 899 1522 c 0
 911 1543 919 1560 924 1572 c 0
 925 1573 925 1573 926 1574 c 1
 925 1571 924 1566 924 1559 c 1
 925 1564 926 1573 928 1578 c 0
 928 1579 928 1580 928 1580 c 1
 928 1580 928 1580 928 1579 c 1
 939 1619 982 1651 1022 1651 c 0
 1023 1651 1024 1651 1025 1651 c 0
 1039 1659 1064 1666 1081 1667 c 2
 1081 1667 1082 1667 1082 1667 c 2
 1146 1667 1197 1615 1197 1552 c 0
 1197 1551 1197 1550 1197 1550 c 2
 1197 1508 1191 1512 1189 1507 c 0
 1187 1502 1186 1500 1185 1498 c 0
 1183 1494 1182 1492 1181 1490 c 0
 1178 1485 1175 1480 1171 1473 c 0
 1164 1460 1154 1443 1141 1421 c 0
 1115 1378 1078 1317 1035 1245 c 0
 956 1116 854 947 750 776 c 1
 854 605 956 437 1035 307 c 0
 1079 234 1115 173 1141 129 c 0
 1154 108 1164 90 1172 77 c 0
 1176 70 1179 65 1181 59 c 0
 1183 57 1184 54 1186 50 c 0
 1187 47 1188 45 1190 40 c 0
 1192 35 1197 34 1197 0 c 2
 1197 0 1197 -1 1197 -1 c 2
 1197 -65 1146 -116 1082 -116 c 0
 1065 -116 1040 -109 1025 -101 c 1
 987 -100 946 -70 933 -33 c 0
 932 -31 932 -30 930 -26 c 0
 924 -15 915 2 904 23 c 0
 882 65 850 125 812 197 c 0
 766 283 710 386 651 495 c 0
 639 515 627 535 615 555 c 1
 603 535 591 515 579 495 c 0
 520 386 464 283 418 197 c 0
 380 125 348 65 326 23 c 0
 315 2 306 -15 300 -26 c 0
 298 -29 298 -31 297 -33 c 0
 284 -69 243 -100 205 -101 c 1
 191 -110 165 -117 148 -117 c 0
 84 -117 33 -65 33 -2 c 0
 33 -1 33 0 33 0 c 2
 33 34 38 35 40 40 c 0
 42 45 43 47 44 50 c 0
 46 54 47 57 49 59 c 0
 51 65 54 70 58 77 c 0
 66 90 76 108 89 129 c 0
 115 173 151 234 195 307 c 0
 274 437 376 605 480 776 c 1
 376 947 274 1116 195 1245 c 0
 152 1317 115 1378 89 1421 c 0
 76 1443 66 1460 59 1473 c 0
 55 1480 52 1485 49 1490 c 0
 48 1492 47 1494 45 1498 c 0
 44 1500 43 1502 41 1507 c 0
 39 1512 33 1508 33 1550 c 2
 33 1550 33 1551 33 1552 c 0
 33 1614 83 1666 146 1667 c 2
 146 1667 147 1667 148 1667 c 0
302 -9 m 1
 301 -15 299 -25 297 -30 c 1
 299 -29 301 -25 302 -9 c 1
928 -10 m 1
 929 -24 931 -28 932 -30 c 1
 931 -25 929 -16 928 -10 c 1
EndSplineSet
EndChar

StartChar: Y
Encoding: 89 89 60
Width: 1208
Flags: MW
VStem: 319 9 471 253<-22.5 -1 -22.5 -1> 883 9
LayerCount: 2
Fore
SplineSet
203 1667 m 0
 204 1667 204 1667 205 1667 c 0
 256 1667 307 1626 317 1575 c 1
 317 1576 317 1576 317 1576 c 2
 316 1577 316 1578 316 1577 c 2
 316 1577 317 1576 317 1576 c 1
 317 1576 317 1575 317 1574 c 2
 317 1574 318 1573 318 1573 c 2
 319 1567 320 1557 320 1552 c 0
 320 1551 320 1550 320 1550 c 2
 320 1562 319 1568 319 1571 c 1
 320 1566 323 1559 327 1549 c 0
 337 1525 352 1492 369 1453 c 0
 405 1374 452 1271 500 1169 c 0
 538 1087 573 1013 605 945 c 1
 637 1013 672 1086 710 1168 c 0
 758 1270 806 1374 841 1452 c 0
 859 1492 873 1525 883 1549 c 0
 887 1559 890 1566 892 1571 c 1
 891 1569 891 1565 891 1559 c 1
 891 1563 892 1569 893 1573 c 2
 893 1573 893 1574 893 1574 c 2
 893 1575 894 1576 894 1576 c 1
 894 1576 894 1576 894 1577 c 2
 894 1577 894 1577 894 1576 c 2
 894 1576 893 1576 893 1575 c 1
 904 1625 954 1666 1005 1666 c 0
 1022 1666 1048 1659 1062 1651 c 1
 1115 1648 1158 1604 1158 1551 c 2
 1158 1551 1158 1550 1158 1550 c 2
 1158 1521 1153 1520 1151 1513 c 0
 1149 1507 1147 1502 1145 1497 c 0
 1141 1487 1136 1475 1129 1462 c 0
 1117 1435 1099 1401 1079 1360 c 0
 1038 1280 983 1176 929 1073 c 0
 903 1024 877 975 852 929 c 0
 783 782 728 666 728 666 c 2
 727 664 725 661 724 659 c 2
 724 0 l 1
 724 0 724 -1 724 -1 c 2
 724 -44 690 -88 649 -98 c 1
 633 -108 605 -116 587 -116 c 0
 523 -116 471 -65 471 -1 c 1
 471 -1 471 0 472 0 c 2
 472 689 l 1
 454 726 414 811 361 922 c 0
 336 970 309 1021 281 1073 c 0
 227 1175 173 1279 131 1360 c 0
 111 1400 94 1435 81 1462 c 0
 75 1475 69 1486 65 1497 c 0
 63 1502 61 1507 59 1514 c 0
 57 1520 53 1523 53 1550 c 2
 53 1550 53 1551 53 1551 c 2
 53 1604 95 1648 147 1651 c 1
 162 1659 187 1666 203 1667 c 0
EndSplineSet
EndChar

StartChar: Z
Encoding: 90 90 61
Width: 1160
Flags: MW
HStem: -65 255<173 1000 389 1000 389 1000 1000 1001 1001 1002> 1365 250<134 157 155 156 156 157 157 764>
LayerCount: 2
Fore
SplineSet
157 1615 m 2
 954 1615 l 2
 1018 1615 1069 1563 1069 1500 c 2
 1069 1428 l 2
 1069 1411 1062 1385 1054 1371 c 2
 504 415 l 1
 389 190 l 1
 1000 190 l 1
 1000 190 1001 190 1001 190 c 2
 1045 190 1089 155 1099 112 c 1
 1109 96 1117 68 1117 50 c 0
 1117 -13 1065 -65 1002 -65 c 0
 1001 -65 1001 -65 1000 -65 c 2
 205 -65 l 2
 141 -65 90 -13 90 50 c 2
 90 125 l 2
 90 142 97 168 105 182 c 2
 600 1043 l 1
 764 1365 l 1
 156 1365 l 1
 156 1365 155 1365 155 1365 c 2
 113 1365 70 1397 59 1437 c 1
 49 1453 40 1481 40 1500 c 0
 40 1563 92 1615 155 1615 c 0
 156 1615 156 1615 157 1615 c 2
EndSplineSet
EndChar

StartChar: bracketleft
Encoding: 91 91 62
Width: 688
Flags: W
LayerCount: 2
Fore
SplineSet
104 -192 m 1
 104 1664 l 1
 592 1664 l 1
 592 1536 l 1
 240 1536 l 1
 240 -64 l 1
 576 -64 l 1
 576 -192 l 1
 104 -192 l 1
EndSplineSet
EndChar

StartChar: backslash
Encoding: 92 92 63
Width: 1032
Flags: W
LayerCount: 2
Fore
SplineSet
104 1608 m 1
 248 1672 l 1
 920 -136 l 1
 784 -200 l 1
 104 1608 l 1
EndSplineSet
EndChar

StartChar: bracketright
Encoding: 93 93 64
Width: 688
Flags: W
LayerCount: 2
Fore
SplineSet
120 -56 m 1
 400 -56 l 1
 400 1544 l 1
 120 1544 l 1
 120 1664 l 1
 544 1664 l 1
 544 -192 l 1
 120 -192 l 1
 120 -56 l 1
EndSplineSet
EndChar

StartChar: asciicircum
Encoding: 94 94 65
Width: 848
Flags: W
LayerCount: 2
Fore
SplineSet
104 1216 m 1
 104 1408 l 1
 424 1704 l 1
 752 1392 l 1
 752 1200 l 1
 424 1512 l 1
 104 1216 l 1
EndSplineSet
EndChar

StartChar: underscore
Encoding: 95 95 66
Width: 624
Flags: W
LayerCount: 2
Fore
SplineSet
0 -144 m 1
 624 -144 l 1
 624 -288 l 1
 0 -288 l 1
 0 -144 l 1
EndSplineSet
EndChar

StartChar: grave
Encoding: 96 96 67
Width: 848
Flags: W
LayerCount: 2
Fore
SplineSet
232 1600 m 1
 432 1600 l 1
 584 1264 l 1
 432 1264 l 1
 232 1600 l 1
EndSplineSet
EndChar

StartChar: a
Encoding: 97 97 68
Width: 976
Flags: W
HStem: -84 249<414 451.5 414 477> 559 242 995 236<446 514>
VStem: 51 261<317 331 331 376 303 387> 66 265<838 839 839 840 839.5 840 813 953.5> 628 254<279 280 280 570 570 570 801 836 836 845>
LayerCount: 2
Fore
SplineSet
431 1231 m 2xec
 543 1231 l 2
 635 1231 728 1195 790 1124 c 0
 852 1053 882 955 882 845 c 2
 882 718 l 2
 884 711 885 699 885 691 c 0
 885 683 884 671 882 664 c 2
 882 280 l 2
 882 277 882 271 882 267 c 0
 882 264 882 258 882 255 c 2
 882 0 l 1
 882 0 l 1
 882 -64 830 -115 767 -115 c 0
 708 -115 657 -67 652 -9 c 1
 593 -51 521 -84 433 -84 c 0
 274 -84 159 11 108 103 c 0
 58 196 52 281 51 317 c 0xf4
 51 325 51 331 51 331 c 2
 51 443 91 541 152 611 c 0
 214 681 294 723 372 751 c 0
 461 782 552 796 628 801 c 1
 628 836 l 2
 628 915 609 947 590 965 c 0
 571 983 540 995 488 995 c 0
 404 995 380 971 359 941 c 0
 339 911 331 864 331 840 c 0
 331 839 331 839 331 839 c 2
 331 787 290 743 239 739 c 1
 224 730 198 723 181 723 c 0
 117 723 66 775 66 838 c 0
 66 839 66 839 66 840 c 0
 66 1067 242 1231 431 1231 c 2xec
628 570 m 1
 602 567 575 564 548 559 c 0
 520 551 492 541 466 529 c 0
 373 484 312 431 312 321 c 0
 312 285 324 239 345 211 c 0
 365 182 386 165 442 165 c 0
 461 165 524 191 573 226 c 0
 577 228 580 231 584 233 c 0
 600 249 615 264 628 279 c 1
 628 570 l 1
EndSplineSet
EndChar

StartChar: b
Encoding: 98 98 69
Width: 1016
Flags: MW
HStem: -85 250<507 519 507 619> 995 235<533.5 543 543 544 544 564>
VStem: 104 253<-1 893 0 893 208 893 262 893 249 904 249 904 1175 1324 1324 1625 1625 1626> 693 263<530.5 683.5 515.5 707>
LayerCount: 2
Fore
SplineSet
217 1742 m 0
 218 1742 218 1742 219 1742 c 0
 237 1742 265 1734 281 1724 c 1
 323 1713 357 1670 357 1626 c 2
 357 1626 357 1625 357 1625 c 1
 357 1324 l 1
 357 1175 l 1
 372 1184 387 1192 402 1199 c 0
 434 1215 464 1230 515 1230 c 1
 515 1230 l 1
 515 1230 516 1230 516 1230 c 1
 611 1230 l 1
 610 1230 l 2
 739 1230 846 1134 893 1019 c 0
 941 905 956 766 956 601 c 0
 956 430 933 273 872 146 c 0
 812 19 693 -85 545 -85 c 0
 462 -85 391 -58 332 -22 c 1
 322 -74 271 -116 219 -116 c 0
 155 -116 104 -64 104 -1 c 0
 104 0 104 0 104 0 c 1
 104 208 l 2
 102 216 101 228 101 235 c 0
 101 243 102 255 104 262 c 2
 104 904 l 2
 103 909 102 918 102 924 c 0
 102 929 103 938 104 943 c 2
 104 1324 l 1
 104 1625 l 2
 104 1626 104 1626 104 1627 c 0
 104 1689 155 1741 217 1742 c 0
564 995 m 0
 558 995 551 995 544 995 c 2
 544 995 543 995 543 995 c 2
 524 995 503 989 480 980 c 0
 467 973 452 963 437 953 c 0
 411 935 383 914 357 893 c 1
 357 249 l 1
 367 239 377 230 389 220 c 0
 409 203 431 188 453 175 c 1
 473 169 495 165 519 165 c 0
 585 166 610 188 643 262 c 0
 675 336 693 459 693 602 c 0
 693 812 663 920 639 958 c 0
 617 992 606 995 564 995 c 0
EndSplineSet
EndChar

StartChar: c
Encoding: 99 99 70
Width: 1024
Flags: MW
HStem: -85 235<535 560 492.5 621.5> 995 235<495 570>
VStem: 58 255<511.5 657 511.5 657.5> 722 262
LayerCount: 2
Fore
SplineSet
491 1230 m 2
 575 1230 l 2
 703 1230 815 1173 885 1086 c 0
 954 999 984 889 984 777 c 2
 984 777 984 776 984 776 c 2
 984 712 933 661 869 661 c 0
 853 661 828 667 813 675 c 1
 762 679 721 724 721 775 c 2
 721 775 721 776 721 776 c 2
 721 842 703 899 674 936 c 0
 644 972 607 995 533 995 c 0
 457 995 418 972 379 908 c 0
 340 845 313 733 313 581 c 0
 313 442 336 324 375 251 c 0
 414 179 452 150 533 150 c 0
 587 150 629 171 663 214 c 0
 698 257 722 323 722 405 c 2
 722 405 722 406 722 406 c 2
 722 456 762 500 812 506 c 1
 826 514 852 522 870 522 c 0
 933 522 985 470 985 407 c 0
 985 406 985 405 985 405 c 2
 985 324 971 213 905 108 c 0
 839 3 708 -85 535 -85 c 0
 400 -87 272 -18 187 98 c 0
 103 214 58 373 58 566 c 0
 58 749 91 905 161 1025 c 0
 232 1145 353 1230 491 1230 c 2
EndSplineSet
EndChar

StartChar: d
Encoding: 100 100 71
Width: 1016
Flags: MW
HStem: -85 250<499 517.5 460 537.5> 996 236<458.5 509.5>
VStem: 52 255<512 665 512 665.5> 668 253<276 288 293 795 805 851 851 851 1193 1324 1324 1625 1625 1626 1626 1627>
LayerCount: 2
Fore
SplineSet
805 1742 m 2
 805 1742 806 1742 806 1742 c 2
 870 1742 921 1690 921 1627 c 0
 921 1626 921 1626 921 1625 c 2
 921 1324 l 1
 921 805 l 2
 922 803 922 801 922 799 c 0
 922 797 922 796 921 795 c 2
 921 293 l 1
 921 293 922 291 922 291 c 2
 922 290 921 289 921 288 c 2
 921 209 l 1
 921 0 l 1
 921 0 921 0 921 -1 c 0
 921 -64 870 -116 806 -116 c 0
 755 -116 705 -75 694 -25 c 1
 641 -60 576 -85 499 -85 c 0
 362 -87 237 -7 162 113 c 0
 88 233 52 391 52 580 c 0
 52 751 76 899 134 1018 c 0
 191 1136 300 1232 434 1232 c 2
 518 1232 l 2
 575 1232 625 1217 668 1193 c 1
 668 1324 l 1
 668 1625 l 1
 668 1625 668 1626 668 1626 c 2
 668 1670 703 1714 745 1724 c 1
 760 1733 787 1741 805 1742 c 2
492 996 m 0
 425 996 398 981 365 923 c 0
 332 864 307 749 307 581 c 0
 307 443 329 327 365 257 c 0
 400 187 430 165 490 165 c 0
 545 165 594 194 629 223 c 0
 632 226 634 229 637 232 c 0
 649 247 659 262 668 276 c 1
 668 851 l 1
 659 870 648 891 635 910 c 0
 618 936 600 957 582 972 c 1
 557 986 527 996 492 996 c 0
EndSplineSet
EndChar

StartChar: e
Encoding: 101 101 72
Width: 1024
Flags: MW
HStem: -83 233<521 555> 475 230<316 712 313 846 316 316> 995 235<481 514 514 514>
VStem: 65 251<475 475 475 532> 699 262
LayerCount: 2
Fore
SplineSet
475 1230 m 2
 559 1230 l 2
 697 1230 810 1148 872 1050 c 0
 935 951 961 836 961 725 c 2
 961 590 l 2
 961 527 910 475 846 475 c 2
 316 475 l 1
 323 359 355 279 394 229 c 0
 438 173 490 150 552 150 c 0
 591 150 630 169 660 197 c 0
 690 224 699 267 699 248 c 1
 699 249 699 249 699 250 c 0
 699 299 739 344 788 349 c 1
 803 358 829 365 847 365 c 0
 910 365 962 313 962 250 c 0
 962 249 962 249 962 248 c 0
 962 204 950 177 934 144 c 0
 918 110 895 74 862 41 c 0
 798 -27 691 -85 555 -83 c 0
 405 -83 269 -16 185 97 c 0
 101 211 65 360 65 532 c 0
 64 545 64 560 64 574 c 0
 63 579 63 586 63 590 c 0
 63 593 63 598 63 601 c 0
 63 617 63 632 63 632 c 2
 63 633 63 633 63 633 c 2
 63 634 63 634 63 635 c 2
 63 635 63 692 65 728 c 0
 65 851 100 968 167 1062 c 0
 235 1157 345 1228 473 1230 c 2
 473 1230 474 1230 475 1230 c 2
514 995 m 1
 448 995 408 976 374 933 c 0
 341 891 314 817 313 705 c 1
 712 705 l 1
 711 818 686 893 655 934 c 0
 622 976 585 995 514 995 c 1
 514 995 514 995 514 995 c 1
EndSplineSet
EndChar

StartChar: f
Encoding: 102 102 73
Width: 624
Flags: MW
HStem: 996 230<-8.5 25 23 25 25 100 352 552 552 553> 1439 251<361 371 356 566 371 566 566 567>
VStem: 100 251
LayerCount: 2
Fore
SplineSet
361 1690 m 2
 566 1690 l 2
 567 1690 567 1690 568 1690 c 0
 631 1690 683 1639 683 1575 c 0
 683 1556 674 1528 664 1512 c 1
 652 1472 609 1439 567 1439 c 2
 567 1439 566 1439 566 1439 c 1
 371 1439 l 2
 360 1439 358 1439 356 1439 c 0
 355 1434 352 1422 352 1401 c 2
 352 1226 l 1
 552 1226 l 1
 552 1226 553 1226 553 1226 c 2
 617 1226 668 1174 668 1111 c 0
 668 1047 617 996 553 996 c 2
 553 996 552 996 552 996 c 1
 352 996 l 1
 352 -1 l 1
 352 -1 352 -2 352 -2 c 2
 352 -44 319 -87 279 -98 c 1
 263 -109 234 -117 215 -117 c 0
 152 -117 100 -66 100 -2 c 2
 100 -2 100 -1 100 -1 c 1
 100 996 l 1
 25 996 l 2
 24 996 23 996 23 996 c 2
 -40 996 -92 1047 -92 1111 c 0
 -92 1174 -40 1226 23 1226 c 2
 23 1226 24 1226 25 1226 c 2
 100 1226 l 1
 100 1347 l 2
 100 1419 101 1490 138 1563 c 0
 175 1637 269 1690 361 1690 c 2
EndSplineSet
EndChar

StartChar: g
Encoding: 103 103 74
Width: 944
Flags: MW
HStem: -343 260<370.5 427 427 432 427 427> -21 247<433 450.5 416.5 462.5> 996 236<408 466>
VStem: 50 255<529 670.5 529 700> 597 252<384.5 387.5 384.5 879>
LayerCount: 2
Fore
SplineSet
731 1282 m 0
 732 1282 733 1282 733 1282 c 2
 797 1282 848 1230 848 1167 c 0
 848 1166 848 1165 848 1165 c 1
 848 396 l 2
 848 393 849 389 849 386 c 0
 849 383 848 379 848 376 c 2
 848 162 l 1
 855 -12 817 -144 732 -230 c 0
 647 -317 533 -339 432 -343 c 0
 431 -343 429 -343 427 -343 c 1
 427 -343 l 1
 254 -343 159 -325 159 -325 c 1
 108 -316 65 -265 65 -212 c 0
 65 -188 78 -154 94 -136 c 1
 105 -96 148 -64 190 -64 c 0
 196 -64 205 -65 210 -66 c 2
 210 -66 303 -83 438 -83 c 0
 504 -83 535 -68 556 -44 c 0
 568 -31 579 -11 586 18 c 1
 542 -5 492 -21 433 -21 c 0
 303 -23 180 53 123 169 c 0
 65 285 50 430 50 616 c 0
 50 784 64 921 114 1033 c 0
 163 1145 274 1232 400 1232 c 2
 484 1232 l 2
 536 1232 582 1219 622 1197 c 1
 635 1243 684 1281 731 1282 c 0
440 996 m 0
 376 996 368 989 344 928 c 0
 319 868 305 750 305 591 c 0
 305 467 315 359 339 298 c 0
 350 268 363 251 375 242 c 0
 388 232 401 226 432 226 c 0
 469 226 503 243 530 264 c 0
 541 276 552 290 563 305 c 0
 576 324 588 344 597 362 c 1
 597 879 l 1
 592 893 586 908 579 921 c 0
 571 937 563 951 555 962 c 1
 529 981 492 996 440 996 c 0
EndSplineSet
EndChar

StartChar: h
Encoding: 104 104 75
Width: 1024
Flags: MW
HStem: 995 235<546.5 556 556 580 580 588 588 590 521 594.5>
VStem: 100 253<-22.5 0 -22.5 829 1626 1627 1626.5 1647.5> 667 251
LayerCount: 2
Fore
SplineSet
213 1742 m 2
 213 1742 214 1742 215 1742 c 0
 233 1742 261 1733 277 1723 c 1
 319 1713 353 1669 353 1626 c 1
 353 1626 353 1625 352 1625 c 2
 352 1178 l 1
 398 1209 453 1230 521 1230 c 2
 521 1230 522 1230 522 1230 c 1
 522 1230 539 1230 556 1230 c 0
 565 1230 573 1230 580 1230 c 0
 583 1230 586 1230 588 1230 c 0
 590 1230 599 1230 590 1230 c 1
 723 1230 827 1155 872 1072 c 0
 917 990 919 910 919 863 c 2
 919 0 l 1
 919 0 919 -1 919 -2 c 0
 919 -65 867 -117 804 -117 c 0
 785 -117 757 -108 741 -98 c 1
 700 -86 667 -43 667 -1 c 1
 667 -1 668 0 668 0 c 1
 668 798 l 2
 668 857 662 919 647 951 c 0
 632 983 629 995 560 995 c 0
 533 995 508 989 486 981 c 1
 461 964 427 939 399 907 c 0
 381 887 366 867 352 850 c 1
 352 0 l 2
 353 0 353 -1 353 -1 c 1
 353 -44 319 -88 277 -98 c 1
 261 -108 233 -116 215 -116 c 0
 151 -116 100 -65 100 -1 c 2
 100 -1 100 0 100 0 c 1
 100 829 l 2
 99 835 98 844 98 849 c 0
 98 855 99 864 100 869 c 2
 100 1625 l 1
 100 1625 100 1626 100 1627 c 0
 100 1689 150 1741 213 1742 c 2
EndSplineSet
EndChar

StartChar: i
Encoding: 105 105 76
Width: 432
Flags: MW
VStem: 86 253<-23.5 -1 -23.5 1178 1179.5 1180 1180 1195 1359 1359.5 1624.5 1625 1625 1646.5>
LayerCount: 2
Fore
SplineSet
199 1740 m 2
 199 1740 200 1740 201 1740 c 0
 219 1740 247 1732 263 1722 c 1
 305 1711 339 1668 339 1625 c 0
 339 1624 339 1624 338 1624 c 2
 338 1360 l 2
 339 1360 339 1360 339 1359 c 0
 339 1325 314 1285 283 1269 c 1
 314 1254 339 1214 339 1180 c 0
 339 1179 339 1179 338 1178 c 2
 338 -1 l 2
 339 -1 339 -2 339 -2 c 1
 339 -45 305 -89 263 -99 c 1
 247 -109 219 -117 201 -117 c 0
 137 -117 86 -66 86 -2 c 2
 86 -2 86 -1 86 -1 c 1
 86 1178 l 2
 86 1179 86 1180 86 1180 c 2
 86 1210 105 1250 128 1269 c 1
 105 1288 86 1329 86 1359 c 2
 86 1359 86 1360 86 1360 c 1
 86 1624 l 1
 86 1624 86 1625 86 1625 c 2
 86 1688 136 1739 199 1740 c 2
EndSplineSet
EndChar

StartChar: j
Encoding: 106 106 77
Width: 448
Flags: W
HStem: -352 267<-43.5 -10 -12 -10 -10 35 35 47>
VStem: 90 251<1342.5 1360 1342.5 1624 1625 1645.5> 104 251<-37 -23 -23 1165 1165 1166>
LayerCount: 2
Fore
SplineSet
203 1740 m 2xc0
 203 1740 204 1740 205 1740 c 0
 224 1740 252 1732 268 1721 c 1
 308 1709 341 1666 341 1625 c 1
 341 1625 341 1624 340 1624 c 2
 340 1360 l 2
 341 1360 341 1359 341 1359 c 1xc0
 341 1326 317 1287 288 1271 c 1
 325 1254 355 1207 355 1166 c 2
 355 1166 355 1165 355 1165 c 1
 355 -23 l 2
 355 -129 330 -221 264 -281 c 0
 199 -342 116 -352 47 -352 c 2
 -10 -352 l 2
 -11 -352 -12 -352 -12 -352 c 2
 -75 -352 -127 -300 -127 -237 c 0
 -127 -220 -120 -194 -112 -179 c 1
 -109 -127 -64 -85 -12 -85 c 0
 -11 -85 -11 -85 -10 -85 c 2
 -10 -85 12 -85 35 -85 c 2
 67 -85 l 1
 77 -85 l 2
 80 -85 85 -85 81 -85 c 2
 81 -85 81 -85 80 -85 c 1
 80 -85 80 -85 80 -85 c 1
 81 -85 80 -85 81 -85 c 0
 104 -84 95 -85 97 -82 c 0
 98 -80 104 -62 104 -37 c 2
 104 1165 l 1
 104 1165 104 1166 104 1166 c 2xa0
 104 1199 128 1239 157 1254 c 1
 120 1271 90 1318 90 1359 c 2
 90 1359 90 1360 90 1360 c 1
 90 1624 l 1
 90 1624 90 1625 90 1625 c 2
 90 1688 140 1739 203 1740 c 2xc0
EndSplineSet
EndChar

StartChar: k
Encoding: 107 107 78
Width: 944
Flags: MW
HStem: -20 20G<100 100 352 352.5 660 660 924 924>
VStem: 100 253<-22.5 0 -22.5 479 1626 1627 1626.5 1647.5> 653 8
LayerCount: 2
Fore
SplineSet
213 1742 m 2
 213 1742 214 1742 215 1742 c 0
 233 1742 261 1733 277 1723 c 1
 319 1713 353 1669 353 1626 c 1
 353 1626 353 1625 352 1625 c 2
 352 844 l 1
 374 870 395 897 417 924 c 0
 478 999 538 1074 584 1131 c 0
 606 1159 625 1183 638 1199 c 0
 644 1206 647 1211 650 1215 c 0
 664 1240 699 1263 728 1266 c 1
 742 1274 767 1281 784 1282 c 2
 784 1282 785 1282 785 1282 c 2
 849 1282 901 1230 901 1167 c 0
 901 1166 901 1165 900 1165 c 1
 900 1112 890 1117 887 1112 c 0
 885 1106 883 1104 882 1102 c 0
 880 1099 879 1097 878 1096 c 0
 876 1094 875 1093 874 1092 c 0
 872 1089 871 1087 868 1084 c 0
 864 1079 857 1071 850 1062 c 0
 834 1043 812 1016 785 985 c 0
 732 921 661 837 590 753 c 0
 584 746 578 739 572 732 c 1
 605 667 658 561 725 429 c 0
 771 336 818 243 853 172 c 0
 871 137 886 107 896 85 c 0
 901 74 906 65 909 58 c 0
 911 54 912 51 914 47 c 0
 915 45 915 43 917 39 c 0
 918 35 924 43 924 0 c 2
 924 0 924 -1 924 -1 c 2
 924 -65 872 -116 809 -116 c 0
 791 -116 765 -109 750 -100 c 1
 712 -97 673 -63 663 -26 c 1
 664 -26 664 -26 664 -26 c 1
 664 -27 664 -27 664 -26 c 1
 664 -26 664 -26 664 -26 c 1
 664 -26 663 -25 663 -24 c 2
 663 -24 663 -23 663 -23 c 2
 661 -17 660 -7 660 -1 c 2
 660 -1 660 0 660 0 c 2
 660 -11 661 -16 661 -20 c 1
 659 -15 657 -10 653 -1 c 0
 644 19 631 49 615 84 c 0
 582 154 539 246 495 337 c 0
 462 405 429 473 401 531 c 1
 399 529 396 526 394 523 c 0
 378 505 365 489 352 475 c 1
 352 0 l 2
 353 0 353 -1 353 -1 c 1
 353 -44 319 -88 277 -98 c 1
 261 -108 233 -116 215 -116 c 0
 151 -116 100 -65 100 -1 c 2
 100 -1 100 0 100 0 c 1
 100 479 l 2
 99 483 99 489 99 493 c 0
 99 496 99 503 100 506 c 2
 100 1625 l 1
 100 1625 100 1626 100 1627 c 0
 100 1689 150 1741 213 1742 c 2
647 1209 m 1
 644 1207 638 1205 638 1172 c 1
 638 1183 643 1200 647 1209 c 1
EndSplineSet
EndChar

StartChar: l
Encoding: 108 108 79
Width: 432
Flags: W
HStem: -65 265<300.5 390 357 390 357 390 390 391 391 392>
VStem: 86 251<278 1625 1625 1627 1626.5 1627> 124 383
LayerCount: 2
Fore
SplineSet
199 1742 m 0xc0
 200 1742 201 1742 201 1742 c 2
 220 1742 249 1733 264 1723 c 1
 305 1712 337 1668 337 1627 c 0xc0
 337 1626 337 1626 337 1625 c 2
 337 224 l 2
 337 212 338 206 339 201 c 0
 343 200 349 200 357 200 c 2
 390 200 l 1
 390 200 391 200 391 200 c 2
 442 200 487 159 491 108 c 1
 500 93 507 67 507 50 c 0
 507 -13 455 -65 392 -65 c 0
 391 -65 390 -65 390 -65 c 1
 346 -65 l 2
 255 -65 161 -12 124 61 c 0xa0
 86 134 86 205 86 278 c 2
 86 1625 l 2
 86 1626 86 1626 86 1627 c 0
 86 1689 137 1741 199 1742 c 0xc0
EndSplineSet
EndChar

StartChar: m
Encoding: 109 109 80
Width: 1504
Flags: MW
HStem: 995 235<482 534 1017 1067.5>
VStem: 100 253<-22.5 0 -22.5 151 -22.5 930> 621 251 1155 251<-1 0 -33.5 798>
LayerCount: 2
Fore
SplineSet
213 1282 m 2
 213 1282 214 1282 215 1282 c 0
 263 1282 313 1243 326 1196 c 1
 371 1217 423 1230 482 1230 c 2
 541 1230 l 2
 637 1230 716 1190 770 1138 c 1
 830 1188 911 1230 1017 1230 c 2
 1076 1230 l 2
 1216 1230 1320 1144 1363 1060 c 0
 1405 977 1407 902 1407 869 c 1
 1407 869 l 1
 1407 869 l 1
 1406 0 l 2
 1406 -1 1406 -1 1406 -2 c 0
 1406 -65 1355 -117 1291 -117 c 0
 1272 -117 1244 -108 1228 -98 c 1
 1188 -86 1155 -43 1155 -1 c 2
 1155 -1 1155 0 1155 0 c 1
 1155 798 l 2
 1155 850 1151 910 1135 943 c 0
 1119 976 1110 995 1025 995 c 0
 986 995 948 977 915 953 c 0
 897 938 882 922 872 908 c 1
 873 894 873 882 873 873 c 2
 873 0 l 1
 873 0 873 -1 873 -2 c 0
 873 -65 821 -117 758 -117 c 0
 739 -117 711 -108 695 -98 c 1
 654 -86 621 -43 621 -1 c 1
 621 -1 622 0 622 0 c 1
 622 798 l 2
 622 820 621 842 619 864 c 0
 617 870 616 880 616 886 c 0
 613 908 608 928 601 943 c 0
 586 976 577 995 491 995 c 0
 467 995 447 992 429 988 c 0
 399 974 372 952 352 931 c 1
 352 0 l 2
 353 0 353 -1 353 -1 c 1
 353 -44 319 -88 277 -98 c 1
 261 -108 233 -116 215 -116 c 0
 151 -116 100 -65 100 -1 c 2
 100 -1 100 0 100 0 c 1
 100 151 l 1
 100 930 l 2
 99 933 99 938 99 941 c 0
 99 944 99 949 100 952 c 2
 100 960 l 1
 100 1165 l 1
 100 1165 100 1166 100 1167 c 0
 100 1229 150 1281 213 1282 c 2
EndSplineSet
EndChar

StartChar: n
Encoding: 110 110 81
Width: 1024
Flags: W
HStem: 995 235<546.5 556 556 580 580 588 588 590 521 594.5>
VStem: 100 230<869 1165 1162 1165 1162 1165 1165 1167 1166.5 1167 1162 1198> 100 253<-22.5 0 -22.5 151 -22.5 829> 667 251
LayerCount: 2
Fore
SplineSet
213 1282 m 2xd0
 213 1282 214 1282 215 1282 c 0
 278 1282 330 1230 330 1167 c 0xd0
 330 1166 330 1165 330 1165 c 1
 330 1162 l 1
 380 1201 442 1230 521 1230 c 2
 521 1230 522 1230 522 1230 c 1
 522 1230 539 1230 556 1230 c 0
 565 1230 573 1230 580 1230 c 0
 583 1230 586 1230 588 1230 c 0
 590 1230 599 1230 590 1230 c 1
 723 1230 827 1155 872 1072 c 0
 917 990 919 910 919 863 c 2
 919 0 l 1
 919 0 919 -1 919 -2 c 0
 919 -65 867 -117 804 -117 c 0
 785 -117 757 -108 741 -98 c 1
 700 -86 667 -43 667 -1 c 1
 667 -1 668 0 668 0 c 1
 668 798 l 2
 668 857 662 919 647 951 c 0
 632 983 629 995 560 995 c 0
 533 995 508 989 486 981 c 1
 461 964 427 939 399 907 c 0
 381 887 366 867 352 850 c 1
 352 0 l 2
 353 0 353 -1 353 -1 c 1
 353 -44 319 -88 277 -98 c 1
 261 -108 233 -116 215 -116 c 0
 151 -116 100 -65 100 -1 c 2xb0
 100 -1 100 0 100 0 c 1
 100 151 l 1
 100 829 l 2
 99 835 98 844 98 849 c 0
 98 855 99 864 100 869 c 2
 100 960 l 1
 100 1165 l 1
 100 1165 100 1166 100 1167 c 0
 100 1229 150 1281 213 1282 c 2xd0
EndSplineSet
EndChar

StartChar: o
Encoding: 111 111 82
Width: 1040
Flags: MW
HStem: -83 233 996 235<514 514 514 514>
VStem: 65 248<489.5 665.5> 714 247<489.5 665.5 489.5 669>
LayerCount: 2
Fore
SplineSet
471 1231 m 2
 555 1231 l 2
 694 1231 813 1143 875 1023 c 0
 938 904 961 753 961 578 c 0
 961 401 935 246 864 124 c 0
 794 1 662 -84 512 -83 c 0
 363 -82 233 2 162 125 c 0
 91 247 65 401 65 578 c 0
 65 753 89 903 151 1022 c 0
 213 1141 332 1229 469 1231 c 2
 469 1231 470 1231 471 1231 c 2
514 996 m 1
 448 997 415 983 379 927 c 0
 343 871 313 759 313 578 c 0
 313 396 342 281 378 223 c 0
 413 165 445 151 514 151 c 0
 582 151 613 165 649 223 c 0
 685 281 714 396 714 578 c 0
 714 760 685 873 650 928 c 0
 616 983 585 996 514 996 c 1
 514 996 514 996 514 996 c 1
EndSplineSet
EndChar

StartChar: p
Encoding: 112 112 83
Width: 1016
Flags: W
HStem: -85 250<502 544 502 611> 995 235<527 535 535 536 536 556>
VStem: 96 230<1159 1165 1159 1165 1165 1167 1166.5 1167 1159 1198> 96 253<-286 -285 -285 -41 254 868 868 891> 693 263<531 684 515 706.5>
LayerCount: 2
Fore
SplineSet
209 1282 m 0xe8
 210 1282 210 1282 211 1282 c 0
 274 1282 326 1230 326 1167 c 0xe8
 326 1166 326 1165 326 1165 c 1
 326 1159 l 1
 348 1174 370 1187 393 1198 c 0
 425 1215 455 1230 507 1230 c 1
 507 1230 l 1
 507 1230 508 1230 508 1230 c 1
 603 1230 l 1
 602 1230 l 2
 731 1230 838 1136 888 1021 c 0
 939 907 956 767 956 601 c 0
 956 429 930 272 868 145 c 0
 805 18 685 -85 537 -85 c 0
 466 -85 403 -67 349 -41 c 1
 349 -285 l 1
 349 -285 349 -286 349 -286 c 2
 349 -330 315 -374 272 -384 c 1
 257 -393 229 -401 211 -401 c 0
 147 -401 96 -350 96 -286 c 2xd8
 96 -286 96 -285 96 -285 c 1
 96 868 l 1
 96 904 l 2
 95 908 95 916 95 920 c 0
 95 925 95 933 96 937 c 2
 96 1165 l 1
 96 1165 96 1166 96 1167 c 0
 96 1229 147 1281 209 1282 c 0xe8
556 995 m 0
 550 995 543 995 536 995 c 2
 536 995 535 995 535 995 c 2
 519 995 499 991 478 983 c 0
 464 975 447 964 429 952 c 0
 403 933 375 912 349 891 c 1
 349 868 l 1
 349 254 l 1
 379 227 420 193 461 170 c 1
 476 167 493 165 511 165 c 0
 577 165 605 189 639 263 c 0
 674 337 693 460 693 602 c 0
 693 811 662 918 636 956 c 0
 613 990 599 995 556 995 c 0
EndSplineSet
EndChar

StartChar: q
Encoding: 113 113 84
Width: 1016
Flags: MW
HStem: -85 250<499 517.5 460 531.5> 996 236<458.5 510.5>
VStem: 52 255<512 665 512 665.5> 668 253<-286 -285 -285 -143 -143 -41 -41 -41 276 288 293 795 805 851 851 851>
LayerCount: 2
Fore
SplineSet
805 1282 m 2
 805 1282 806 1282 806 1282 c 2
 870 1282 921 1230 921 1167 c 0
 921 1166 921 1165 921 1165 c 1
 921 972 l 1
 921 805 l 2
 922 803 922 801 922 799 c 0
 922 797 922 796 921 795 c 2
 921 293 l 1
 921 293 922 291 922 291 c 2
 922 290 921 289 921 288 c 2
 921 -143 l 1
 921 -285 l 1
 921 -285 921 -286 921 -287 c 0
 921 -350 870 -402 806 -402 c 0
 788 -402 760 -393 745 -384 c 1
 702 -373 668 -330 668 -286 c 2
 668 -286 668 -285 668 -285 c 1
 668 -143 l 1
 668 -41 l 1
 620 -67 564 -85 499 -85 c 0
 362 -87 237 -7 162 113 c 0
 88 233 52 391 52 580 c 0
 52 751 76 899 134 1018 c 0
 191 1136 300 1232 434 1232 c 2
 518 1232 l 2
 586 1232 644 1210 692 1178 c 1
 698 1234 748 1281 805 1282 c 2
492 996 m 0
 425 996 398 981 365 923 c 0
 332 864 307 749 307 581 c 0
 307 443 329 327 365 257 c 0
 400 187 430 165 490 165 c 0
 545 165 594 194 629 223 c 0
 632 226 634 229 637 232 c 0
 649 247 659 262 668 276 c 1
 668 851 l 1
 659 870 648 891 635 910 c 0
 620 933 604 952 588 967 c 1
 561 984 529 996 492 996 c 0
EndSplineSet
EndChar

StartChar: r
Encoding: 114 114 85
Width: 712
Flags: W
HStem: 995 235<541 560 560 670 670 671>
VStem: 100 230<864 1167 960 1167 1165 1167 1166.5 1167 1165 1198> 100 253<-22.5 0 -22.5 151 -22.5 838>
LayerCount: 2
Fore
SplineSet
213 1282 m 2xc0
 213 1282 214 1282 215 1282 c 0
 278 1282 330 1230 330 1167 c 0xc0
 330 1166 330 1165 330 1165 c 1
 330 1165 l 1
 381 1202 444 1230 521 1230 c 2
 670 1230 l 1
 670 1230 671 1230 671 1230 c 2
 735 1230 786 1178 786 1115 c 0
 786 1084 767 1043 742 1024 c 0
 726 1008 694 995 671 995 c 2
 671 995 670 995 670 995 c 1
 560 995 l 2
 522 995 488 984 458 968 c 1
 438 952 415 932 395 909 c 0
 379 890 364 871 352 854 c 1
 352 0 l 2
 353 0 353 -1 353 -1 c 1
 353 -44 319 -88 277 -98 c 1
 261 -108 233 -116 215 -116 c 0
 151 -116 100 -65 100 -1 c 2xa0
 100 -1 100 0 100 0 c 1
 100 151 l 1
 100 838 l 2
 99 841 99 847 99 851 c 0
 99 854 99 860 100 864 c 2
 100 960 l 1
 100 1165 l 1
 100 1165 100 1166 100 1167 c 0
 100 1229 150 1281 213 1282 c 2xc0
EndSplineSet
EndChar

StartChar: s
Encoding: 115 115 86
Width: 944
Flags: W
HStem: -85 256<442 481 481 484> 995 235<404 450>
VStem: 58 262 607 259<788 820 788 820> 632 243<278.5 339>
LayerCount: 2
Fore
SplineSet
486 1230 m 2xe8
 695 1230 865 1047 866 822 c 0
 866 821 866 820 866 820 c 2
 866 756 815 705 751 705 c 0
 734 705 707 712 692 721 c 1
 645 728 607 772 607 820 c 1xf0
 607 820 607 820 607 820 c 1
 606 864 595 912 573 942 c 0
 551 972 524 993 450 995 c 0
 353 995 309 944 309 860 c 0
 309 808 322 784 345 762 c 1
 370 746 411 730 468 715 c 0
 469 714 470 714 471 714 c 2
 588 679 l 1
 588 679 587 679 586 680 c 2
 589 679 l 1
 588 679 l 1
 669 657 743 618 796 556 c 0
 849 492 875 409 875 322 c 0
 875 186 826 74 746 5 c 0
 667 -63 570 -84 484 -85 c 0
 483 -85 481 -85 481 -85 c 2
 325 -85 203 -14 138 79 c 0
 73 172 58 275 58 356 c 2
 58 356 58 357 58 357 c 2
 58 421 109 473 173 473 c 0
 190 473 216 465 231 457 c 1
 280 451 319 406 319 357 c 2
 319 357 319 356 319 356 c 2
 319 322 326 268 347 233 c 0
 368 198 393 171 491 171 c 0
 506 171 551 179 580 199 c 0
 610 219 632 242 632 315 c 0
 632 363 619 402 591 431 c 0
 576 441 555 450 527 457 c 0
 526 458 525 458 524 458 c 2
 406 493 l 2
 325 515 244 541 175 602 c 0
 106 665 66 764 66 876 c 0
 66 994 123 1090 191 1147 c 0
 259 1204 331 1230 404 1230 c 2
 486 1230 l 2xe8
EndSplineSet
EndChar

StartChar: t
Encoding: 116 116 87
Width: 720
Flags: W
HStem: -65 265<315 580 371 580 371 580 580 581 581 582> 996 230<-8.5 25 23 25 25 100 352 552 552 553>
VStem: 100 251 138 559
LayerCount: 2
Fore
SplineSet
214 1742 m 2xe0
 214 1742 215 1742 215 1742 c 2
 234 1742 263 1733 279 1723 c 1
 319 1712 352 1668 352 1627 c 0xe0
 352 1626 352 1626 352 1625 c 2
 352 1226 l 1
 552 1226 l 1
 552 1226 553 1226 553 1226 c 2
 617 1226 668 1174 668 1111 c 0
 668 1047 617 996 553 996 c 2
 553 996 552 996 552 996 c 1
 352 996 l 1
 352 224 l 2
 352 212 352 206 353 201 c 0
 357 200 363 200 371 200 c 2
 580 200 l 1
 580 200 581 200 581 200 c 2
 632 200 677 159 681 108 c 1
 690 93 697 67 697 50 c 0
 697 -13 645 -65 582 -65 c 0
 581 -65 580 -65 580 -65 c 1
 361 -65 l 2
 269 -65 175 -12 138 61 c 0xd0
 101 134 100 205 100 278 c 2
 100 996 l 1
 25 996 l 2
 24 996 23 996 23 996 c 2
 -40 996 -92 1047 -92 1111 c 0
 -92 1174 -40 1226 23 1226 c 2
 23 1226 24 1226 25 1226 c 2
 100 1226 l 1
 100 1625 l 2
 100 1626 100 1626 100 1627 c 0
 100 1689 151 1741 214 1742 c 2xe0
EndSplineSet
EndChar

StartChar: u
Encoding: 117 117 88
Width: 1024
Flags: W
HStem: -85 250<428.5 479 428.5 494.5>
VStem: 104 251<335 365 365 1163 1163 1164> 670 253<338 339 377 1012 1012 1163 1163 1164> 693 230<-2 -1.5 -1.5 0 0 9 9 9>
LayerCount: 2
Fore
SplineSet
217 1279 m 2xd0
 217 1279 218 1279 219 1279 c 0
 238 1279 266 1271 282 1260 c 1
 322 1249 355 1206 355 1164 c 2
 355 1164 355 1163 355 1163 c 1
 355 365 l 2
 355 305 361 243 376 210 c 0
 391 177 394 165 463 165 c 0
 495 165 525 177 553 194 c 1
 576 213 599 237 620 263 c 0
 640 290 657 316 670 338 c 1
 670 1163 l 1
 670 1163 670 1164 670 1164 c 2
 670 1207 704 1251 746 1261 c 1
 761 1271 788 1279 806 1279 c 0
 807 1279 807 1279 808 1279 c 0
 871 1279 923 1228 923 1164 c 2xe0
 923 1164 923 1163 923 1163 c 1
 923 1012 l 1
 923 377 l 2
 924 372 924 363 924 358 c 0
 924 353 924 344 923 339 c 2
 923 203 l 1
 923 0 l 1
 923 0 923 -1 923 -2 c 0
 923 -65 871 -117 808 -117 c 0
 744 -117 693 -65 693 -2 c 0
 693 -1 693 0 693 0 c 1
 693 9 l 1
 627 -44 545 -85 444 -85 c 0
 305 -85 197 -4 152 82 c 0
 107 169 104 252 104 300 c 2
 104 1163 l 1
 104 1163 104 1164 104 1164 c 2
 104 1227 154 1278 217 1279 c 2xd0
EndSplineSet
EndChar

StartChar: v
Encoding: 118 118 89
Width: 976
Flags: W
HStem: 1156 20G
VStem: 7 262<1165 1180 1179 1180 1179 1198> 270 0<1165 1165 1166 1166 1175 1175 1177 1177> 270 1 702 0<1165 1165 1166 1166 1172 1172> 702 1
LayerCount: 2
Fore
SplineSet
120 1282 m 1xc8
 120 1282 121 1282 121 1282 c 2
 139 1282 165 1275 180 1266 c 1
 223 1262 263 1223 269 1180 c 1
 269 1180 269 1179 269 1179 c 1
 269 1179 269 1178 270 1177 c 0
 270 1174 270 1169 270 1166 c 2
 270 1166 270 1165 270 1165 c 2
 270 1170 270 1173 270 1175 c 1xe8
 270 1174 270 1173 271 1171 c 0
 273 1163 276 1150 280 1134 c 0
 288 1102 300 1058 314 1005 c 0
 342 900 380 761 417 624 c 0
 442 533 464 455 486 374 c 1
 508 456 530 534 555 626 c 0
 593 764 630 902 659 1008 c 0
 673 1060 684 1105 693 1136 c 0
 697 1152 700 1164 702 1172 c 0xd4
 702 1174 702 1174 703 1176 c 1
 702 1173 702 1170 702 1165 c 2
 702 1165 702 1165 702 1166 c 0
 702 1169 703 1175 703 1179 c 2
 703 1179 704 1180 704 1181 c 2
 704 1181 704 1181 704 1182 c 0
 710 1225 751 1262 794 1266 c 1
 809 1274 834 1281 851 1281 c 0
 914 1281 966 1229 966 1166 c 2
 966 1166 966 1165 966 1165 c 2
 966 1135 964 1142 963 1139 c 0
 962 1136 962 1135 961 1133 c 0
 960 1129 959 1125 958 1120 c 0
 955 1110 952 1098 947 1082 c 0
 938 1050 925 1006 910 953 c 0
 879 848 838 709 797 570 c 0
 715 293 633 17 633 17 c 2
 620 -28 570 -65 523 -65 c 2
 450 -65 l 2
 402 -65 353 -28 339 17 c 2
 339 17 257 293 175 570 c 0
 134 709 93 848 63 953 c 0
 47 1006 34 1050 25 1082 c 0
 21 1098 17 1110 14 1120 c 0
 13 1125 12 1129 11 1133 c 0
 11 1135 10 1136 10 1139 c 0
 9 1142 7 1135 7 1165 c 2
 7 1165 7 1166 7 1167 c 0
 7 1229 57 1281 120 1282 c 1
 120 1282 120 1282 120 1282 c 1xc8
EndSplineSet
EndChar

StartChar: w
Encoding: 119 119 90
Width: 1328
Flags: W
VStem: 270 1 1063 1 1064 0<1165 1165 1166 1166 1171 1171>
LayerCount: 2
Fore
SplineSet
120 1282 m 2xa0
 120 1282 121 1282 121 1282 c 2
 139 1282 165 1275 179 1266 c 1
 230 1261 270 1217 270 1166 c 2
 270 1166 270 1165 270 1165 c 2
 270 1169 270 1170 270 1171 c 1
 270 1169 271 1166 271 1162 c 0
 272 1153 274 1140 277 1124 c 0
 282 1093 289 1048 297 995 c 0
 314 890 337 751 360 614 c 0
 378 506 380 490 395 399 c 1
 495 1129 l 2
 500 1167 535 1204 573 1213 c 1
 588 1222 615 1230 633 1230 c 2
 701 1230 l 2
 719 1230 747 1222 762 1213 c 1
 799 1204 834 1167 839 1129 c 2
 940 394 l 1
 955 486 958 503 976 613 c 0
 998 751 1021 889 1038 995 c 0
 1046 1048 1053 1092 1058 1124 c 0
 1060 1140 1062 1153 1063 1162 c 0xc0
 1064 1166 1064 1169 1064 1171 c 1
 1064 1170 1064 1169 1064 1165 c 2
 1064 1165 1064 1166 1064 1166 c 2
 1064 1167 1064 1169 1064 1171 c 2
 1064 1171 1065 1171 1065 1171 c 2
 1065 1172 1065 1172 1065 1172 c 2
 1067 1219 1108 1261 1154 1266 c 1
 1169 1274 1195 1282 1213 1282 c 0
 1276 1282 1328 1230 1328 1167 c 0
 1328 1166 1328 1165 1328 1165 c 2
 1328 1132 1326 1140 1324 1129 c 0
 1322 1118 1320 1104 1317 1087 c 0
 1311 1054 1302 1009 1292 956 c 0
 1272 849 1245 711 1219 573 c 0
 1165 298 1112 28 1112 28 c 2
 1102 -23 1051 -65 999 -65 c 2
 872 -65 l 2
 817 -65 767 -22 758 32 c 2
 667 599 l 1
 576 32 l 2
 568 -22 517 -65 463 -65 c 2
 336 -65 l 2
 283 -65 233 -23 223 28 c 2
 223 28 169 300 116 576 c 0
 89 714 62 852 42 958 c 0
 32 1011 24 1056 18 1089 c 0
 15 1106 12 1119 11 1129 c 0
 10 1135 9 1139 9 1143 c 0
 8 1147 7 1144 7 1165 c 2
 7 1165 7 1166 7 1167 c 0
 7 1229 57 1281 120 1282 c 2xa0
EndSplineSet
EndChar

StartChar: x
Encoding: 120 120 91
Width: 944
Flags: MW
HStem: -20 20G<47 47 642 642 907 907>
LayerCount: 2
Fore
SplineSet
160 1282 m 2
 160 1282 161 1282 161 1282 c 2
 178 1282 204 1275 219 1266 c 1
 259 1264 300 1231 311 1192 c 1
 310 1192 310 1192 310 1192 c 1
 310 1192 311 1189 312 1188 c 0
 313 1182 314 1172 314 1166 c 2
 314 1166 314 1165 314 1165 c 2
 314 1174 314 1179 314 1183 c 1
 317 1175 322 1163 329 1147 c 0
 343 1115 363 1069 388 1015 c 0
 411 964 438 905 466 843 c 0
 470 836 473 829 477 823 c 1
 480 829 484 836 488 843 c 0
 516 905 543 964 566 1015 c 0
 591 1069 611 1115 625 1147 c 0
 632 1163 637 1175 640 1183 c 1
 640 1181 640 1177 640 1173 c 1
 640 1177 641 1184 642 1188 c 0
 643 1189 644 1192 644 1192 c 1
 644 1192 643 1192 643 1193 c 0
 654 1231 695 1264 735 1266 c 1
 749 1274 774 1281 791 1282 c 2
 791 1282 792 1282 792 1282 c 2
 856 1282 907 1230 907 1167 c 0
 907 1166 907 1165 907 1165 c 2
 907 1136 903 1134 902 1130 c 0
 900 1125 899 1122 898 1120 c 0
 897 1116 896 1114 894 1112 c 0
 892 1107 890 1103 888 1098 c 0
 882 1087 875 1074 867 1058 c 0
 849 1025 824 979 795 925 c 0
 743 830 676 708 608 584 c 1
 677 459 743 337 795 242 c 0
 824 187 849 141 867 108 c 0
 876 91 883 78 888 67 c 0
 891 62 893 57 895 52 c 0
 896 50 898 47 899 42 c 0
 901 38 907 45 907 0 c 2
 907 0 907 -1 907 -1 c 2
 907 -65 856 -116 792 -116 c 0
 775 -116 750 -109 735 -101 c 1
 697 -99 657 -67 646 -30 c 1
 647 -30 647 -30 647 -30 c 1
 647 -30 646 -29 646 -28 c 0
 644 -21 642 -9 642 -1 c 2
 642 -1 642 0 642 0 c 2
 642 -10 642 -16 643 -21 c 1
 639 -13 635 -2 628 12 c 0
 614 44 593 89 569 142 c 0
 542 200 511 269 477 341 c 1
 443 269 412 200 385 142 c 0
 361 89 340 44 326 12 c 0
 319 -2 315 -13 311 -21 c 1
 311 -18 312 -13 312 -8 c 1
 311 -13 310 -22 308 -27 c 0
 308 -29 307 -30 307 -30 c 1
 307 -30 307 -30 308 -30 c 1
 297 -66 257 -98 220 -101 c 1
 205 -109 179 -116 162 -116 c 0
 98 -116 47 -65 47 -1 c 2
 47 -1 47 0 47 0 c 2
 47 45 53 38 55 42 c 0
 56 47 58 50 59 52 c 0
 61 57 63 62 66 67 c 0
 71 78 78 91 87 108 c 0
 105 141 130 187 159 242 c 0
 211 337 277 459 346 584 c 1
 278 708 211 830 159 925 c 0
 130 979 105 1025 87 1058 c 0
 79 1074 72 1087 66 1098 c 0
 64 1103 62 1107 59 1112 c 0
 58 1114 57 1116 56 1120 c 0
 55 1122 54 1125 52 1130 c 0
 51 1134 47 1136 47 1165 c 2
 47 1165 47 1166 47 1167 c 0
 47 1229 97 1281 160 1282 c 2
EndSplineSet
EndChar

StartChar: y
Encoding: 121 121 92
Width: 976
Flags: W
VStem: 286 0<1165 1165 1166 1166 1180 1180> 286 4<1166 1166> 432 1 665 8 673 0<1172 1172 1179 1179>
LayerCount: 2
Fore
SplineSet
132 1282 m 2x20
 132 1282 133 1282 133 1282 c 2
 150 1282 176 1275 190 1266 c 1
 232 1264 274 1230 283 1189 c 0
 283 1188 283 1188 283 1188 c 2
 283 1189 283 1187 284 1186 c 0
 284 1185 284 1184 284 1184 c 2
 285 1179 286 1171 286 1166 c 2
 286 1166 286 1165 286 1165 c 2
 286 1172 286 1177 286 1180 c 1xa0
 287 1176 288 1173 290 1167 c 0
 296 1150 304 1125 315 1094 c 0
 336 1034 365 950 398 858 c 0
 425 782 454 700 483 620 c 0
 487 609 492 598 497 587 c 1
 511 636 527 688 543 741 c 0
 576 852 610 964 635 1048 c 0
 647 1090 658 1126 665 1151 c 0x50
 668 1163 671 1173 673 1179 c 1
 673 1177 673 1175 673 1172 c 1
 673 1175 673 1179 674 1182 c 0
 674 1183 674 1184 674 1184 c 1
 674 1184 674 1184 674 1184 c 1
 682 1227 724 1264 768 1266 c 1
 782 1274 807 1281 823 1282 c 0
 824 1282 824 1282 825 1282 c 0
 888 1282 940 1230 940 1167 c 0
 940 1166 940 1165 940 1165 c 2
 940 1136 937 1140 936 1136 c 0
 935 1132 935 1129 934 1127 c 0
 932 1122 931 1116 929 1110 c 0
 925 1097 919 1081 912 1060 c 0
 898 1019 878 962 854 894 c 0
 806 758 743 580 679 401 c 0
 616 223 553 44 505 -91 c 0
 481 -158 462 -215 448 -255 c 0
 441 -275 436 -291 432 -301 c 0x28
 432 -302 432 -303 432 -304 c 1
 432 -302 432 -298 432 -293 c 1
 432 -298 431 -304 430 -308 c 0
 430 -309 430 -310 429 -311 c 1
 429 -310 430 -310 430 -310 c 1
 419 -360 368 -401 317 -401 c 0
 301 -401 276 -394 261 -386 c 1
 208 -384 165 -339 165 -286 c 2
 165 -286 165 -285 165 -285 c 2
 165 -258 168 -260 169 -257 c 0
 170 -253 170 -251 171 -250 c 0
 172 -246 173 -244 174 -241 c 0
 177 -235 179 -228 183 -220 c 0
 190 -204 199 -181 210 -155 c 0
 233 -103 263 -34 293 35 c 0
 317 89 339 139 358 183 c 0
 367 208 375 232 385 258 c 1
 324 405 239 606 167 777 c 0
 128 870 93 953 68 1016 c 0
 55 1047 45 1072 37 1092 c 0
 33 1102 30 1110 27 1117 c 0
 26 1121 25 1125 24 1130 c 0
 22 1135 18 1132 18 1165 c 2
 18 1165 18 1166 18 1167 c 0
 18 1229 69 1281 132 1282 c 2x20
EndSplineSet
EndChar

StartChar: z
Encoding: 122 122 93
Width: 936
Flags: MW
HStem: -65 245<95 846 318 846 318 846 846 847 847 848> 995 235<63.5 77 75 76 76 77 77 604>
LayerCount: 2
Fore
SplineSet
77 1230 m 2
 796 1230 l 2
 860 1230 911 1178 911 1115 c 2
 911 1040 l 2
 911 1019 901 989 889 972 c 2
 377 273 l 1
 318 180 l 1
 846 180 l 1
 846 180 847 180 847 180 c 2
 883 180 924 153 938 120 c 1
 952 103 963 72 963 50 c 0
 963 -13 911 -65 848 -65 c 0
 847 -65 847 -65 846 -65 c 2
 127 -65 l 2
 63 -65 12 -13 12 50 c 2
 12 125 l 2
 12 146 22 176 34 193 c 2
 483 807 l 1
 604 995 l 1
 76 995 l 1
 76 995 75 995 75 995 c 2
 52 995 19 1009 3 1025 c 0
 -21 1044 -40 1085 -40 1115 c 0
 -40 1178 12 1230 75 1230 c 0
 76 1230 76 1230 77 1230 c 2
EndSplineSet
EndChar

StartChar: braceleft
Encoding: 123 123 94
Width: 480
Flags: W
LayerCount: 2
Fore
SplineSet
32 704 m 1
 32 784 l 1
 117 795 152 859 136 976 c 1
 136 1384 l 2
 136 1576 237 1672 440 1672 c 1
 440 1568 l 1
 333 1568 280 1507 280 1384 c 2
 280 976 l 2
 280 864 240 787 160 744 c 1
 240 696 280 619 280 512 c 2
 280 64 l 2
 280 -59 333 -120 440 -120 c 1
 440 -216 l 1
 237 -216 136 -123 136 64 c 2
 136 512 l 1
 147 624 112 688 32 704 c 1
EndSplineSet
EndChar

StartChar: bar
Encoding: 124 124 95
Width: 480
Flags: W
LayerCount: 2
Fore
SplineSet
168 -176 m 1
 168 1664 l 1
 312 1664 l 1
 312 -176 l 1
 168 -176 l 1
EndSplineSet
EndChar

StartChar: braceright
Encoding: 125 125 96
Width: 480
Flags: W
LayerCount: 2
Fore
SplineSet
40 -112 m 1
 147 -112 200 -51 200 72 c 2
 200 480 l 2
 200 592 243 669 328 712 c 1
 243 760 200 837 200 944 c 2
 200 1392 l 2
 200 1515 147 1576 40 1576 c 1
 40 1672 l 1
 248 1672 352 1579 352 1392 c 2
 352 944 l 1
 336 832 368 768 448 752 c 1
 448 672 l 1
 368 661 336 597 352 480 c 1
 352 72 l 2
 352 -120 248 -216 40 -216 c 1
 40 -112 l 1
EndSplineSet
EndChar

StartChar: asciitilde
Encoding: 126 126 97
Width: 848
Flags: W
LayerCount: 2
Fore
SplineSet
80 1408 m 1
 155 1568 264 1603 408 1512 c 1
 499 1437 576 1448 640 1544 c 1
 736 1440 l 1
 661 1296 547 1267 392 1352 c 1
 301 1416 229 1405 176 1320 c 1
 80 1408 l 1
EndSplineSet
EndChar

StartChar: exclamdown
Encoding: 161 161 99
Width: 448
Flags: W
LayerCount: 2
Fore
SplineSet
136 -152 m 1
 160 1096 l 1
 288 1096 l 1
 312 -152 l 1
 136 -152 l 1
152 1360 m 1
 152 1624 l 1
 304 1624 l 1
 304 1360 l 1
 152 1360 l 1
EndSplineSet
EndChar

StartChar: cent
Encoding: 162 162 100
Width: 1024
Flags: W
LayerCount: 2
Fore
SplineSet
104 816 m 0
 104 987 143 1119 220 1212 c 0
 297 1305 392 1352 504 1352 c 0
 536 1352 565 1349 592 1344 c 1
 624 1496 l 1
 696 1480 l 1
 656 1328 l 1
 736 1301 797 1257 840 1196 c 0
 883 1135 909 1056 920 960 c 1
 760 960 l 1
 749 1019 733 1068 712 1108 c 0
 691 1148 661 1173 624 1184 c 1
 448 432 l 1
 475 427 499 424 520 424 c 0
 579 424 631 441 676 476 c 0
 721 511 749 560 760 624 c 1
 912 624 l 1
 901 528 860 447 788 380 c 0
 716 313 627 280 520 280 c 0
 483 280 448 283 416 288 c 1
 360 40 l 1
 288 56 l 1
 352 320 l 1
 283 347 224 403 176 488 c 0
 128 573 104 683 104 816 c 0
248 808 m 0
 248 723 259 653 280 600 c 0
 301 547 336 504 384 472 c 1
 560 1200 l 1
 504 1200 l 2
 435 1200 375 1169 324 1108 c 0
 273 1047 248 947 248 808 c 0
EndSplineSet
EndChar

StartChar: sterling
Encoding: 163 163 101
Width: 1368
Flags: W
LayerCount: 2
Fore
SplineSet
72 216 m 0
 72 307 99 368 152 400 c 0
 205 432 267 448 336 448 c 0
 421 448 515 413 616 344 c 1
 621 365 624 387 624 408 c 0
 624 536 592 659 528 776 c 1
 208 776 l 1
 208 896 l 1
 472 896 l 1
 435 971 416 1051 416 1136 c 0
 416 1264 447 1365 508 1440 c 0
 569 1515 661 1552 784 1552 c 0
 901 1552 993 1521 1060 1460 c 0
 1127 1399 1160 1328 1160 1248 c 1
 960 1248 l 1
 960 1285 947 1321 920 1356 c 0
 893 1391 848 1408 784 1408 c 0
 720 1408 673 1381 644 1328 c 0
 615 1275 600 1211 600 1136 c 0
 600 1061 621 981 664 896 c 1
 1064 896 l 1
 1064 776 l 1
 736 776 l 1
 800 643 832 523 832 416 c 0
 832 357 816 296 784 232 c 1
 848 184 901 160 944 160 c 0
 997 160 1041 179 1076 216 c 0
 1111 253 1128 344 1128 488 c 1
 1296 440 l 1
 1296 259 1265 140 1204 84 c 0
 1143 28 1061 0 960 0 c 0
 880 0 789 32 688 96 c 1
 624 32 515 0 360 0 c 0
 285 0 219 19 160 56 c 0
 101 93 72 147 72 216 c 0
240 216 m 0
 240 163 280 133 360 128 c 1
 440 128 504 157 552 216 c 1
 477 275 405 304 336 304 c 0
 272 304 240 275 240 216 c 0
EndSplineSet
EndChar

StartChar: currency
Encoding: 164 164 102
Width: 1048
Flags: W
LayerCount: 2
Fore
SplineSet
120 64 m 1
 256 328 l 1
 213 435 189 571 184 736 c 1
 184 880 208 1016 256 1144 c 1
 120 1400 l 1
 192 1536 l 1
 328 1272 l 1
 387 1357 453 1400 528 1400 c 0
 608 1400 677 1355 736 1264 c 1
 872 1528 l 1
 944 1408 l 1
 808 1136 l 1
 851 1019 869 885 864 736 c 1
 864 587 843 453 800 336 c 1
 944 56 l 1
 880 -64 l 1
 736 208 l 1
 677 123 608 80 528 80 c 0
 453 80 384 120 320 200 c 1
 192 -64 l 1
 120 64 l 1
280 736 m 0
 280 571 304 448 352 368 c 0
 400 288 459 248 528 248 c 0
 613 248 676 300 716 404 c 0
 756 508 776 619 776 736 c 0
 776 880 753 996 708 1084 c 0
 663 1172 603 1216 528 1216 c 0
 448 1216 387 1169 344 1076 c 0
 301 983 280 869 280 736 c 0
EndSplineSet
EndChar

StartChar: yen
Encoding: 165 165 103
Width: 1208
Flags: W
LayerCount: 2
Fore
SplineSet
104 1552 m 1
 296 1552 l 1
 608 976 l 1
 920 1552 l 1
 1104 1552 l 1
 736 864 l 1
 1080 864 l 1
 1080 736 l 1
 696 736 l 1
 696 448 l 1
 1080 448 l 1
 1080 320 l 1
 696 320 l 1
 696 0 l 1
 520 0 l 1
 520 320 l 1
 128 320 l 1
 128 448 l 1
 520 448 l 1
 520 736 l 1
 128 736 l 1
 128 864 l 1
 480 864 l 1
 104 1552 l 1
EndSplineSet
EndChar

StartChar: brokenbar
Encoding: 166 166 104
Width: 464
Flags: W
LayerCount: 2
Fore
SplineSet
192 -152 m 1
 192 1624 l 1
 272 1624 l 1
 272 -152 l 1
 192 -152 l 1
EndSplineSet
EndChar

StartChar: section
Encoding: 167 167 105
Width: 2048
Flags: W
LayerCount: 2
Fore
SplineSet
328 232 m 1
 544 232 l 1
 565 67 728 -16 1032 -16 c 0
 1341 -16 1496 45 1496 168 c 0
 1496 227 1440 276 1328 316 c 0
 1216 356 1072 397 896 440 c 0
 672 493 521 544 444 592 c 0
 367 640 328 707 328 792 c 0
 328 872 424 952 616 1032 c 1
 472 1101 400 1187 400 1288 c 0
 400 1395 452 1477 556 1536 c 0
 660 1595 819 1624 1032 1624 c 0
 1459 1624 1685 1496 1712 1240 c 1
 1512 1240 l 1
 1507 1400 1347 1480 1032 1480 c 0
 755 1480 616 1416 616 1288 c 0
 616 1219 669 1165 776 1128 c 0
 883 1091 997 1059 1120 1032 c 1
 1328 973 1479 919 1572 868 c 0
 1665 817 1712 752 1712 672 c 0
 1712 576 1624 496 1448 432 c 1
 1619 368 1704 280 1704 168 c 0
 1704 72 1640 -5 1512 -64 c 0
 1384 -123 1224 -152 1032 -152 c 0
 600 -152 365 -24 328 232 c 1
536 792 m 0
 536 717 691 643 1000 568 c 2
 1256 504 l 1
 1416 547 1496 605 1496 680 c 0
 1496 755 1360 827 1088 896 c 2
 816 968 l 1
 629 915 536 856 536 792 c 0
EndSplineSet
EndChar

StartChar: dieresis
Encoding: 168 168 106
Width: 1024
Flags: W
LayerCount: 2
Fore
SplineSet
144 1312 m 1
 144 1552 l 1
 392 1552 l 1
 392 1312 l 1
 144 1312 l 1
640 1312 m 1
 640 1552 l 1
 888 1552 l 1
 888 1312 l 1
 640 1312 l 1
EndSplineSet
EndChar

StartChar: copyright
Encoding: 169 169 107
Width: 1368
Flags: W
LayerCount: 2
Fore
SplineSet
120 736 m 0
 120 928 177 1081 292 1196 c 0
 407 1311 536 1368 680 1368 c 0
 845 1368 980 1311 1084 1196 c 0
 1188 1081 1240 928 1240 736 c 0
 1240 560 1188 411 1084 288 c 0
 980 165 845 104 680 104 c 0
 515 104 380 165 276 288 c 0
 172 411 120 560 120 736 c 0
208 736 m 1
 213 576 260 447 348 348 c 0
 436 249 547 200 680 200 c 0
 813 200 927 251 1020 352 c 0
 1113 453 1160 581 1160 736 c 0
 1160 891 1113 1019 1020 1120 c 0
 927 1221 813 1272 680 1272 c 0
 547 1272 435 1220 344 1116 c 0
 253 1012 208 885 208 736 c 1
384 728 m 0
 384 813 413 889 472 956 c 0
 531 1023 600 1056 680 1056 c 0
 749 1056 808 1035 856 992 c 0
 904 949 936 888 952 808 c 1
 848 808 l 1
 837 861 819 900 792 924 c 0
 765 948 728 960 680 960 c 0
 632 960 588 940 548 900 c 0
 508 860 488 803 488 728 c 0
 488 653 507 595 544 552 c 0
 581 509 627 488 680 488 c 0
 728 488 767 503 796 532 c 0
 825 561 845 603 856 656 c 1
 960 656 l 1
 955 581 927 520 876 472 c 0
 825 424 760 400 680 400 c 0
 600 400 531 432 472 496 c 0
 413 560 384 637 384 728 c 0
EndSplineSet
EndChar

StartChar: ordfeminine
Encoding: 170 170 108
Width: 728
Flags: W
LayerCount: 2
Fore
SplineSet
216 1200 m 0
 216 1275 240 1329 288 1364 c 0
 336 1399 392 1419 456 1424 c 1
 456 1464 l 2
 456 1485 449 1507 436 1528 c 0
 423 1549 403 1560 376 1560 c 0
 349 1560 329 1551 316 1532 c 0
 303 1513 296 1491 296 1464 c 1
 232 1464 l 1
 232 1512 243 1551 264 1580 c 0
 285 1609 312 1624 344 1624 c 2
 400 1624 l 2
 437 1624 468 1607 492 1572 c 0
 516 1537 528 1491 528 1432 c 2
 528 1176 l 1
 544 1056 l 1
 472 1056 l 1
 464 1120 l 1
 448 1099 432 1083 416 1072 c 0
 400 1061 376 1056 344 1056 c 0
 301 1056 269 1069 248 1096 c 0
 227 1123 216 1157 216 1200 c 0
288 1208 m 0
 288 1181 293 1161 304 1148 c 0
 315 1135 328 1128 344 1128 c 0
 371 1128 392 1133 408 1144 c 0
 424 1155 440 1179 456 1216 c 1
 456 1352 l 1
 403 1347 361 1333 332 1312 c 0
 303 1291 288 1256 288 1208 c 0
EndSplineSet
EndChar

StartChar: guillemotleft
Encoding: 171 171 109
Width: 1368
Flags: W
LayerCount: 2
Fore
SplineSet
112 736 m 1
 856 1392 l 1
 928 1328 l 1
 256 736 l 1
 928 144 l 1
 856 72 l 1
 112 736 l 1
432 736 m 1
 1184 1392 l 1
 1256 1328 l 1
 584 736 l 1
 1256 144 l 1
 1184 72 l 1
 432 736 l 1
EndSplineSet
EndChar

StartChar: logicalnot
Encoding: 172 172 110
Width: 1312
Flags: W
LayerCount: 2
Fore
SplineSet
112 896 m 1
 112 1024 l 1
 1152 1024 l 1
 1152 520 l 1
 1000 520 l 1
 1000 896 l 1
 112 896 l 1
EndSplineSet
EndChar

StartChar: uni00AD
Encoding: 173 173 111
Width: 1032
Flags: W
LayerCount: 2
Fore
SplineSet
64 672 m 1
 64 808 l 1
 960 808 l 1
 960 672 l 1
 64 672 l 1
EndSplineSet
EndChar

StartChar: registered
Encoding: 174 174 112
Width: 1368
Flags: W
LayerCount: 2
Fore
SplineSet
120 736 m 0
 120 928 177 1081 292 1196 c 0
 407 1311 536 1368 680 1368 c 0
 845 1368 980 1311 1084 1196 c 0
 1188 1081 1240 928 1240 736 c 0
 1240 560 1188 411 1084 288 c 0
 980 165 845 104 680 104 c 0
 515 104 380 165 276 288 c 0
 172 411 120 560 120 736 c 0
208 736 m 1
 213 576 260 447 348 348 c 0
 436 249 547 200 680 200 c 0
 813 200 927 251 1020 352 c 0
 1113 453 1160 581 1160 736 c 0
 1160 891 1113 1019 1020 1120 c 0
 927 1221 813 1272 680 1272 c 0
 547 1272 435 1220 344 1116 c 0
 253 1012 208 885 208 736 c 1
480 376 m 1
 480 1104 l 1
 728 1104 l 2
 792 1104 841 1085 876 1048 c 0
 911 1011 928 968 928 920 c 0
 928 872 916 831 892 796 c 0
 868 761 824 741 760 736 c 1
 960 376 l 1
 864 376 l 1
 680 736 l 1
 552 736 l 1
 552 376 l 1
 480 376 l 1
552 800 m 1
 728 800 l 2
 760 800 787 809 808 828 c 0
 829 847 840 877 840 920 c 0
 840 957 829 985 808 1004 c 0
 787 1023 760 1032 728 1032 c 2
 552 1032 l 1
 552 800 l 1
EndSplineSet
EndChar

StartChar: macron
Encoding: 175 175 113
Width: 1368
Flags: W
LayerCount: 2
Fore
SplineSet
0 1624 m 1
 0 1760 l 1
 1368 1760 l 1
 1368 1624 l 1
 0 1624 l 1
EndSplineSet
EndChar

StartChar: degree
Encoding: 176 176 114
Width: 2048
Flags: W
LayerCount: 2
Fore
SplineSet
112 1304 m 0
 112 1411 143 1496 204 1560 c 0
 265 1624 349 1656 456 1656 c 0
 547 1656 627 1624 696 1560 c 0
 765 1496 800 1411 800 1304 c 0
 800 1192 767 1105 700 1044 c 0
 633 983 552 952 456 952 c 0
 360 952 279 983 212 1044 c 0
 145 1105 112 1192 112 1304 c 0
256 1304 m 0
 256 1240 275 1191 312 1156 c 0
 349 1121 397 1104 456 1104 c 0
 509 1104 555 1121 592 1156 c 0
 629 1191 648 1240 648 1304 c 0
 648 1357 631 1405 596 1448 c 0
 561 1491 515 1512 456 1512 c 0
 392 1512 343 1493 308 1456 c 0
 273 1419 256 1368 256 1304 c 0
EndSplineSet
EndChar

StartChar: plusminus
Encoding: 177 177 115
Width: 2048
Flags: W
LayerCount: 2
Fore
SplineSet
320 -8 m 1
 1728 -8 l 1
 1728 -152 l 1
 320 -152 l 1
 320 -8 l 1
320 864 m 1
 320 1024 l 1
 952 1024 l 1
 952 1624 l 1
 1096 1624 l 1
 1096 1024 l 1
 1728 1024 l 1
 1728 864 l 1
 1096 864 l 1
 1096 256 l 1
 952 256 l 1
 952 864 l 1
 320 864 l 1
EndSplineSet
EndChar

StartChar: uni00B2
Encoding: 178 178 116
Width: 488
Flags: W
LayerCount: 2
Fore
SplineSet
32 1032 m 1
 32 1120 l 1
 152 1344 l 2
 189 1408 208 1469 208 1528 c 0
 208 1571 201 1599 188 1612 c 0
 175 1625 157 1632 136 1632 c 0
 120 1632 105 1625 92 1612 c 0
 79 1599 72 1568 72 1520 c 1
 32 1520 l 1
 32 1579 43 1625 64 1660 c 0
 85 1695 109 1712 136 1712 c 0
 168 1712 195 1696 216 1664 c 0
 237 1632 248 1587 248 1528 c 0
 248 1459 232 1389 200 1320 c 1
 88 1112 l 1
 248 1112 l 1
 248 1032 l 1
 32 1032 l 1
EndSplineSet
EndChar

StartChar: uni00B3
Encoding: 179 179 117
Width: 488
Flags: W
LayerCount: 2
Fore
SplineSet
32 1032 m 1
 32 1104 l 1
 120 1104 l 2
 168 1104 192 1149 192 1240 c 0
 192 1341 168 1392 120 1392 c 2
 64 1392 l 1
 64 1448 l 1
 176 1640 l 1
 32 1640 l 1
 32 1712 l 1
 248 1712 l 1
 248 1640 l 1
 144 1456 l 1
 213 1456 248 1384 248 1240 c 0
 248 1101 205 1032 120 1032 c 2
 32 1032 l 1
EndSplineSet
EndChar

StartChar: acute
Encoding: 180 180 118
Width: 1024
Flags: W
LayerCount: 2
Fore
SplineSet
344 1304 m 1
 496 1552 l 1
 744 1552 l 1
 504 1304 l 1
 344 1304 l 1
EndSplineSet
EndChar

StartChar: mu
Encoding: 181 181 119
Width: 1032
Flags: W
LayerCount: 2
Fore
SplineSet
152 -288 m 1
 152 960 l 1
 344 960 l 1
 344 272 l 1
 387 187 435 144 488 144 c 0
 557 144 624 192 688 288 c 1
 688 960 l 1
 872 960 l 1
 872 0 l 1
 688 0 l 1
 688 104 l 1
 624 35 557 0 488 0 c 0
 424 0 376 29 344 88 c 1
 344 -288 l 1
 152 -288 l 1
EndSplineSet
EndChar

StartChar: paragraph
Encoding: 182 182 120
Width: 1024
Flags: W
LayerCount: 2
Fore
SplineSet
40 1296 m 0
 40 1392 56 1471 88 1532 c 0
 120 1593 163 1624 216 1624 c 2
 488 1624 l 1
 488 1496 l 1
 464 1496 l 1
 464 -152 l 1
 384 -152 l 1
 384 1496 l 1
 288 1496 l 1
 288 -152 l 1
 208 -152 l 1
 208 960 l 1
 160 955 120 984 88 1048 c 0
 56 1112 40 1195 40 1296 c 0
EndSplineSet
EndChar

StartChar: periodcentered
Encoding: 183 183 121
Width: 416
Flags: W
LayerCount: 2
Fore
SplineSet
160 640 m 1
 160 888 l 1
 256 888 l 1
 256 640 l 1
 160 640 l 1
EndSplineSet
EndChar

StartChar: cedilla
Encoding: 184 184 122
Width: 416
Flags: W
LayerCount: 2
Fore
SplineSet
128 144 m 0
 128 187 135 227 148 264 c 0
 161 301 179 320 200 320 c 0
 221 320 239 303 252 268 c 0
 265 233 272 192 272 144 c 0
 277 16 268 -84 244 -156 c 0
 220 -228 184 -272 136 -288 c 1
 128 -200 l 1
 155 -195 173 -181 184 -160 c 0
 195 -139 203 -112 208 -80 c 0
 213 -48 211 -32 200 -32 c 0
 179 -32 161 -16 148 16 c 0
 135 48 128 91 128 144 c 0
EndSplineSet
EndChar

StartChar: uni00B9
Encoding: 185 185 123
Width: 488
Flags: W
LayerCount: 2
Fore
SplineSet
32 1520 m 1
 32 1616 l 1
 75 1616 101 1648 112 1712 c 1
 160 1712 l 1
 160 1032 l 1
 88 1032 l 1
 88 1520 l 1
 32 1520 l 1
EndSplineSet
EndChar

StartChar: ordmasculine
Encoding: 186 186 124
Width: 488
Flags: W
LayerCount: 2
Fore
SplineSet
32 1376 m 0
 32 1461 43 1539 64 1608 c 0
 85 1677 115 1712 152 1712 c 0
 189 1712 219 1680 240 1616 c 0
 261 1552 272 1472 272 1376 c 0
 272 1275 261 1192 240 1128 c 0
 219 1064 189 1032 152 1032 c 0
 115 1032 85 1065 64 1132 c 0
 43 1199 32 1280 32 1376 c 0
80 1376 m 0
 80 1296 87 1236 100 1196 c 0
 113 1156 131 1136 152 1136 c 0
 173 1136 191 1156 204 1196 c 0
 217 1236 224 1296 224 1376 c 0
 224 1456 217 1515 204 1552 c 0
 191 1589 173 1608 152 1608 c 0
 131 1608 113 1589 100 1552 c 0
 87 1515 80 1456 80 1376 c 0
EndSplineSet
EndChar

StartChar: guillemotright
Encoding: 187 187 125
Width: 1368
Flags: W
LayerCount: 2
Fore
SplineSet
128 144 m 1
 792 736 l 1
 128 1328 l 1
 200 1400 l 1
 944 736 l 1
 200 80 l 1
 128 144 l 1
448 144 m 1
 1120 736 l 1
 448 1328 l 1
 528 1400 l 1
 1264 736 l 1
 528 80 l 1
 448 144 l 1
EndSplineSet
EndChar

StartChar: onequarter
Encoding: 188 188 126
Width: 1048
Flags: W
LayerCount: 2
Fore
SplineSet
72 1408 m 1
 72 1480 l 1
 147 1480 189 1504 200 1552 c 1
 272 1552 l 1
 272 816 l 1
 176 816 l 1
 176 1408 l 1
 72 1408 l 1
168 32 m 1
 808 1552 l 1
 872 1536 l 1
 232 8 l 1
 168 32 l 1
472 168 m 1
 472 208 l 1
 784 736 l 1
 872 736 l 1
 872 256 l 1
 992 256 l 1
 992 168 l 1
 872 168 l 1
 872 0 l 1
 768 0 l 1
 768 168 l 1
 472 168 l 1
584 256 m 1
 768 256 l 1
 768 560 l 1
 584 256 l 1
EndSplineSet
EndChar

StartChar: onehalf
Encoding: 189 189 127
Width: 1048
Flags: W
LayerCount: 2
Fore
SplineSet
72 1416 m 1
 72 1480 l 1
 147 1485 189 1509 200 1552 c 1
 272 1552 l 1
 272 816 l 1
 176 816 l 1
 176 1416 l 1
 72 1416 l 1
168 32 m 1
 808 1552 l 1
 872 1536 l 1
 232 8 l 1
 168 32 l 1
536 520 m 1
 536 584 557 636 600 676 c 0
 643 716 693 736 752 736 c 0
 816 736 869 717 912 680 c 0
 955 643 976 592 976 528 c 0
 976 459 941 387 872 312 c 1
 648 88 l 1
 976 88 l 1
 976 0 l 1
 544 0 l 1
 544 96 l 1
 784 336 l 2
 848 405 880 469 880 528 c 0
 880 576 868 608 844 624 c 0
 820 640 789 648 752 648 c 0
 720 648 692 640 668 624 c 0
 644 608 632 573 632 520 c 1
 536 520 l 1
EndSplineSet
EndChar

StartChar: threequarters
Encoding: 190 190 128
Width: 1048
Flags: W
LayerCount: 2
Fore
SplineSet
72 816 m 1
 72 896 l 1
 232 896 l 2
 323 896 368 947 368 1048 c 0
 368 1155 323 1208 232 1208 c 2
 128 1208 l 1
 128 1272 l 1
 336 1472 l 1
 72 1472 l 1
 72 1552 l 1
 488 1552 l 1
 488 1472 l 1
 280 1272 l 1
 419 1272 488 1197 488 1048 c 0
 488 893 403 816 232 816 c 2
 72 816 l 1
168 32 m 1
 808 1552 l 1
 872 1536 l 1
 232 8 l 1
 168 32 l 1
504 168 m 1
 504 272 l 1
 800 736 l 1
 904 736 l 1
 904 256 l 1
 1032 256 l 1
 1032 168 l 1
 904 168 l 1
 904 0 l 1
 808 0 l 1
 808 168 l 1
 504 168 l 1
608 256 m 1
 808 256 l 1
 808 568 l 1
 608 256 l 1
EndSplineSet
EndChar

StartChar: questiondown
Encoding: 191 191 129
Width: 928
Flags: W
LayerCount: 2
Fore
SplineSet
56 280 m 0
 56 392 80 477 128 536 c 0
 176 595 229 645 288 688 c 0
 347 736 380 787 388 840 c 0
 396 893 400 944 400 992 c 2
 400 1112 l 1
 552 1112 l 1
 552 992 l 2
 552 939 547 881 536 820 c 0
 525 759 485 693 416 624 c 1
 347 571 293 521 256 476 c 0
 219 431 200 368 200 288 c 0
 200 224 220 169 260 124 c 0
 300 79 363 56 448 56 c 0
 539 56 605 83 648 136 c 0
 691 189 712 256 712 336 c 2
 712 424 l 1
 848 424 l 1
 848 336 l 2
 848 213 811 113 736 36 c 0
 661 -41 565 -80 448 -80 c 1
 331 -85 236 -52 164 20 c 0
 92 92 56 179 56 280 c 0
376 1360 m 1
 376 1584 l 1
 568 1584 l 1
 568 1360 l 1
 376 1360 l 1
EndSplineSet
EndChar

StartChar: Agrave
Encoding: 192 192 130
Width: 1296
Flags: W
LayerCount: 2
Fore
SplineSet
240 0 m 1
 552 1176 l 1
 704 1176 l 1
 1016 0 l 1
 880 0 l 1
 784 336 l 1
 464 336 l 1
 376 0 l 1
 240 0 l 1
424 1760 m 1
 640 1760 l 1
 824 1360 l 1
 704 1360 l 1
 424 1760 l 1
504 480 m 1
 752 480 l 1
 624 952 l 1
 504 480 l 1
EndSplineSet
EndChar

StartChar: Aacute
Encoding: 193 193 131
Width: 1296
Flags: W
LayerCount: 2
Fore
SplineSet
240 0 m 1
 552 1176 l 1
 704 1176 l 1
 1016 0 l 1
 880 0 l 1
 784 336 l 1
 464 336 l 1
 376 0 l 1
 240 0 l 1
432 1360 m 1
 616 1760 l 1
 832 1760 l 1
 560 1360 l 1
 432 1360 l 1
504 480 m 1
 752 480 l 1
 624 952 l 1
 504 480 l 1
EndSplineSet
EndChar

StartChar: Acircumflex
Encoding: 194 194 132
Width: 1296
Flags: W
LayerCount: 2
Fore
SplineSet
272 0 m 1
 584 1176 l 1
 736 1176 l 1
 1048 0 l 1
 912 0 l 1
 816 336 l 1
 496 336 l 1
 408 0 l 1
 272 0 l 1
408 1416 m 1
 624 1760 l 1
 688 1760 l 1
 904 1416 l 1
 824 1336 l 1
 656 1608 l 1
 488 1336 l 1
 408 1416 l 1
536 480 m 1
 784 480 l 1
 664 952 l 1
 536 480 l 1
EndSplineSet
EndChar

StartChar: Atilde
Encoding: 195 195 133
Width: 1296
Flags: W
LayerCount: 2
Fore
SplineSet
232 0 m 1
 544 1176 l 1
 696 1176 l 1
 1008 0 l 1
 872 0 l 1
 776 336 l 1
 456 336 l 1
 368 0 l 1
 232 0 l 1
272 1400 m 1
 272 1600 l 1
 352 1707 416 1760 464 1760 c 0
 512 1760 552 1733 584 1680 c 1
 680 1560 l 2
 712 1523 747 1504 784 1504 c 0
 821 1504 883 1563 968 1680 c 1
 968 1480 l 1
 893 1379 832 1328 784 1328 c 0
 736 1328 693 1352 656 1400 c 2
 560 1520 l 2
 533 1557 501 1576 464 1576 c 0
 421 1576 357 1517 272 1400 c 1
496 480 m 1
 744 480 l 1
 616 952 l 1
 496 480 l 1
EndSplineSet
EndChar

StartChar: Adieresis
Encoding: 196 196 134
Width: 1296
Flags: W
LayerCount: 2
Fore
SplineSet
248 0 m 1
 560 1176 l 1
 720 1176 l 1
 1032 0 l 1
 888 0 l 1
 800 336 l 1
 480 336 l 1
 392 0 l 1
 248 0 l 1
320 1360 m 1
 320 1760 l 1
 520 1760 l 1
 520 1360 l 1
 320 1360 l 1
512 480 m 1
 768 480 l 1
 640 952 l 1
 512 480 l 1
736 1360 m 1
 736 1760 l 1
 944 1760 l 1
 944 1360 l 1
 736 1360 l 1
EndSplineSet
EndChar

StartChar: Aring
Encoding: 197 197 135
Width: 1296
Flags: W
LayerCount: 2
Fore
SplineSet
232 0 m 1
 544 1176 l 1
 696 1176 l 1
 1008 0 l 1
 872 0 l 1
 776 336 l 1
 456 336 l 1
 368 0 l 1
 232 0 l 1
416 1552 m 0
 416 1605 437 1653 480 1696 c 1
 517 1739 565 1760 624 1760 c 0
 677 1760 725 1739 768 1696 c 0
 811 1653 832 1605 832 1552 c 0
 832 1493 811 1445 768 1408 c 1
 725 1365 677 1344 624 1344 c 0
 565 1344 517 1365 480 1408 c 1
 437 1445 416 1493 416 1552 c 0
488 1552 m 0
 488 1509 500 1475 524 1448 c 0
 548 1421 581 1408 624 1408 c 0
 661 1408 693 1424 720 1456 c 1
 747 1477 760 1509 760 1552 c 0
 760 1589 747 1621 720 1648 c 0
 693 1675 661 1688 624 1688 c 0
 581 1688 549 1675 528 1648 c 1
 501 1621 488 1589 488 1552 c 0
496 480 m 1
 744 480 l 1
 616 952 l 1
 496 480 l 1
EndSplineSet
EndChar

StartChar: AE
Encoding: 198 198 136
Width: 1368
Flags: W
LayerCount: 2
Fore
SplineSet
128 0 m 1
 672 1176 l 1
 1248 1176 l 1
 1248 1040 l 1
 784 1040 l 1
 784 688 l 1
 1160 688 l 1
 1160 544 l 1
 784 544 l 1
 784 136 l 1
 1248 136 l 1
 1248 0 l 1
 680 0 l 1
 680 344 l 1
 416 344 l 1
 264 0 l 1
 128 0 l 1
480 480 m 1
 680 480 l 1
 680 920 l 1
 480 480 l 1
EndSplineSet
EndChar

StartChar: Ccedilla
Encoding: 199 199 137
Width: 1360
Flags: W
LayerCount: 2
Fore
SplineSet
40 592 m 0
 40 747 100 883 220 1000 c 0
 340 1117 504 1179 712 1184 c 1
 925 1179 1076 1141 1164 1072 c 0
 1252 1003 1304 904 1320 776 c 1
 1088 776 l 1
 1061 867 1020 933 964 976 c 0
 908 1019 824 1040 712 1040 c 0
 589 1040 487 1003 404 928 c 0
 321 853 280 741 280 592 c 0
 280 453 321 341 404 256 c 0
 487 171 581 128 688 128 c 0
 795 128 884 149 956 192 c 0
 1028 235 1072 309 1088 416 c 1
 1320 416 l 1
 1315 283 1260 183 1156 116 c 0
 1052 49 925 11 776 0 c 1
 803 -11 827 -16 848 -16 c 0
 923 -27 968 -44 984 -68 c 0
 1000 -92 1008 -117 1008 -144 c 0
 1008 -197 977 -235 916 -256 c 0
 855 -277 789 -288 720 -288 c 1
 656 -293 596 -285 540 -264 c 0
 484 -243 445 -221 424 -200 c 1
 568 -144 l 1
 624 -172 l 2
 661 -191 693 -200 720 -200 c 0
 757 -200 784 -199 800 -196 c 0
 816 -193 827 -176 832 -144 c 0
 837 -112 819 -91 776 -80 c 0
 691 -64 635 -37 608 0 c 1
 453 16 320 81 208 196 c 0
 96 311 40 443 40 592 c 0
EndSplineSet
EndChar

StartChar: Edieresis
Encoding: 203 203 141
Width: 1160
Flags: W
LayerCount: 2
Fore
SplineSet
104 0 m 1
 104 1176 l 1
 1064 1176 l 1
 1064 1040 l 1
 296 1040 l 1
 296 688 l 1
 936 688 l 1
 936 544 l 1
 296 544 l 1
 296 136 l 1
 1064 136 l 1
 1064 0 l 1
 104 0 l 1
192 1360 m 1
 192 1760 l 1
 464 1760 l 1
 464 1360 l 1
 192 1360 l 1
696 1360 m 1
 696 1760 l 1
 968 1760 l 1
 968 1360 l 1
 696 1360 l 1
EndSplineSet
EndChar

StartChar: Igrave
Encoding: 204 204 142
Width: 688
Flags: W
LayerCount: 2
Fore
SplineSet
176 1768 m 1
 360 1768 l 1
 512 1360 l 1
 408 1360 l 1
 176 1768 l 1
288 0 m 1
 288 1176 l 1
 408 1176 l 1
 408 0 l 1
 288 0 l 1
EndSplineSet
EndChar

StartChar: Iacute
Encoding: 205 205 143
Width: 592
Flags: W
LayerCount: 2
Fore
SplineSet
152 1416 m 1
 288 1768 l 1
 440 1768 l 1
 240 1416 l 1
 152 1416 l 1
248 0 m 1
 248 1176 l 1
 352 1176 l 1
 352 0 l 1
 248 0 l 1
EndSplineSet
EndChar

StartChar: Icircumflex
Encoding: 206 206 144
Width: 888
Flags: W
LayerCount: 2
Fore
SplineSet
168 1480 m 1
 408 1760 l 1
 480 1760 l 1
 720 1480 l 1
 632 1408 l 1
 448 1632 l 1
 256 1408 l 1
 168 1480 l 1
376 0 m 1
 376 1176 l 1
 520 1176 l 1
 520 0 l 1
 376 0 l 1
EndSplineSet
EndChar

StartChar: Idieresis
Encoding: 207 207 145
Width: 688
Flags: W
LayerCount: 2
Fore
SplineSet
80 1528 m 1
 80 1768 l 1
 240 1768 l 1
 240 1528 l 1
 80 1528 l 1
288 0 m 1
 288 1176 l 1
 408 1176 l 1
 408 0 l 1
 288 0 l 1
416 1528 m 1
 416 1768 l 1
 576 1768 l 1
 576 1528 l 1
 416 1528 l 1
EndSplineSet
EndChar

StartChar: Eth
Encoding: 208 208 146
Width: 1328
Flags: W
LayerCount: 2
Fore
SplineSet
176 736 m 1
 176 872 l 1
 376 872 l 1
 376 1552 l 1
 656 1552 l 2
 843 1552 973 1481 1048 1340 c 0
 1123 1199 1160 1011 1160 776 c 0
 1160 541 1123 353 1048 212 c 0
 973 71 843 0 656 0 c 2
 376 0 l 1
 376 736 l 1
 176 736 l 1
496 152 m 1
 656 152 l 2
 789 152 883 209 936 324 c 0
 989 439 1016 588 1016 772 c 0
 1016 956 989 1109 936 1232 c 0
 883 1355 789 1416 656 1416 c 2
 496 1416 l 1
 496 872 l 1
 728 872 l 1
 728 736 l 1
 496 736 l 1
 496 152 l 1
EndSplineSet
EndChar

StartChar: Ntilde
Encoding: 209 209 147
Width: 1312
Flags: W
LayerCount: 2
Fore
SplineSet
112 0 m 1
 112 1176 l 1
 400 1176 l 1
 984 288 l 1
 984 1176 l 1
 1208 1176 l 1
 1208 0 l 1
 928 0 l 1
 336 912 l 1
 336 0 l 1
 112 0 l 1
128 1488 m 1
 128 1640 l 1
 245 1720 341 1760 416 1760 c 0
 491 1760 552 1741 600 1704 c 1
 744 1608 l 2
 787 1581 837 1568 896 1568 c 0
 960 1568 1056 1613 1184 1704 c 1
 1184 1552 l 1
 1067 1472 971 1432 896 1432 c 0
 827 1432 765 1451 712 1488 c 2
 568 1584 l 2
 525 1611 475 1624 416 1624 c 0
 357 1624 261 1579 128 1488 c 1
EndSplineSet
EndChar

StartChar: Ograve
Encoding: 210 210 148
Width: 1368
Flags: W
LayerCount: 2
Fore
SplineSet
152 584 m 0
 152 739 195 876 280 996 c 0
 365 1116 477 1176 616 1176 c 2
 736 1176 l 2
 869 1176 981 1116 1072 996 c 0
 1163 876 1208 739 1208 584 c 0
 1208 419 1159 279 1060 164 c 0
 961 49 833 -8 676 -8 c 0
 519 -8 392 49 296 164 c 0
 200 279 152 419 152 584 c 0
320 584 m 0
 320 429 357 315 432 240 c 0
 507 165 588 128 676 128 c 0
 764 128 847 165 924 240 c 0
 1001 315 1040 429 1040 584 c 0
 1040 733 1003 848 928 928 c 0
 853 1008 779 1048 704 1048 c 2
 648 1048 l 2
 579 1048 507 1005 432 920 c 0
 357 835 320 723 320 584 c 0
392 1760 m 1
 688 1760 l 1
 944 1432 l 1
 768 1432 l 1
 392 1760 l 1
EndSplineSet
EndChar

StartChar: Oacute
Encoding: 211 211 149
Width: 1368
Flags: W
LayerCount: 2
Fore
SplineSet
152 584 m 0
 152 739 195 876 280 996 c 0
 365 1116 477 1176 616 1176 c 2
 736 1176 l 2
 869 1176 981 1116 1072 996 c 0
 1163 876 1208 739 1208 584 c 0
 1208 419 1159 279 1060 164 c 0
 961 49 833 -8 676 -8 c 0
 519 -8 392 49 296 164 c 0
 200 279 152 419 152 584 c 0
320 584 m 0
 320 429 357 315 432 240 c 0
 507 165 588 128 676 128 c 0
 764 128 847 165 924 240 c 0
 1001 315 1040 429 1040 584 c 0
 1040 733 1003 848 928 928 c 0
 853 1008 779 1048 704 1048 c 2
 648 1048 l 2
 579 1048 507 1005 432 920 c 0
 357 835 320 723 320 584 c 0
472 1408 m 1
 680 1760 l 1
 928 1760 l 1
 616 1408 l 1
 472 1408 l 1
EndSplineSet
EndChar

StartChar: Ocircumflex
Encoding: 212 212 150
Width: 1368
Flags: W
LayerCount: 2
Fore
SplineSet
152 584 m 0
 152 739 195 876 280 996 c 0
 365 1116 477 1176 616 1176 c 2
 736 1176 l 2
 869 1176 981 1116 1072 996 c 0
 1163 876 1208 739 1208 584 c 0
 1208 419 1159 279 1060 164 c 0
 961 49 833 -8 676 -8 c 0
 519 -8 392 49 296 164 c 0
 200 279 152 419 152 584 c 0
320 584 m 0
 320 429 357 315 432 240 c 0
 507 165 588 128 676 128 c 0
 764 128 847 165 924 240 c 0
 1001 315 1040 429 1040 584 c 0
 1040 733 1003 848 928 928 c 0
 853 1008 779 1048 704 1048 c 2
 648 1048 l 2
 579 1048 507 1005 432 920 c 0
 357 835 320 723 320 584 c 0
392 1480 m 1
 640 1760 l 1
 712 1760 l 1
 960 1480 l 1
 872 1408 l 1
 680 1640 l 1
 488 1408 l 1
 392 1480 l 1
EndSplineSet
EndChar

StartChar: Otilde
Encoding: 213 213 151
Width: 1368
Flags: W
LayerCount: 2
Fore
SplineSet
152 584 m 0
 152 739 195 876 280 996 c 0
 365 1116 477 1176 616 1176 c 2
 736 1176 l 2
 869 1176 981 1116 1072 996 c 0
 1163 876 1208 739 1208 584 c 0
 1208 419 1159 279 1060 164 c 0
 961 49 833 -8 676 -8 c 0
 519 -8 392 49 296 164 c 0
 200 279 152 419 152 584 c 0
312 1488 m 1
 312 1648 l 1
 392 1728 459 1768 512 1768 c 0
 560 1768 603 1749 640 1712 c 2
 736 1616 l 2
 768 1589 805 1576 848 1576 c 0
 891 1576 955 1621 1040 1712 c 1
 1040 1552 l 1
 965 1472 901 1432 848 1432 c 0
 795 1432 749 1451 712 1488 c 2
 616 1584 l 2
 584 1611 549 1624 512 1624 c 0
 469 1624 403 1579 312 1488 c 1
320 584 m 0
 320 429 357 315 432 240 c 0
 507 165 588 128 676 128 c 0
 764 128 847 165 924 240 c 0
 1001 315 1040 429 1040 584 c 0
 1040 733 1003 848 928 928 c 0
 853 1008 779 1048 704 1048 c 2
 648 1048 l 2
 579 1048 507 1005 432 920 c 0
 357 835 320 723 320 584 c 0
EndSplineSet
EndChar

StartChar: Odieresis
Encoding: 214 214 152
Width: 1368
Flags: W
LayerCount: 2
Fore
SplineSet
152 584 m 0
 152 739 192 876 272 996 c 0
 352 1116 467 1176 616 1176 c 2
 736 1176 l 2
 885 1176 1001 1116 1084 996 c 0
 1167 876 1208 739 1208 584 c 0
 1208 419 1164 280 1076 168 c 0
 988 56 872 0 728 0 c 2
 624 0 l 2
 485 0 372 56 284 168 c 0
 196 280 152 419 152 584 c 0
320 584 m 0
 320 429 353 317 420 248 c 0
 487 179 563 144 648 144 c 2
 704 144 l 2
 779 144 853 179 928 248 c 0
 1003 317 1040 429 1040 584 c 0
 1040 733 1008 845 944 920 c 0
 880 995 800 1032 704 1032 c 2
 648 1032 l 2
 552 1032 473 992 412 912 c 0
 351 832 320 723 320 584 c 0
352 1360 m 1
 352 1760 l 1
 568 1760 l 1
 568 1360 l 1
 352 1360 l 1
792 1360 m 1
 792 1760 l 1
 1008 1760 l 1
 1008 1360 l 1
 792 1360 l 1
EndSplineSet
EndChar

StartChar: multiply
Encoding: 215 215 153
Width: 2048
Flags: W
LayerCount: 2
Fore
SplineSet
384 248 m 1
 920 784 l 1
 392 1312 l 1
 496 1416 l 1
 1024 888 l 1
 1552 1416 l 1
 1656 1312 l 1
 1128 784 l 1
 1672 248 l 1
 1568 136 l 1
 1024 680 l 1
 488 136 l 1
 384 248 l 1
EndSplineSet
EndChar

StartChar: Oslash
Encoding: 216 216 154
Width: 1368
Flags: W
LayerCount: 2
Fore
SplineSet
280 -80 m 1
 424 224 l 1
 344 379 304 565 304 784 c 0
 304 987 344 1165 424 1320 c 0
 504 1475 608 1552 736 1552 c 0
 832 1552 912 1512 976 1432 c 1
 1096 1688 l 1
 1192 1632 l 1
 1048 1328 l 1
 1133 1168 1176 987 1176 784 c 0
 1176 565 1135 380 1052 228 c 0
 969 76 864 0 736 0 c 0
 645 0 565 40 496 120 c 1
 376 -144 l 1
 280 -80 l 1
472 784 m 0
 472 635 485 512 512 416 c 1
 904 1280 l 1
 856 1349 800 1384 736 1384 c 0
 667 1384 605 1332 552 1228 c 0
 499 1124 472 976 472 784 c 0
568 280 m 1
 616 195 672 152 736 152 c 0
 811 152 876 207 932 316 c 0
 988 425 1016 581 1016 784 c 0
 1016 928 1000 1051 968 1152 c 1
 568 280 l 1
EndSplineSet
EndChar

StartChar: Ugrave
Encoding: 217 217 155
Width: 1312
Flags: W
LayerCount: 2
Fore
SplineSet
128 520 m 2
 128 1176 l 1
 352 1176 l 1
 352 520 l 2
 352 387 379 293 432 240 c 0
 485 187 560 160 656 160 c 0
 752 160 828 187 884 240 c 0
 940 293 968 387 968 520 c 2
 968 1176 l 1
 1192 1176 l 1
 1192 520 l 2
 1192 323 1140 185 1036 108 c 0
 932 31 803 -8 648 -8 c 0
 493 -8 368 31 272 108 c 0
 176 185 128 323 128 520 c 2
384 1768 m 1
 728 1768 l 1
 1032 1416 l 1
 824 1416 l 1
 384 1768 l 1
EndSplineSet
EndChar

StartChar: Uacute
Encoding: 218 218 156
Width: 1312
Flags: W
LayerCount: 2
Fore
SplineSet
128 520 m 2
 128 1176 l 1
 352 1176 l 1
 352 520 l 2
 352 387 379 293 432 240 c 0
 485 187 560 160 656 160 c 0
 752 160 828 187 884 240 c 0
 940 293 968 387 968 520 c 2
 968 1176 l 1
 1192 1176 l 1
 1192 520 l 2
 1192 323 1140 185 1036 108 c 0
 932 31 803 -8 648 -8 c 0
 493 -8 368 31 272 108 c 0
 176 185 128 323 128 520 c 2
312 1416 m 1
 608 1768 l 1
 960 1768 l 1
 512 1416 l 1
 312 1416 l 1
EndSplineSet
EndChar

StartChar: Ucircumflex
Encoding: 219 219 157
Width: 1312
Flags: W
LayerCount: 2
Fore
SplineSet
128 520 m 2
 128 1176 l 1
 352 1176 l 1
 352 520 l 2
 352 387 379 293 432 240 c 0
 485 187 560 160 656 160 c 0
 752 160 828 187 884 240 c 0
 940 293 968 387 968 520 c 2
 968 1176 l 1
 1192 1176 l 1
 1192 520 l 2
 1192 323 1140 185 1036 108 c 0
 932 31 803 -8 648 -8 c 0
 493 -8 368 31 272 108 c 0
 176 185 128 323 128 520 c 2
248 1480 m 1
 608 1760 l 1
 712 1760 l 1
 1064 1480 l 1
 936 1408 l 1
 656 1632 l 1
 384 1408 l 1
 248 1480 l 1
EndSplineSet
EndChar

StartChar: Udieresis
Encoding: 220 220 158
Width: 1312
Flags: W
LayerCount: 2
Fore
SplineSet
128 520 m 2
 128 1176 l 1
 352 1176 l 1
 352 520 l 2
 352 387 379 293 432 240 c 0
 485 187 560 160 656 160 c 0
 752 160 828 187 884 240 c 0
 940 293 968 387 968 520 c 2
 968 1176 l 1
 1192 1176 l 1
 1192 520 l 2
 1192 323 1140 185 1036 108 c 0
 932 31 803 -8 648 -8 c 0
 493 -8 368 31 272 108 c 0
 176 185 128 323 128 520 c 2
152 1528 m 1
 152 1768 l 1
 464 1768 l 1
 464 1528 l 1
 152 1528 l 1
792 1528 m 1
 792 1768 l 1
 1096 1768 l 1
 1096 1528 l 1
 792 1528 l 1
EndSplineSet
EndChar

StartChar: Yacute
Encoding: 221 221 159
Width: 1208
Flags: W
LayerCount: 2
Fore
SplineSet
112 1176 m 1
 320 1176 l 1
 608 704 l 1
 896 1176 l 1
 1104 1176 l 1
 712 552 l 1
 712 0 l 1
 504 0 l 1
 504 552 l 1
 112 1176 l 1
320 1408 m 1
 600 1760 l 1
 920 1760 l 1
 512 1408 l 1
 320 1408 l 1
EndSplineSet
EndChar

StartChar: Thorn
Encoding: 222 222 160
Width: 1112
Flags: W
LayerCount: 2
Fore
SplineSet
152 0 m 1
 152 1624 l 1
 336 1624 l 1
 336 1192 l 1
 608 1192 l 2
 869 1192 1003 1067 1008 816 c 0
 1013 565 880 437 608 432 c 1
 336 432 l 1
 336 0 l 1
 152 0 l 1
336 560 m 1
 608 560 l 2
 763 560 843 645 848 816 c 1
 848 971 768 1051 608 1056 c 1
 336 1056 l 1
 336 560 l 1
EndSplineSet
EndChar

StartChar: germandbls
Encoding: 223 223 161
Width: 1112
Flags: W
LayerCount: 2
Fore
SplineSet
88 0 m 1
 88 1088 l 2
 88 1264 127 1385 204 1452 c 0
 281 1519 363 1552 448 1552 c 2
 544 1552 l 2
 645 1552 733 1513 808 1436 c 0
 883 1359 920 1264 920 1152 c 0
 920 1056 895 980 844 924 c 0
 793 868 749 835 712 824 c 1
 792 808 864 763 928 688 c 0
 992 613 1024 525 1024 424 c 0
 1024 136 888 -5 616 0 c 1
 384 0 l 1
 384 144 l 1
 584 144 l 2
 760 144 848 235 848 416 c 0
 848 528 804 613 716 672 c 0
 628 731 536 760 440 760 c 1
 440 888 l 1
 531 888 603 912 656 960 c 0
 709 1008 736 1072 736 1152 c 0
 736 1243 713 1308 668 1348 c 0
 623 1388 560 1408 480 1408 c 0
 421 1408 372 1383 332 1332 c 0
 292 1281 272 1200 272 1088 c 2
 272 0 l 1
 88 0 l 1
EndSplineSet
EndChar

StartChar: agrave
Encoding: 224 224 162
Width: 976
Flags: W
HStem: -85 235<411 455.5 411 495.5> -50 195<387.5 453 387.5 490> 454 230<731.5 770 769 770> 466 200<703.5 729 728 729> 800 235<443.5 516> 805 195<422 431 431 528 422 543>
VStem: 131 165<691 691.5 691.5 693 692.5 693 659.5 718.5> 628 25<149.5 150 149.5 690> 652 17 652 176<-2 -1 -1 0 0 690>
LayerCount: 2
Fore
SplineSet
431 1035 m 6x0a40
 543 1035 l 6
 629 1035 716 1010 782 949 c 4
 847 888 882 796 882 697 c 6
 882 0 l 5
 882 0 882 -1 882 -2 c 4
 882 -65 830 -117 767 -117 c 4
 703 -117 652 -65 652 -2 c 4x0a80
 652 -1 652 0 652 0 c 5
 652 697 l 6
 652 748 639 767 625 781 c 4
 611 794 586 805 543 805 c 6
 431 805 l 6x0640
 398 805 359 791 334 770 c 4
 309 749 296 728 296 693 c 4
 296 692 296 692 296 691 c 4
 296 628 244 576 181 576 c 4
 117 576 66 628 66 691 c 4
 66 692 66 692 66 693 c 4
 66 798 118 890 187 948 c 4
 257 1005 343 1035 431 1035 c 6x0a40
488 1000 m 4x07
 568 1000 650 987 719 935 c 4
 788 884 828 792 828 690 c 6
 828 0 l 5x0640
 828 0 828 -1 828 -1 c 6
 828 -57 783 -101 728 -101 c 4
 673 -101 628 -57 628 -1 c 6
 628 -1 628 0 628 0 c 5
 628 690 l 6
 628 749 616 763 599 776 c 4
 582 788 544 800 488 800 c 4x0b
 399 800 370 777 353 757 c 4
 336 737 331 707 331 693 c 4
 331 692 331 692 331 691 c 4
 331 636 286 591 231 591 c 4
 176 591 131 636 131 691 c 4
 131 692 131 692 131 693 c 4
 131 744 144 818 200 886 c 4
 257 953 356 1000 488 1000 c 4x07
697 -46 m 5
 706 -43 l 5
 704 -36 673 152 673 152 c 5
 663 151 l 5
 653 150 l 6x03
 653 149 685 -43 687 -48 c 5
 697 -46 l 5
679 -45 m 5
 688 -43 l 5
 686 -36 655 152 655 152 c 5
 645 151 l 5
 635 150 l 6
 635 149 667 -42 669 -48 c 5x0280
 679 -45 l 5
769 684 m 6
 769 684 770 684 770 684 c 6
 834 684 885 632 885 569 c 4
 885 505 834 454 770 454 c 6
 770 454 769 454 769 454 c 6
 694 454 552 450 442 418 c 4
 387 402 343 379 317 355 c 4
 292 331 281 311 281 267 c 6
 281 267 281 266 281 265 c 5
 281 266 281 266 281 265 c 5
 281 260 286 221 304 196 c 4
 322 170 342 145 433 145 c 4x62
 473 145 540 176 594 215 c 4
 647 254 682 292 682 292 c 6
 701 313 739 331 768 331 c 4
 831 331 883 279 883 216 c 4
 883 191 869 155 851 137 c 6
 851 137 802 83 730 30 c 4
 657 -24 558 -85 433 -85 c 4x82
 282 -85 170 -15 115 65 c 4
 60 145 52 220 51 256 c 4
 51 262 51 268 51 269 c 4
 51 371 96 462 160 522 c 4
 223 582 301 616 378 638 c 4
 531 683 690 684 769 684 c 6
728 666 m 6
 728 666 729 666 729 666 c 6
 784 666 829 622 829 566 c 4
 829 511 784 466 729 466 c 6
 729 466 728 466 728 466 c 6
 679 466 555 453 460 416 c 4
 412 397 372 372 348 346 c 4
 324 321 312 298 312 260 c 4
 312 237 321 207 339 187 c 4
 356 167 380 150 442 150 c 4x92
 469 150 532 173 581 201 c 4
 631 229 666 257 666 257 c 6
 681 269 709 279 729 279 c 4
 784 279 829 235 829 179 c 4
 829 152 811 117 790 100 c 6
 790 100 744 64 681 27 c 4
 618 -9 538 -50 442 -50 c 4
 333 -50 243 -7 188 55 c 4
 133 118 112 193 112 260 c 4
 112 349 150 428 203 484 c 4
 256 540 321 576 386 602 c 4
 517 654 651 666 728 666 c 6
335 1734 m 4
 337 1734 339 1734 340 1734 c 4
 365 1734 399 1719 415 1700 c 6
 726 1355 l 6
 741 1339 753 1308 753 1287 c 4
 753 1231 708 1187 653 1187 c 4
 628 1187 594 1202 578 1221 c 6
 267 1566 l 6
 252 1582 240 1612 240 1634 c 4
 240 1687 283 1731 335 1734 c 4
328 1732 m 4
 351 1731 384 1717 401 1701 c 6
 746 1390 l 6
 768 1371 786 1333 786 1304 c 4
 786 1240 734 1189 670 1189 c 4
 646 1189 611 1202 592 1219 c 6
 247 1530 l 6
 225 1549 208 1588 208 1617 c 4
 208 1680 259 1732 323 1732 c 4
 324 1732 327 1732 328 1732 c 4
EndSplineSet
EndChar

StartChar: aacute
Encoding: 225 225 163
Width: 976
Flags: HW
LayerCount: 2
Fore
SplineSet
431 1035 m 2x0a40
 543 1035 l 2
 629 1035 716 1010 782 949 c 0
 847 888 882 796 882 697 c 2
 882 0 l 1
 882 0 882 -1 882 -2 c 0
 882 -65 830 -117 767 -117 c 0
 703 -117 652 -65 652 -2 c 0x0a80
 652 -1 652 0 652 0 c 1
 652 697 l 2
 652 748 639 767 625 781 c 0
 611 794 586 805 543 805 c 2
 431 805 l 2x0640
 398 805 359 791 334 770 c 0
 309 749 296 728 296 693 c 0
 296 692 296 692 296 691 c 0
 296 628 244 576 181 576 c 0
 117 576 66 628 66 691 c 0
 66 692 66 692 66 693 c 0
 66 798 118 890 187 948 c 0
 257 1005 343 1035 431 1035 c 2x0a40
488 1000 m 0x07
 568 1000 650 987 719 935 c 0
 788 884 828 792 828 690 c 2
 828 0 l 1x0640
 828 0 828 -1 828 -1 c 2
 828 -57 783 -101 728 -101 c 0
 673 -101 628 -57 628 -1 c 2
 628 -1 628 0 628 0 c 1
 628 690 l 2
 628 749 616 763 599 776 c 0
 582 788 544 800 488 800 c 0x0b
 399 800 370 777 353 757 c 0
 336 737 331 707 331 693 c 0
 331 692 331 692 331 691 c 0
 331 636 286 591 231 591 c 0
 176 591 131 636 131 691 c 0
 131 692 131 692 131 693 c 0
 131 744 144 818 200 886 c 0
 257 953 356 1000 488 1000 c 0x07
697 -46 m 1
 706 -43 l 1
 704 -36 673 152 673 152 c 1
 663 151 l 1
 653 150 l 2x03
 653 149 685 -43 687 -48 c 1
 697 -46 l 1
679 -45 m 1
 688 -43 l 1
 686 -36 655 152 655 152 c 1
 645 151 l 1
 635 150 l 2
 635 149 667 -42 669 -48 c 1x0280
 679 -45 l 1
769 684 m 2
 769 684 770 684 770 684 c 2
 834 684 885 632 885 569 c 0
 885 505 834 454 770 454 c 2
 770 454 769 454 769 454 c 2
 694 454 552 450 442 418 c 0
 387 402 343 379 317 355 c 0
 292 331 281 311 281 267 c 2
 281 267 281 266 281 265 c 1
 281 266 281 266 281 265 c 1
 281 260 286 221 304 196 c 0
 322 170 342 145 433 145 c 0x62
 473 145 540 176 594 215 c 0
 647 254 682 292 682 292 c 2
 701 313 739 331 768 331 c 0
 831 331 883 279 883 216 c 0
 883 191 869 155 851 137 c 2
 851 137 802 83 730 30 c 0
 657 -24 558 -85 433 -85 c 0x82
 282 -85 170 -15 115 65 c 0
 60 145 52 220 51 256 c 0
 51 262 51 268 51 269 c 0
 51 371 96 462 160 522 c 0
 223 582 301 616 378 638 c 0
 531 683 690 684 769 684 c 2
728 666 m 2
 728 666 729 666 729 666 c 2
 784 666 829 622 829 566 c 0
 829 511 784 466 729 466 c 2
 729 466 728 466 728 466 c 2
 679 466 555 453 460 416 c 0
 412 397 372 372 348 346 c 0
 324 321 312 298 312 260 c 0
 312 237 321 207 339 187 c 0
 356 167 380 150 442 150 c 0x92
 469 150 532 173 581 201 c 0
 631 229 666 257 666 257 c 2
 681 269 709 279 729 279 c 0
 784 279 829 235 829 179 c 0
 829 152 811 117 790 100 c 2
 790 100 744 64 681 27 c 0
 618 -9 538 -50 442 -50 c 0
 333 -50 243 -7 188 55 c 0
 133 118 112 193 112 260 c 0
 112 349 150 428 203 484 c 0
 256 540 321 576 386 602 c 0
 517 654 651 666 728 666 c 2
659 1734 m 4
 657 1734 655 1734 654 1734 c 4
 629 1734 595 1719 579 1700 c 6
 268 1355 l 6
 253 1339 241 1308 241 1287 c 4
 241 1231 286 1187 341 1187 c 4
 366 1187 400 1202 416 1221 c 6
 727 1566 l 6
 742 1582 754 1612 754 1634 c 4
 754 1687 711 1731 659 1734 c 4
666 1732 m 4
 643 1731 610 1717 593 1701 c 6
 248 1390 l 6
 226 1371 208 1333 208 1304 c 4
 208 1240 260 1189 324 1189 c 4
 348 1189 383 1202 402 1219 c 6
 747 1530 l 6
 769 1549 786 1588 786 1617 c 4
 786 1680 735 1732 671 1732 c 4
 670 1732 667 1732 666 1732 c 4
EndSplineSet
EndChar

StartChar: acircumflex
Encoding: 226 226 164
Width: 976
Flags: W
LayerCount: 2
Fore
SplineSet
96 304 m 0
 96 528 237 640 520 640 c 2
 680 640 l 1
 680 696 l 2
 680 749 665 787 636 808 c 0
 607 829 568 840 520 840 c 2
 384 840 l 2
 293 840 221 821 168 784 c 1
 104 872 l 1
 189 931 280 960 376 960 c 2
 552 960 l 2
 621 960 685 940 744 900 c 0
 803 860 832 792 832 696 c 2
 832 208 l 1
 872 0 l 1
 728 0 l 1
 696 88 l 1
 616 29 512 0 384 0 c 0
 192 0 96 101 96 304 c 0
184 1336 m 1
 448 1624 l 1
 528 1624 l 1
 792 1336 l 1
 696 1272 l 1
 488 1496 l 1
 288 1272 l 1
 184 1336 l 1
264 296 m 1
 264 173 317 112 424 112 c 0
 509 112 595 147 680 216 c 1
 680 520 l 1
 520 520 l 2
 355 520 269 445 264 296 c 1
EndSplineSet
EndChar

StartChar: atilde
Encoding: 227 227 165
Width: 976
Flags: W
LayerCount: 2
Fore
SplineSet
96 304 m 0
 96 528 237 640 520 640 c 2
 680 640 l 1
 680 696 l 2
 680 749 665 787 636 808 c 0
 607 829 568 840 520 840 c 2
 384 840 l 2
 293 840 221 821 168 784 c 1
 104 872 l 1
 189 931 280 960 376 960 c 2
 552 960 l 2
 621 960 685 940 744 900 c 0
 803 860 832 792 832 696 c 2
 832 208 l 1
 872 0 l 1
 728 0 l 1
 696 88 l 1
 616 29 512 0 384 0 c 0
 192 0 96 101 96 304 c 0
96 1272 m 1
 96 1424 l 1
 181 1504 253 1544 312 1544 c 0
 365 1544 411 1525 448 1488 c 2
 552 1392 l 1
 589 1365 629 1352 672 1352 c 0
 715 1352 784 1397 880 1488 c 1
 880 1336 l 1
 795 1256 725 1216 672 1216 c 0
 619 1216 571 1235 528 1272 c 2
 424 1368 l 2
 392 1395 355 1408 312 1408 c 0
 264 1408 192 1363 96 1272 c 1
264 296 m 1
 264 173 317 112 424 112 c 0
 509 112 595 147 680 216 c 1
 680 520 l 1
 520 520 l 2
 355 520 269 445 264 296 c 1
EndSplineSet
EndChar

StartChar: adieresis
Encoding: 228 228 166
Width: 976
Flags: W
LayerCount: 2
Fore
SplineSet
96 304 m 0
 96 528 237 640 520 640 c 2
 680 640 l 1
 680 696 l 2
 680 749 665 787 636 808 c 0
 607 829 568 840 520 840 c 2
 384 840 l 2
 293 840 221 821 168 784 c 1
 104 872 l 1
 189 931 280 960 376 960 c 2
 552 960 l 2
 621 960 685 940 744 900 c 0
 803 860 832 792 832 696 c 2
 832 208 l 1
 872 0 l 1
 728 0 l 1
 696 88 l 1
 616 29 512 0 384 0 c 0
 192 0 96 101 96 304 c 0
120 1176 m 1
 120 1552 l 1
 344 1552 l 1
 344 1176 l 1
 120 1176 l 1
264 296 m 1
 264 173 317 112 424 112 c 0
 509 112 595 147 680 216 c 1
 680 520 l 1
 520 520 l 2
 355 520 269 445 264 296 c 1
592 1176 m 1
 592 1552 l 1
 816 1552 l 1
 816 1176 l 1
 592 1176 l 1
EndSplineSet
EndChar

StartChar: aring
Encoding: 229 229 167
Width: 976
Flags: W
LayerCount: 2
Fore
SplineSet
96 304 m 0
 96 528 237 640 520 640 c 2
 680 640 l 1
 680 696 l 2
 680 749 665 787 636 808 c 0
 607 829 568 840 520 840 c 2
 384 840 l 2
 293 840 221 821 168 784 c 1
 104 872 l 1
 189 931 280 960 376 960 c 2
 552 960 l 2
 621 960 685 940 744 900 c 0
 803 860 832 792 832 696 c 2
 832 208 l 1
 872 0 l 1
 728 0 l 1
 696 88 l 1
 616 29 512 0 384 0 c 0
 192 0 96 101 96 304 c 0
256 1400 m 0
 256 1464 280 1520 328 1568 c 0
 371 1616 424 1640 488 1640 c 0
 552 1640 608 1616 656 1568 c 0
 699 1520 720 1464 720 1400 c 0
 720 1331 699 1272 656 1224 c 0
 608 1176 552 1152 488 1152 c 0
 424 1152 371 1176 328 1224 c 0
 280 1272 256 1331 256 1400 c 0
264 296 m 1
 264 173 317 112 424 112 c 0
 509 112 595 147 680 216 c 1
 680 520 l 1
 520 520 l 2
 355 520 269 445 264 296 c 1
336 1392 m 0
 336 1349 351 1312 380 1280 c 0
 409 1248 445 1232 488 1232 c 0
 531 1232 568 1248 600 1280 c 0
 627 1312 640 1349 640 1392 c 0
 640 1440 625 1480 596 1512 c 0
 567 1544 531 1560 488 1560 c 0
 445 1560 408 1544 376 1512 c 0
 349 1480 336 1440 336 1392 c 0
EndSplineSet
EndChar

StartChar: ae
Encoding: 230 230 168
Width: 1368
Flags: W
LayerCount: 2
Fore
SplineSet
96 240 m 0
 96 379 137 475 220 528 c 0
 303 581 419 616 568 632 c 1
 568 765 515 837 408 848 c 1
 317 848 267 797 256 696 c 1
 112 696 l 1
 128 803 160 873 208 908 c 0
 256 943 307 960 360 960 c 2
 464 960 l 2
 549 960 613 915 656 824 c 1
 704 915 776 960 872 960 c 2
 952 960 l 2
 1027 960 1097 917 1164 832 c 0
 1231 747 1264 629 1264 480 c 1
 704 480 l 1
 704 373 727 289 772 228 c 0
 817 167 872 136 936 136 c 0
 984 136 1023 151 1052 180 c 0
 1081 209 1104 251 1120 304 c 1
 1256 304 l 1
 1213 96 1107 -8 936 -8 c 0
 808 -8 715 43 656 144 c 1
 549 48 437 -3 320 -8 c 0
 240 -8 183 15 148 60 c 0
 113 105 96 165 96 240 c 0
232 240 m 0
 232 176 261 144 320 144 c 0
 416 144 499 181 568 256 c 1
 568 504 l 1
 456 483 372 455 316 420 c 0
 260 385 232 325 232 240 c 0
712 608 m 1
 1104 608 l 1
 1083 747 1019 819 912 824 c 1
 800 819 733 747 712 608 c 1
EndSplineSet
EndChar

StartChar: ccedilla
Encoding: 231 231 169
Width: 1024
Flags: W
LayerCount: 2
Fore
SplineSet
88 496 m 0
 88 640 124 753 196 836 c 0
 268 919 360 960 472 960 c 2
 576 960 l 2
 672 960 755 923 824 848 c 0
 893 773 931 688 936 592 c 1
 784 592 l 1
 773 661 745 717 700 760 c 0
 655 803 595 824 520 824 c 0
 435 824 365 795 312 736 c 0
 259 677 232 597 232 496 c 0
 232 368 259 277 312 224 c 0
 365 171 435 144 520 144 c 0
 600 144 661 163 704 200 c 0
 747 237 773 293 784 368 c 1
 936 368 l 1
 925 256 892 169 836 108 c 0
 780 47 696 11 584 0 c 1
 611 -21 640 -35 672 -40 c 1
 709 -56 737 -72 756 -88 c 0
 775 -104 784 -123 784 -144 c 0
 784 -187 763 -221 720 -248 c 0
 677 -275 619 -288 544 -288 c 0
 480 -288 428 -281 388 -268 c 0
 348 -255 304 -224 256 -176 c 1
 328 -104 l 1
 365 -141 400 -165 432 -176 c 0
 464 -187 501 -192 544 -192 c 0
 576 -192 604 -189 628 -184 c 0
 652 -179 664 -165 664 -144 c 0
 664 -128 637 -112 584 -96 c 0
 520 -80 480 -48 464 0 c 1
 352 11 261 59 192 144 c 0
 123 229 88 347 88 496 c 0
EndSplineSet
EndChar

StartChar: egrave
Encoding: 232 232 170
Width: 1024
Flags: HW
LayerCount: 2
Fore
SplineSet
474.859375 1035 m 6
 559.458984375 1035 l 6
 690.94140625 1035 801.215820312 969.315429688 866.810546875 883.283203125 c 4
 932.405273438 797.250976562 961.447265625 694.60546875 961.447265625 596.421875 c 6
 961.447265625 486.23046875 l 6
 961.440429688 422.756835938 909.920898438 371.237304688 846.447265625 371.23046875 c 6
 299.34375 371.23046875 l 5
 308.6640625 301.643554688 332.107421875 251.313476562 363.083984375 216.99609375 c 4
 403.553710938 172.161132812 460.64453125 145 556.330078125 145 c 4
 556.734375 145 557.390625 144.995117188 557.794921875 144.990234375 c 4
 635.860351562 143.995117188 678.209960938 167.604492188 704.787109375 190.345703125 c 4
 718.076171875 201.715820312 726.946289062 213.55859375 731.171875 220.806640625 c 4
 731.571289062 221.491210938 731.8359375 222.184570312 732.1015625 222.869140625 c 5
 732.001953125 221.741210938 731.99609375 219.118164062 731.91796875 217.53125 c 5
 732.064453125 219.48046875 732.399414062 222.635742188 732.666015625 224.572265625 c 4
 733.104492188 226.25 733.106445312 227.12890625 732.98046875 227.484375 c 4
 741.428710938 281.086914062 792.325195312 324.590820312 846.58984375 324.590820312 c 4
 910.076171875 324.590820312 961.6015625 273.065429688 961.6015625 209.579101562 c 4
 961.6015625 209.133789062 961.595703125 208.412109375 961.58984375 207.966796875 c 4
 961.58984375 158.7109375 947.530273438 135.258789062 929.87109375 104.96875 c 4
 912.211914062 74.6787109375 887.564453125 44.0341796875 854.3203125 15.587890625 c 4
 787.954101562 -41.19921875 685.420898438 -86.4677734375 555.576171875 -84.984375 c 4
 410.4921875 -84.8076171875 279.671875 -33.853515625 192.3515625 62.884765625 c 4
 105.359375 159.259765625 65.3857421875 291.643554688 64.94921875 438.275390625 c 4
 64.4990234375 448.095703125 64.2607421875 459.135742188 63.978515625 470.177734375 c 4
 63.333984375 474.666992188 62.810546875 481.991210938 62.810546875 486.526367188 c 4
 62.810546875 489.376953125 63.017578125 493.995117188 63.2734375 496.833984375 c 4
 63.0869140625 508.290039062 62.91796875 520.2265625 62.91796875 520.2265625 c 6
 62.9130859375 520.612304688 62.9091796875 521.237304688 62.9091796875 521.623046875 c 4
 62.9091796875 522.051757812 62.9140625 522.747070312 62.919921875 523.17578125 c 6
 62.919921875 523.17578125 63.42578125 569.5 64.998046875 600.681640625 c 4
 66.91796875 818.362304688 230.161132812 1031.61132812 473.26171875 1034.98828125 c 4
 473.703125 1034.99414062 474.41796875 1035 474.859375 1035 c 6
476.169921875 805 m 6
 366.477539062 803.3125 296.953125 709.236328125 295.0859375 601.23046875 c 5
 731.236328125 601.23046875 l 5
 730.140625 649.635742188 712.595703125 706.205078125 683.908203125 743.830078125 c 4
 654.280273438 782.689453125 621.0625 805 559.458984375 805 c 6
 476.169921875 805 l 6
514.556640625 999.994140625 m 4
 628.897460938 999.9375 735.44140625 962.821289062 807.716796875 884.4453125 c 4
 880.047851562 806.009765625 912.2734375 696.2421875 912.2734375 571.619140625 c 4
 912.2734375 571.614257812 912.2734375 571.60546875 912.2734375 571.600585938 c 4
 912.2734375 571.595703125 912.2734375 571.586914062 912.2734375 571.58203125 c 6
 912.240234375 486.19140625 l 6
 912.212890625 431.018554688 867.413085938 386.236328125 812.240234375 386.23046875 c 6
 316.611328125 386.23046875 l 5
 323.993164062 302.924804688 351.907226562 247.530273438 387.482421875 210.46875 c 4
 429.10546875 167.106445312 484.859375 145 551.8125 145 c 4
 595.991210938 145 638.217773438 163.048828125 667.291015625 185.162109375 c 4
 696.364257812 207.274414062 699.169921875 244.571289062 699.169921875 207.904296875 c 5
 699.1640625 208.294921875 699.16015625 208.927734375 699.16015625 209.318359375 c 4
 699.16015625 264.524414062 743.96484375 309.328125 799.169921875 309.328125 c 4
 854.375 309.328125 899.1796875 264.524414062 899.1796875 209.318359375 c 4
 899.1796875 208.927734375 899.17578125 208.294921875 899.169921875 207.904296875 c 4
 899.169921875 115.543945312 848.080078125 71.388671875 788.3671875 25.97265625 c 4
 728.654296875 -19.443359375 647.202148438 -55 551.8125 -55 c 4
 437.756835938 -55 324.916015625 -13.162109375 243.197265625 71.97265625 c 4
 161.478515625 157.107421875 114.625 281.83203125 114.625 431.09765625 c 6
 114.634765625 429.634765625 l 5
 114.08984375 466.830078125 l 6
 113.040039062 472.135742188 112.1875 480.83203125 112.1875 486.241210938 c 4
 112.1875 490.836914062 112.8046875 498.245117188 113.564453125 502.77734375 c 6
 112.56640625 570.94921875 l 6
 112.560546875 571.352539062 112.5546875 572.008789062 112.5546875 572.412109375 c 4
 112.5546875 698.788085938 149.168945312 809.327148438 223.14453125 886.546875 c 4
 297.073242188 963.717773438 403.04296875 1000.47558594 514.556640625 999.994140625 c 4
513.8203125 800.001953125 m 4
 443.891601562 800.333007812 399.080078125 781.086914062 367.56640625 748.19140625 c 4
 337.720703125 717.037109375 315.102539062 667.18359375 312.787109375 586.23046875 c 5
 712.048828125 586.23046875 l 5
 709.787109375 668.44140625 688.456054688 718.751953125 660.689453125 748.861328125 c 4
 631.309570312 780.720703125 588.971679688 800 514.294921875 800 c 4
 514.1640625 800 513.951171875 800.000976562 513.8203125 800.001953125 c 4
335.265625 1733.98046875 m 4
 336.598632812 1734.04492188 338.764648438 1734.09765625 340.099609375 1734.09765625 c 4
 365.139648438 1734.09765625 398.848632812 1718.80761719 415.34375 1699.96875 c 6
 726.443359375 1354.63085938 l 6
 741.157226562 1338.75390625 753.098632812 1308.29882812 753.098632812 1286.65234375 c 4
 753.098632812 1231.44726562 708.293945312 1186.64257812 653.088867188 1186.64257812 c 4
 628.05078125 1186.64257812 594.342773438 1201.93066406 577.84765625 1220.76757812 c 6
 266.748046875 1566.10546875 l 6
 252.032226562 1581.98339844 240.08984375 1612.43945312 240.08984375 1634.08691406 c 4
 240.08984375 1686.68554688 282.728515625 1731.43847656 335.265625 1733.98046875 c 4
328.169921875 1731.88867188 m 4
 351.318359375 1730.79003906 383.899414062 1717.11230469 400.896484375 1701.359375 c 6
 746.234375 1390.25976562 l 6
 767.9140625 1371.29003906 785.5078125 1332.51367188 785.5078125 1303.70605469 c 4
 785.5078125 1240.21972656 733.983398438 1188.6953125 670.497070312 1188.6953125 c 4
 645.590820312 1188.6953125 610.555664062 1202.43945312 592.29296875 1219.375 c 6
 246.955078125 1530.47460938 l 6
 225.2890625 1549.44335938 207.705078125 1588.20996094 207.705078125 1617.00683594 c 4
 207.705078125 1680.49316406 259.23046875 1732.01757812 322.716796875 1732.01757812 c 4
 324.22265625 1732.01757812 326.666015625 1731.95996094 328.169921875 1731.88867188 c 4
EndSplineSet
EndChar

StartChar: eacute
Encoding: 233 233 171
Width: 1024
Flags: HW
LayerCount: 2
Fore
SplineSet
474.859375 1035 m 2
 559.458984375 1035 l 2
 690.94140625 1035 801.215820312 969.315429688 866.810546875 883.283203125 c 0
 932.405273438 797.250976562 961.447265625 694.60546875 961.447265625 596.421875 c 2
 961.447265625 486.23046875 l 2
 961.440429688 422.756835938 909.920898438 371.237304688 846.447265625 371.23046875 c 2
 299.34375 371.23046875 l 1
 308.6640625 301.643554688 332.107421875 251.313476562 363.083984375 216.99609375 c 0
 403.553710938 172.161132812 460.64453125 145 556.330078125 145 c 0
 556.734375 145 557.390625 144.995117188 557.794921875 144.990234375 c 0
 635.860351562 143.995117188 678.209960938 167.604492188 704.787109375 190.345703125 c 0
 718.076171875 201.715820312 726.946289062 213.55859375 731.171875 220.806640625 c 0
 731.571289062 221.491210938 731.8359375 222.184570312 732.1015625 222.869140625 c 1
 732.001953125 221.741210938 731.99609375 219.118164062 731.91796875 217.53125 c 1
 732.064453125 219.48046875 732.399414062 222.635742188 732.666015625 224.572265625 c 0
 733.104492188 226.25 733.106445312 227.12890625 732.98046875 227.484375 c 0
 741.428710938 281.086914062 792.325195312 324.590820312 846.58984375 324.590820312 c 0
 910.076171875 324.590820312 961.6015625 273.065429688 961.6015625 209.579101562 c 0
 961.6015625 209.133789062 961.595703125 208.412109375 961.58984375 207.966796875 c 0
 961.58984375 158.7109375 947.530273438 135.258789062 929.87109375 104.96875 c 0
 912.211914062 74.6787109375 887.564453125 44.0341796875 854.3203125 15.587890625 c 0
 787.954101562 -41.19921875 685.420898438 -86.4677734375 555.576171875 -84.984375 c 0
 410.4921875 -84.8076171875 279.671875 -33.853515625 192.3515625 62.884765625 c 0
 105.359375 159.259765625 65.3857421875 291.643554688 64.94921875 438.275390625 c 0
 64.4990234375 448.095703125 64.2607421875 459.135742188 63.978515625 470.177734375 c 0
 63.333984375 474.666992188 62.810546875 481.991210938 62.810546875 486.526367188 c 0
 62.810546875 489.376953125 63.017578125 493.995117188 63.2734375 496.833984375 c 0
 63.0869140625 508.290039062 62.91796875 520.2265625 62.91796875 520.2265625 c 2
 62.9130859375 520.612304688 62.9091796875 521.237304688 62.9091796875 521.623046875 c 0
 62.9091796875 522.051757812 62.9140625 522.747070312 62.919921875 523.17578125 c 2
 62.919921875 523.17578125 63.42578125 569.5 64.998046875 600.681640625 c 0
 66.91796875 818.362304688 230.161132812 1031.61132812 473.26171875 1034.98828125 c 0
 473.703125 1034.99414062 474.41796875 1035 474.859375 1035 c 2
476.169921875 805 m 2
 366.477539062 803.3125 296.953125 709.236328125 295.0859375 601.23046875 c 1
 731.236328125 601.23046875 l 1
 730.140625 649.635742188 712.595703125 706.205078125 683.908203125 743.830078125 c 0
 654.280273438 782.689453125 621.0625 805 559.458984375 805 c 2
 476.169921875 805 l 2
514.556640625 999.994140625 m 0
 628.897460938 999.9375 735.44140625 962.821289062 807.716796875 884.4453125 c 0
 880.047851562 806.009765625 912.2734375 696.2421875 912.2734375 571.619140625 c 0
 912.2734375 571.614257812 912.2734375 571.60546875 912.2734375 571.600585938 c 0
 912.2734375 571.595703125 912.2734375 571.586914062 912.2734375 571.58203125 c 2
 912.240234375 486.19140625 l 2
 912.212890625 431.018554688 867.413085938 386.236328125 812.240234375 386.23046875 c 2
 316.611328125 386.23046875 l 1
 323.993164062 302.924804688 351.907226562 247.530273438 387.482421875 210.46875 c 0
 429.10546875 167.106445312 484.859375 145 551.8125 145 c 0
 595.991210938 145 638.217773438 163.048828125 667.291015625 185.162109375 c 0
 696.364257812 207.274414062 699.169921875 244.571289062 699.169921875 207.904296875 c 1
 699.1640625 208.294921875 699.16015625 208.927734375 699.16015625 209.318359375 c 0
 699.16015625 264.524414062 743.96484375 309.328125 799.169921875 309.328125 c 0
 854.375 309.328125 899.1796875 264.524414062 899.1796875 209.318359375 c 0
 899.1796875 208.927734375 899.17578125 208.294921875 899.169921875 207.904296875 c 0
 899.169921875 115.543945312 848.080078125 71.388671875 788.3671875 25.97265625 c 0
 728.654296875 -19.443359375 647.202148438 -55 551.8125 -55 c 0
 437.756835938 -55 324.916015625 -13.162109375 243.197265625 71.97265625 c 0
 161.478515625 157.107421875 114.625 281.83203125 114.625 431.09765625 c 2
 114.634765625 429.634765625 l 1
 114.08984375 466.830078125 l 2
 113.040039062 472.135742188 112.1875 480.83203125 112.1875 486.241210938 c 0
 112.1875 490.836914062 112.8046875 498.245117188 113.564453125 502.77734375 c 2
 112.56640625 570.94921875 l 2
 112.560546875 571.352539062 112.5546875 572.008789062 112.5546875 572.412109375 c 0
 112.5546875 698.788085938 149.168945312 809.327148438 223.14453125 886.546875 c 0
 297.073242188 963.717773438 403.04296875 1000.47558594 514.556640625 999.994140625 c 0
513.8203125 800.001953125 m 0
 443.891601562 800.333007812 399.080078125 781.086914062 367.56640625 748.19140625 c 0
 337.720703125 717.037109375 315.102539062 667.18359375 312.787109375 586.23046875 c 1
 712.048828125 586.23046875 l 1
 709.787109375 668.44140625 688.456054688 718.751953125 660.689453125 748.861328125 c 0
 631.309570312 780.720703125 588.971679688 800 514.294921875 800 c 0
 514.1640625 800 513.951171875 800.000976562 513.8203125 800.001953125 c 0
657.947265625 1733.98046875 m 4
 656.614257812 1734.04492188 654.448242188 1734.09765625 653.11328125 1734.09765625 c 4
 628.073242188 1734.09765625 594.364257812 1718.80761719 577.869140625 1699.96875 c 6
 266.76953125 1354.63085938 l 6
 252.055664062 1338.75390625 240.114257812 1308.29882812 240.114257812 1286.65234375 c 4
 240.114257812 1231.44726562 284.918945312 1186.64257812 340.124023438 1186.64257812 c 4
 365.162109375 1186.64257812 398.870117188 1201.93066406 415.365234375 1220.76757812 c 6
 726.46484375 1566.10546875 l 6
 741.180664062 1581.98339844 753.123046875 1612.43945312 753.123046875 1634.08691406 c 4
 753.123046875 1686.68554688 710.484375 1731.43847656 657.947265625 1733.98046875 c 4
665.04296875 1731.88867188 m 4
 641.89453125 1730.79003906 609.313476562 1717.11230469 592.31640625 1701.359375 c 6
 246.978515625 1390.25976562 l 6
 225.298828125 1371.29003906 207.705078125 1332.51367188 207.705078125 1303.70605469 c 4
 207.705078125 1240.21972656 259.229492188 1188.6953125 322.715820312 1188.6953125 c 4
 347.622070312 1188.6953125 382.657226562 1202.43945312 400.919921875 1219.375 c 6
 746.2578125 1530.47460938 l 6
 767.923828125 1549.44335938 785.5078125 1588.20996094 785.5078125 1617.00683594 c 4
 785.5078125 1680.49316406 733.982421875 1732.01757812 670.49609375 1732.01757812 c 4
 668.990234375 1732.01757812 666.546875 1731.95996094 665.04296875 1731.88867188 c 4
EndSplineSet
EndChar

StartChar: ecircumflex
Encoding: 234 234 172
Width: 1024
Flags: W
LayerCount: 2
Fore
SplineSet
120 448 m 2
 120 544 l 2
 120 693 155 800 224 864 c 0
 293 928 376 960 472 960 c 2
 568 960 l 2
 659 960 737 928 804 864 c 0
 871 800 904 725 904 640 c 2
 904 528 l 1
 296 528 l 1
 291 475 291 424 296 376 c 0
 307 280 333 213 376 176 c 0
 419 139 467 120 520 120 c 0
 573 120 620 129 660 148 c 0
 700 167 736 205 768 264 c 1
 896 184 l 1
 864 131 821 87 768 52 c 0
 715 17 648 0 568 0 c 2
 480 0 l 2
 373 0 287 36 220 108 c 0
 153 180 120 293 120 448 c 2
192 1336 m 1
 472 1624 l 1
 552 1624 l 1
 832 1336 l 1
 728 1272 l 1
 512 1496 l 1
 296 1272 l 1
 192 1336 l 1
304 640 m 1
 736 640 l 1
 731 699 712 747 680 784 c 0
 648 821 595 840 520 840 c 0
 440 840 385 820 356 780 c 0
 327 740 309 693 304 640 c 1
EndSplineSet
EndChar

StartChar: edieresis
Encoding: 235 235 173
Width: 1024
Flags: W
LayerCount: 2
Fore
SplineSet
120 448 m 2
 120 544 l 2
 120 693 155 800 224 864 c 0
 293 928 376 960 472 960 c 2
 568 960 l 2
 659 960 737 928 804 864 c 0
 871 800 904 725 904 640 c 2
 904 528 l 1
 296 528 l 1
 291 475 291 424 296 376 c 0
 307 280 333 213 376 176 c 0
 419 139 467 120 520 120 c 0
 573 120 620 129 660 148 c 0
 700 167 736 205 768 264 c 1
 896 184 l 1
 864 131 821 87 768 52 c 0
 715 17 648 0 568 0 c 2
 480 0 l 2
 373 0 287 36 220 108 c 0
 153 180 120 293 120 448 c 2
120 1272 m 1
 120 1512 l 1
 360 1512 l 1
 360 1272 l 1
 120 1272 l 1
304 640 m 1
 736 640 l 1
 731 699 712 747 680 784 c 0
 648 821 595 840 520 840 c 0
 440 840 385 820 356 780 c 0
 327 740 309 693 304 640 c 1
616 1272 m 1
 616 1512 l 1
 856 1512 l 1
 856 1272 l 1
 616 1272 l 1
EndSplineSet
EndChar

StartChar: igrave
Encoding: 236 236 174
Width: 600
Flags: W
LayerCount: 2
Fore
SplineSet
152 1624 m 1
 312 1624 l 1
 448 1272 l 1
 352 1272 l 1
 152 1624 l 1
248 0 m 1
 248 960 l 1
 352 960 l 1
 352 0 l 1
 248 0 l 1
EndSplineSet
EndChar

StartChar: iacute
Encoding: 237 237 175
Width: 600
Flags: W
LayerCount: 2
Fore
SplineSet
152 1272 m 1
 288 1624 l 1
 448 1624 l 1
 248 1272 l 1
 152 1272 l 1
248 0 m 1
 248 960 l 1
 352 960 l 1
 352 0 l 1
 248 0 l 1
EndSplineSet
EndChar

StartChar: icircumflex
Encoding: 238 238 176
Width: 888
Flags: W
LayerCount: 2
Fore
SplineSet
168 1344 m 1
 408 1624 l 1
 480 1624 l 1
 720 1344 l 1
 632 1272 l 1
 448 1496 l 1
 256 1272 l 1
 168 1344 l 1
368 0 m 1
 368 960 l 1
 520 960 l 1
 520 0 l 1
 368 0 l 1
EndSplineSet
EndChar

StartChar: idieresis
Encoding: 239 239 177
Width: 736
Flags: W
LayerCount: 2
Fore
SplineSet
88 1272 m 1
 88 1512 l 1
 264 1512 l 1
 264 1272 l 1
 88 1272 l 1
304 0 m 1
 304 960 l 1
 432 960 l 1
 432 0 l 1
 304 0 l 1
448 1272 m 1
 448 1512 l 1
 616 1512 l 1
 616 1272 l 1
 448 1272 l 1
EndSplineSet
EndChar

StartChar: eth
Encoding: 240 240 178
Width: 1048
Flags: W
LayerCount: 2
Fore
SplineSet
80 472 m 0
 80 637 120 755 200 824 c 0
 280 893 379 928 496 928 c 0
 544 928 593 919 644 900 c 0
 695 881 733 856 760 824 c 1
 755 957 733 1061 696 1136 c 1
 224 976 l 1
 176 1104 l 1
 608 1248 l 1
 555 1301 485 1349 400 1392 c 1
 480 1512 l 1
 581 1464 677 1395 768 1304 c 1
 976 1376 l 1
 1024 1248 l 1
 848 1184 l 1
 912 1061 944 869 944 608 c 0
 944 400 904 247 824 148 c 0
 744 49 637 0 504 0 c 1
 365 -5 260 41 188 140 c 0
 116 239 80 349 80 472 c 0
232 472 m 0
 232 365 259 285 312 232 c 0
 365 179 424 152 488 152 c 0
 584 152 652 179 692 232 c 0
 732 285 752 365 752 472 c 0
 752 579 727 657 676 708 c 0
 625 759 563 784 488 784 c 0
 403 784 339 749 296 680 c 0
 253 611 232 541 232 472 c 0
EndSplineSet
EndChar

StartChar: ntilde
Encoding: 241 241 179
Width: 1024
Flags: W
LayerCount: 2
Fore
SplineSet
104 1272 m 1
 104 1424 l 1
 195 1504 269 1544 328 1544 c 0
 381 1544 429 1525 472 1488 c 2
 584 1392 l 2
 616 1365 656 1352 704 1352 c 0
 752 1352 824 1397 920 1488 c 1
 920 1336 l 1
 835 1256 763 1216 704 1216 c 0
 645 1216 595 1235 552 1272 c 2
 440 1368 l 2
 408 1395 371 1408 328 1408 c 0
 280 1408 205 1363 104 1272 c 1
160 0 m 1
 160 960 l 1
 328 960 l 1
 328 824 l 1
 355 867 384 900 416 924 c 0
 448 948 493 960 552 960 c 2
 648 960 l 2
 717 960 771 939 808 896 c 0
 845 853 864 792 864 712 c 2
 864 0 l 1
 696 0 l 1
 696 688 l 2
 696 736 687 769 668 788 c 0
 649 807 613 816 560 816 c 0
 517 816 480 805 448 784 c 0
 416 763 376 723 328 664 c 1
 328 0 l 1
 160 0 l 1
EndSplineSet
EndChar

StartChar: ograve
Encoding: 242 242 180
Width: 1040
Flags: W
LayerCount: 2
Fore
SplineSet
80 480 m 2
 80 504 l 2
 80 643 113 753 180 836 c 0
 247 919 339 960 456 960 c 2
 576 960 l 2
 709 960 808 917 872 832 c 0
 936 747 968 637 968 504 c 2
 968 480 l 2
 968 331 935 213 868 128 c 0
 801 43 704 0 576 0 c 2
 456 0 l 2
 328 0 233 40 172 120 c 0
 111 200 80 320 80 480 c 2
256 480 m 2
 256 352 273 263 308 212 c 0
 343 161 392 136 456 136 c 2
 576 136 l 2
 640 136 692 165 732 224 c 0
 772 283 792 368 792 480 c 2
 792 504 l 2
 792 611 773 691 736 744 c 0
 699 797 645 824 576 824 c 2
 456 824 l 2
 397 824 349 799 312 748 c 0
 275 697 256 616 256 504 c 2
 256 480 l 2
264 1624 m 1
 536 1624 l 1
 776 1272 l 1
 616 1272 l 1
 264 1624 l 1
EndSplineSet
EndChar

StartChar: oacute
Encoding: 243 243 181
Width: 1040
Flags: W
LayerCount: 2
Fore
SplineSet
80 480 m 2
 80 504 l 2
 80 643 113 753 180 836 c 0
 247 919 339 960 456 960 c 2
 576 960 l 2
 709 960 808 917 872 832 c 0
 936 747 968 637 968 504 c 2
 968 480 l 2
 968 331 935 213 868 128 c 0
 801 43 704 0 576 0 c 2
 456 0 l 2
 328 0 233 40 172 120 c 0
 111 200 80 320 80 480 c 2
256 480 m 2
 256 352 273 263 308 212 c 0
 343 161 392 136 456 136 c 2
 576 136 l 2
 640 136 692 165 732 224 c 0
 772 283 792 368 792 480 c 2
 792 504 l 2
 792 611 773 691 736 744 c 0
 699 797 645 824 576 824 c 2
 456 824 l 2
 397 824 349 799 312 748 c 0
 275 697 256 616 256 504 c 2
 256 480 l 2
264 1272 m 1
 504 1624 l 1
 776 1624 l 1
 424 1272 l 1
 264 1272 l 1
EndSplineSet
EndChar

StartChar: ocircumflex
Encoding: 244 244 182
Width: 1040
Flags: W
LayerCount: 2
Fore
SplineSet
80 480 m 2
 80 504 l 2
 80 643 113 753 180 836 c 0
 247 919 339 960 456 960 c 2
 576 960 l 2
 709 960 808 917 872 832 c 0
 936 747 968 637 968 504 c 2
 968 480 l 2
 968 331 935 213 868 128 c 0
 801 43 704 0 576 0 c 2
 456 0 l 2
 328 0 233 40 172 120 c 0
 111 200 80 320 80 480 c 2
200 1336 m 1
 480 1624 l 1
 560 1624 l 1
 840 1336 l 1
 744 1272 l 1
 520 1496 l 1
 304 1272 l 1
 200 1336 l 1
256 480 m 2
 256 352 273 263 308 212 c 0
 343 161 392 136 456 136 c 2
 576 136 l 2
 640 136 692 165 732 224 c 0
 772 283 792 368 792 480 c 2
 792 504 l 2
 792 611 773 691 736 744 c 0
 699 797 645 824 576 824 c 2
 456 824 l 2
 397 824 349 799 312 748 c 0
 275 697 256 616 256 504 c 2
 256 480 l 2
EndSplineSet
EndChar

StartChar: otilde
Encoding: 245 245 183
Width: 1040
Flags: W
LayerCount: 2
Fore
SplineSet
80 480 m 2
 80 504 l 2
 80 643 113 753 180 836 c 0
 247 919 339 960 456 960 c 2
 576 960 l 2
 709 960 808 917 872 832 c 0
 936 747 968 637 968 504 c 2
 968 480 l 2
 968 331 935 213 868 128 c 0
 801 43 704 0 576 0 c 2
 456 0 l 2
 328 0 233 40 172 120 c 0
 111 200 80 320 80 480 c 2
104 1272 m 1
 104 1424 l 1
 195 1504 269 1544 328 1544 c 0
 387 1544 437 1525 480 1488 c 2
 592 1392 l 2
 624 1365 664 1352 712 1352 c 0
 760 1352 835 1397 936 1488 c 1
 936 1336 l 1
 845 1256 771 1216 712 1216 c 0
 653 1216 603 1235 560 1272 c 2
 448 1368 l 2
 416 1395 376 1408 328 1408 c 0
 280 1408 205 1363 104 1272 c 1
256 480 m 2
 256 352 273 263 308 212 c 0
 343 161 392 136 456 136 c 2
 576 136 l 2
 640 136 692 165 732 224 c 0
 772 283 792 368 792 480 c 2
 792 504 l 2
 792 611 773 691 736 744 c 0
 699 797 645 824 576 824 c 2
 456 824 l 2
 397 824 349 799 312 748 c 0
 275 697 256 616 256 504 c 2
 256 480 l 2
EndSplineSet
EndChar

StartChar: odieresis
Encoding: 246 246 184
Width: 1040
Flags: W
LayerCount: 2
Fore
SplineSet
80 480 m 2
 80 504 l 2
 80 643 113 753 180 836 c 0
 247 919 339 960 456 960 c 2
 576 960 l 2
 709 960 808 917 872 832 c 0
 936 747 968 637 968 504 c 2
 968 480 l 2
 968 331 935 213 868 128 c 0
 801 43 704 0 576 0 c 2
 456 0 l 2
 328 0 233 40 172 120 c 0
 111 200 80 320 80 480 c 2
120 1272 m 1
 120 1512 l 1
 368 1512 l 1
 368 1272 l 1
 120 1272 l 1
256 480 m 2
 256 352 273 263 308 212 c 0
 343 161 392 136 456 136 c 2
 576 136 l 2
 640 136 692 165 732 224 c 0
 772 283 792 368 792 480 c 2
 792 504 l 2
 792 611 773 691 736 744 c 0
 699 797 645 824 576 824 c 2
 456 824 l 2
 397 824 349 799 312 748 c 0
 275 697 256 616 256 504 c 2
 256 480 l 2
624 1272 m 1
 624 1512 l 1
 872 1512 l 1
 872 1272 l 1
 624 1272 l 1
EndSplineSet
EndChar

StartChar: divide
Encoding: 247 247 185
Width: 2048
Flags: W
LayerCount: 2
Fore
SplineSet
312 712 m 1
 312 840 l 1
 1712 840 l 1
 1712 712 l 1
 312 712 l 1
904 344 m 0
 904 424 944 464 1024 464 c 0
 1104 464 1144 424 1144 344 c 0
 1144 264 1104 224 1024 224 c 0
 944 224 904 264 904 344 c 0
904 1216 m 0
 904 1296 944 1336 1024 1336 c 0
 1099 1336 1136 1296 1136 1216 c 0
 1136 1136 1099 1096 1024 1096 c 0
 944 1096 904 1136 904 1216 c 0
EndSplineSet
EndChar

StartChar: oslash
Encoding: 248 248 186
Width: 1040
Flags: W
LayerCount: 2
Fore
SplineSet
56 472 m 0
 56 595 99 707 184 808 c 0
 269 909 381 960 520 960 c 0
 595 960 661 947 720 920 c 1
 840 1128 l 1
 928 1072 l 1
 800 864 l 1
 928 763 992 629 992 464 c 0
 992 331 948 220 860 132 c 0
 772 44 659 0 520 0 c 0
 429 0 357 19 304 56 c 1
 176 -128 l 1
 96 -72 l 1
 224 112 l 1
 112 213 56 333 56 472 c 0
240 464 m 0
 240 373 259 301 296 248 c 1
 640 784 l 1
 603 805 563 816 520 816 c 0
 451 816 387 787 328 728 c 0
 269 669 240 581 240 464 c 0
360 168 m 1
 413 131 467 112 520 112 c 0
 589 112 653 141 712 200 c 0
 771 259 800 349 800 472 c 0
 800 584 771 672 712 736 c 1
 360 168 l 1
EndSplineSet
EndChar

StartChar: ugrave
Encoding: 249 249 187
Width: 1024
Flags: W
LayerCount: 2
Fore
SplineSet
152 264 m 2
 152 960 l 1
 336 960 l 1
 336 272 l 2
 336 187 379 144 464 144 c 0
 544 144 616 192 680 288 c 1
 680 960 l 1
 864 960 l 1
 864 0 l 1
 680 0 l 1
 680 104 l 1
 616 35 523 0 400 0 c 0
 320 0 259 23 216 68 c 0
 173 113 152 179 152 264 c 2
256 1624 m 1
 528 1624 l 1
 768 1272 l 1
 608 1272 l 1
 256 1624 l 1
EndSplineSet
EndChar

StartChar: uacute
Encoding: 250 250 188
Width: 1024
Flags: W
LayerCount: 2
Fore
SplineSet
152 264 m 2
 152 960 l 1
 336 960 l 1
 336 272 l 2
 336 187 379 144 464 144 c 0
 544 144 616 192 680 288 c 1
 680 960 l 1
 864 960 l 1
 864 0 l 1
 680 0 l 1
 680 104 l 1
 616 35 523 0 400 0 c 0
 320 0 259 23 216 68 c 0
 173 113 152 179 152 264 c 2
256 1272 m 1
 496 1624 l 1
 768 1624 l 1
 416 1272 l 1
 256 1272 l 1
EndSplineSet
EndChar

StartChar: ucircumflex
Encoding: 251 251 189
Width: 1024
Flags: W
LayerCount: 2
Fore
SplineSet
152 264 m 2
 152 960 l 1
 336 960 l 1
 336 272 l 2
 336 187 379 144 464 144 c 0
 544 144 616 192 680 288 c 1
 680 960 l 1
 864 960 l 1
 864 0 l 1
 680 0 l 1
 680 104 l 1
 616 35 523 0 400 0 c 0
 320 0 259 23 216 68 c 0
 173 113 152 179 152 264 c 2
192 1344 m 1
 472 1624 l 1
 552 1624 l 1
 832 1344 l 1
 728 1272 l 1
 512 1496 l 1
 296 1272 l 1
 192 1344 l 1
EndSplineSet
EndChar

StartChar: udieresis
Encoding: 252 252 190
Width: 1024
Flags: W
LayerCount: 2
Fore
SplineSet
120 1272 m 1
 120 1512 l 1
 360 1512 l 1
 360 1272 l 1
 120 1272 l 1
152 264 m 2
 152 960 l 1
 336 960 l 1
 336 272 l 2
 336 187 379 144 464 144 c 0
 544 144 616 192 680 288 c 1
 680 960 l 1
 864 960 l 1
 864 0 l 1
 680 0 l 1
 680 104 l 1
 616 35 523 0 400 0 c 0
 320 0 259 23 216 68 c 0
 173 113 152 179 152 264 c 2
616 1272 m 1
 616 1512 l 1
 856 1512 l 1
 856 1272 l 1
 616 1272 l 1
EndSplineSet
EndChar

StartChar: yacute
Encoding: 253 253 191
Width: 976
Flags: W
LayerCount: 2
Fore
SplineSet
96 960 m 1
 272 960 l 1
 472 304 l 1
 704 960 l 1
 888 960 l 1
 424 -288 l 1
 240 -288 l 1
 376 80 l 1
 96 960 l 1
248 1272 m 1
 472 1624 l 1
 728 1624 l 1
 400 1272 l 1
 248 1272 l 1
EndSplineSet
EndChar

StartChar: thorn
Encoding: 254 254 192
Width: 1016
Flags: W
LayerCount: 2
Fore
SplineSet
136 -232 m 1
 136 1360 l 1
 288 1360 l 1
 288 960 l 1
 384 1029 477 1064 568 1064 c 0
 680 1064 771 1021 840 936 c 0
 909 851 944 731 944 576 c 0
 944 411 907 289 832 212 c 0
 757 135 667 96 560 96 c 0
 464 96 373 125 288 184 c 1
 288 -232 l 1
 136 -232 l 1
288 344 m 1
 368 285 459 256 560 256 c 0
 699 256 768 363 768 576 c 0
 768 789 699 899 560 904 c 1
 448 904 357 859 288 768 c 1
 288 344 l 1
EndSplineSet
EndChar

StartChar: ydieresis
Encoding: 255 255 193
Width: 976
Flags: W
LayerCount: 2
Fore
SplineSet
96 960 m 1
 272 960 l 1
 472 304 l 1
 704 960 l 1
 888 960 l 1
 424 -288 l 1
 240 -288 l 1
 376 80 l 1
 96 960 l 1
120 1272 m 1
 120 1512 l 1
 344 1512 l 1
 344 1272 l 1
 120 1272 l 1
592 1272 m 1
 592 1512 l 1
 816 1512 l 1
 816 1272 l 1
 592 1272 l 1
EndSplineSet
EndChar

StartChar: OE
Encoding: 257 338 194
Width: 1368
Flags: W
LayerCount: 2
Fore
SplineSet
128 768 m 1
 123 1291 211 1552 392 1552 c 2
 456 1552 l 2
 568 1552 648 1451 696 1248 c 1
 696 1552 l 1
 1248 1552 l 1
 1248 1408 l 1
 832 1408 l 1
 832 904 l 1
 1176 904 l 1
 1176 768 l 1
 832 768 l 1
 832 152 l 1
 1240 152 l 1
 1240 0 l 1
 696 0 l 1
 696 288 l 1
 648 96 568 0 456 0 c 2
 392 0 l 2
 211 0 123 256 128 768 c 1
240 768 m 0
 240 363 291 157 392 152 c 1
 456 152 l 2
 563 152 616 357 616 768 c 0
 616 1195 565 1408 464 1408 c 2
 392 1408 l 2
 291 1408 240 1195 240 768 c 0
EndSplineSet
EndChar

StartChar: oe
Encoding: 258 339 195
Width: 1368
Flags: W
LayerCount: 2
Fore
SplineSet
120 472 m 2
 120 512 l 2
 120 651 144 760 192 840 c 0
 240 920 307 960 392 960 c 2
 480 960 l 2
 576 960 648 920 696 840 c 1
 712 872 l 1
 765 931 829 960 904 960 c 2
 976 960 l 2
 1051 960 1115 929 1168 868 c 0
 1221 807 1248 733 1248 648 c 2
 1248 536 l 1
 768 536 l 1
 768 368 l 1
 773 272 793 205 828 168 c 0
 863 131 901 112 944 112 c 0
 987 112 1023 121 1052 140 c 0
 1081 159 1109 197 1136 256 c 1
 1232 176 l 1
 1211 123 1179 80 1136 48 c 0
 1093 16 1040 0 976 0 c 2
 912 0 l 2
 832 0 765 35 712 104 c 1
 696 128 l 1
 643 43 571 0 480 0 c 2
 392 0 l 2
 301 0 233 39 188 116 c 0
 143 193 120 312 120 472 c 2
248 472 m 2
 248 344 260 252 284 196 c 0
 308 140 344 112 392 112 c 2
 480 112 l 2
 523 112 560 144 592 208 c 0
 613 256 627 317 632 392 c 1
 632 592 l 1
 627 661 613 717 592 760 c 0
 565 819 528 848 480 848 c 2
 392 848 l 2
 349 848 315 820 288 764 c 0
 261 708 248 624 248 512 c 2
 248 472 l 2
776 648 m 1
 1112 648 l 1
 1107 707 1091 753 1064 788 c 0
 1037 823 997 843 944 848 c 1
 880 848 836 828 812 788 c 0
 788 748 776 701 776 648 c 1
EndSplineSet
EndChar

StartChar: Ydieresis
Encoding: 259 376 196
Width: 1208
Flags: W
LayerCount: 2
Fore
SplineSet
240 1176 m 1
 384 1176 l 1
 600 640 l 1
 816 1176 l 1
 968 1176 l 1
 664 488 l 1
 664 0 l 1
 536 0 l 1
 536 488 l 1
 240 1176 l 1
312 1360 m 1
 312 1760 l 1
 496 1760 l 1
 496 1360 l 1
 312 1360 l 1
704 1360 m 1
 704 1760 l 1
 888 1760 l 1
 888 1360 l 1
 704 1360 l 1
EndSplineSet
EndChar

StartChar: circumflex
Encoding: 260 710 197
Width: 936
Flags: W
LayerCount: 2
Fore
SplineSet
192 1416 m 1
 432 1760 l 1
 496 1760 l 1
 728 1416 l 1
 648 1336 l 1
 464 1608 l 1
 280 1336 l 1
 192 1416 l 1
EndSplineSet
EndChar

StartChar: tilde
Encoding: 261 732 198
Width: 1016
Flags: W
LayerCount: 2
Fore
SplineSet
104 1456 m 1
 104 1608 l 1
 195 1688 267 1728 320 1728 c 0
 379 1728 427 1709 464 1672 c 1
 576 1576 l 2
 613 1549 653 1536 696 1536 c 0
 744 1536 816 1581 912 1672 c 1
 912 1520 l 1
 827 1440 755 1400 696 1400 c 0
 643 1400 595 1419 552 1456 c 2
 440 1552 l 2
 408 1579 368 1592 320 1592 c 0
 277 1592 205 1547 104 1456 c 1
EndSplineSet
EndChar

StartChar: uni2010
Encoding: 273 8208 210
Width: 1024
Flags: W
LayerCount: 2
Fore
SplineSet
152 544 m 1
 152 656 l 1
 864 656 l 1
 864 544 l 1
 152 544 l 1
EndSplineSet
EndChar

StartChar: uni2011
Encoding: 274 8209 211
Width: 1024
Flags: W
LayerCount: 2
Fore
SplineSet
152 544 m 1
 152 656 l 1
 864 656 l 1
 864 544 l 1
 152 544 l 1
EndSplineSet
EndChar

StartChar: figuredash
Encoding: 275 8210 212
Width: 1024
Flags: W
LayerCount: 2
Fore
SplineSet
152 544 m 1
 152 656 l 1
 864 656 l 1
 864 544 l 1
 152 544 l 1
EndSplineSet
EndChar

StartChar: endash
Encoding: 276 8211 213
Width: 1032
Flags: W
LayerCount: 2
Fore
SplineSet
80 712 m 1
 80 840 l 1
 952 840 l 1
 952 712 l 1
 80 712 l 1
EndSplineSet
EndChar

StartChar: emdash
Encoding: 277 8212 214
Width: 1368
Flags: W
LayerCount: 2
Fore
SplineSet
0 712 m 1
 0 840 l 1
 1368 840 l 1
 1368 712 l 1
 0 712 l 1
EndSplineSet
EndChar

StartChar: quoteleft
Encoding: 278 8216 215
Width: 1024
Flags: W
LayerCount: 2
Fore
SplineSet
544 1176 m 1
 544 1432 l 1
 736 1760 l 1
 840 1760 l 1
 680 1432 l 1
 832 1432 l 1
 832 1176 l 1
 544 1176 l 1
EndSplineSet
EndChar

StartChar: quoteright
Encoding: 279 8217 216
Width: 1024
Flags: W
LayerCount: 2
Fore
SplineSet
184 1448 m 1
 184 1760 l 1
 472 1760 l 1
 472 1448 l 1
 296 1176 l 1
 192 1176 l 1
 320 1448 l 1
 184 1448 l 1
EndSplineSet
EndChar

StartChar: quotesinglbase
Encoding: 280 8218 217
Width: 416
Flags: W
LayerCount: 2
Fore
SplineSet
48 -16 m 1
 48 296 l 1
 168 296 l 1
 168 -16 l 1
 96 -288 l 1
 56 -288 l 1
 104 -16 l 1
 48 -16 l 1
EndSplineSet
EndChar

StartChar: quotedblleft
Encoding: 281 8220 218
Width: 1024
Flags: W
LayerCount: 2
Fore
SplineSet
152 1176 m 1
 152 1456 l 1
 320 1760 l 1
 416 1760 l 1
 296 1456 l 1
 432 1456 l 1
 432 1176 l 1
 152 1176 l 1
576 1176 m 1
 576 1456 l 1
 744 1760 l 1
 840 1760 l 1
 720 1456 l 1
 856 1456 l 1
 856 1176 l 1
 576 1176 l 1
EndSplineSet
EndChar

StartChar: quotedblright
Encoding: 282 8221 219
Width: 1024
Flags: W
LayerCount: 2
Fore
SplineSet
176 1176 m 1
 296 1480 l 1
 176 1480 l 1
 176 1760 l 1
 456 1760 l 1
 456 1488 l 1
 272 1176 l 1
 176 1176 l 1
600 1176 m 1
 720 1480 l 1
 600 1480 l 1
 600 1760 l 1
 880 1760 l 1
 880 1488 l 1
 696 1176 l 1
 600 1176 l 1
EndSplineSet
EndChar

StartChar: quotedblbase
Encoding: 283 8222 220
Width: 712
Flags: W
LayerCount: 2
Fore
SplineSet
112 16 m 1
 112 296 l 1
 304 296 l 1
 304 24 l 1
 176 -288 l 1
 112 -288 l 1
 200 16 l 1
 112 16 l 1
408 16 m 1
 408 296 l 1
 600 296 l 1
 600 24 l 1
 472 -288 l 1
 408 -288 l 1
 488 16 l 1
 408 16 l 1
EndSplineSet
EndChar

StartChar: bullet
Encoding: 284 8226 221
Width: 416
Flags: W
LayerCount: 2
Fore
SplineSet
144 704 m 1
 144 960 l 1
 256 960 l 1
 256 704 l 1
 144 704 l 1
EndSplineSet
EndChar

StartChar: ellipsis
Encoding: 285 8230 222
Width: 2048
Flags: W
LayerCount: 2
Fore
SplineSet
224 584 m 1
 224 856 l 1
 496 856 l 1
 496 584 l 1
 224 584 l 1
872 584 m 1
 872 856 l 1
 1144 856 l 1
 1144 584 l 1
 872 584 l 1
1528 584 m 1
 1528 856 l 1
 1800 856 l 1
 1800 584 l 1
 1528 584 l 1
EndSplineSet
EndChar

StartChar: guilsinglleft
Encoding: 287 8249 224
Width: 1024
Flags: W
LayerCount: 2
Fore
SplineSet
96 752 m 1
 824 1496 l 1
 928 1376 l 1
 312 752 l 1
 928 120 l 1
 824 -8 l 1
 96 752 l 1
EndSplineSet
EndChar

StartChar: guilsinglright
Encoding: 288 8250 225
Width: 1024
Flags: W
LayerCount: 2
Fore
SplineSet
96 112 m 1
 712 736 l 1
 96 1368 l 1
 200 1496 l 1
 928 736 l 1
 200 -8 l 1
 96 112 l 1
EndSplineSet
EndChar

StartChar: Euro
Encoding: 290 8364 227
Width: 1349
Flags: W
LayerCount: 2
Fore
SplineSet
22 536 m 1
 147 536 l 1
 151 512 l 2
 175 379 221 266 289 175 c 0
 394 34 534 -36 711 -36 c 0
 860 -36 975 1 1054 76 c 0
 1134 150 1191 245 1224 361 c 1
 1116 419 l 1
 1072 303 1022 224 967 183 c 0
 912 142 826 121 710 121 c 0
 594 122 493 167 408 256 c 0
 349 317 309 403 286 512 c 2
 280 539 l 1
 942 538 l 1
 942 684 l 1
 462 684 l 1
 264 684 l 1
 264 850 l 1
 942 850 l 1
 942 994 l 1
 285 994 l 1
 292 1022 l 2
 316 1111 355 1189 409 1255 c 0
 494 1360 595 1412 710 1412 c 0
 826 1412 915 1386 976 1334 c 0
 1036 1281 1083 1205 1116 1106 c 1
 1224 1188 l 1
 1185 1304 1123 1397 1038 1466 c 0
 953 1535 844 1570 711 1570 c 0
 546 1570 408 1495 297 1346 c 0
 231 1256 185 1148 158 1022 c 2
 152 994 l 1
 24 995 l 1
 24 850 l 1
 134 850 l 1
 133 823 132 796 132 769 c 0
 132 734 132 705 133 684 c 1
 24 684 l 1
 22 536 l 1
EndSplineSet
EndChar

StartChar: trademark
Encoding: 291 8482 228
Width: 1144
Flags: W
LayerCount: 2
Fore
SplineSet
48 1432 m 1
 48 1552 l 1
 528 1552 l 1
 528 1432 l 1
 344 1432 l 1
 344 960 l 1
 216 960 l 1
 216 1432 l 1
 48 1432 l 1
552 960 m 1
 552 1552 l 1
 696 1552 l 1
 800 1288 l 1
 912 1552 l 1
 1064 1552 l 1
 1064 960 l 1
 944 960 l 1
 944 1328 l 1
 856 1112 l 1
 760 1112 l 1
 664 1312 l 1
 664 960 l 1
 552 960 l 1
EndSplineSet
EndChar

StartChar: uni25FC
Encoding: 292 9724 229
Width: 1175
Flags: W
LayerCount: 2
Fore
SplineSet
0 0 m 1
 0 1175 l 1
 1175 1175 l 1
 1175 0 l 1
 0 0 l 1
EndSplineSet
EndChar

StartChar: uniFB01
Encoding: 293 64257 230
Width: 888
Flags: W
LayerCount: 2
Fore
SplineSet
24 1040 m 1
 24 1176 l 1
 136 1176 l 1
 136 1440 l 2
 136 1531 156 1607 196 1668 c 0
 236 1729 301 1760 392 1760 c 2
 480 1760 l 1
 480 1600 l 1
 384 1600 l 2
 347 1600 319 1587 300 1560 c 0
 281 1533 272 1493 272 1440 c 2
 272 1176 l 1
 728 1176 l 1
 728 0 l 1
 592 0 l 1
 592 1040 l 1
 272 1040 l 1
 272 0 l 1
 136 0 l 1
 136 1040 l 1
 24 1040 l 1
EndSplineSet
EndChar

StartChar: uniFB02
Encoding: 294 64258 231
Width: 944
Flags: W
LayerCount: 2
Fore
SplineSet
24 1040 m 1
 24 1176 l 1
 144 1176 l 1
 144 1440 l 2
 144 1531 165 1607 208 1668 c 0
 251 1729 320 1760 416 1760 c 0
 491 1760 565 1733 640 1680 c 1
 640 1760 l 1
 784 1760 l 1
 784 0 l 1
 640 0 l 1
 640 1528 l 1
 560 1576 483 1600 408 1600 c 0
 371 1600 341 1587 320 1560 c 0
 299 1533 288 1493 288 1440 c 2
 288 1176 l 1
 512 1176 l 1
 512 1040 l 1
 288 1040 l 1
 288 0 l 1
 144 0 l 1
 144 1040 l 1
 24 1040 l 1
EndSplineSet
EndChar
